<?xml version="1.0" standalone="no"?>
<!DOCTYPE svg PUBLIC "-//W3C//DTD SVG 1.1//EN" "http://www.w3.org/Graphics/SVG/1.1/DTD/svg11.dtd" >
<svg xmlns="http://www.w3.org/2000/svg">
<metadata>
Created by FontPrep 20130207 at Thu Aug 25 09:41:27 2016
 By Phillip De Vita
(c) 1989, 1992, 1994, 1996, 1998, 1999, 2000, 2001 Adobe Systems Incorporated. All rights reserved.
</metadata>
<defs>
<font id="1eabc8b27c1d378ed9b1f5dd58b5095c" horiz-adv-x='1024' >
  <font-face 
    font-family="AGaramondPro-Regular"
    font-weight="400"
    font-stretch="normal"
    units-per-em="2048"
    panose-1="2 2 5 2 6 5 6 2 4 3"
    ascent="1485"
    descent="-563"
    x-height="813"
    cap-height="1358"
    bbox="-375 -725 2775.02 1878"
    underline-thickness="102"
    underline-position="-102"
    unicode-range="U+0020-FB04"
  />
<missing-glyph horiz-adv-x="1024" 
d="M102 1239v-1044l349 522zM164 102h696l-348 523zM573 717l349 -522v1044zM512 809l348 522h-696zM0 0v1434h1024v-1434h-1024z" />
    <glyph glyph-name="T_h" unicode="Th" horiz-adv-x="2181" 
d="M606 307v916q0 47 -8 56t-53 9h-133q-197 0 -250 -48t-94 -144q-12 -8 -30 -3t-24 17q47 135 78 305q4 4 20 4t19 -4q4 -25 19 -42t61 -19q45 -2 94 -2h850q141 0 152 28v29l137 55q14 0 20 -12q-6 -184 -6 -254v-430q0 -33 8 -39q138 107 276 107t202 -74t63 -191v-342
q0 -115 12 -143t66 -35l55 -6q10 -7 8 -27t-12 -24q-110 6 -212 6t-183 -6q-10 4 -12 23t8 28l41 6q55 8 66 36t11 142v293q0 102 -49 160t-144 59q-95 0 -161 -55q-29 -25 -36 -42t-7 -71v-344q0 -113 12 -141t66 -37l43 -6q10 -7 8 -27t-12 -24q-91 6 -193 6t-200 -6
q-10 4 -13 23q-2 19 9 28l51 6q55 6 66 35t12 143v916q1 94 -51 119t-236 24h-186q-44 0 -52 -9t-8 -60v-912q0 -166 18 -207t105 -49l66 -6q8 -7 7 -27t-12 -24q-176 6 -266 6t-286 -6q-10 4 -12 23q-1 19 12 28l73 6q86 8 107 50q20 42 20 206z" />
    <glyph glyph-name="Tcaron_h" unicode="&#x164;h" horiz-adv-x="2181" 
d="M639 1460l-252 232q0 14 8 27t21 14l233 -117q21 -12 31 -11t35 11l237 117q23 -4 23 -41l-250 -232q-41 -39 -86 0zM606 307v916q0 47 -8 56t-53 9h-133q-197 0 -250 -48t-94 -144q-12 -8 -30 -3t-24 17q47 135 78 305q4 4 20 4t19 -4q4 -25 19 -42t61 -19q45 -2 94 -2
h850q141 0 152 28v29l137 55q14 0 20 -12q-6 -184 -6 -254v-430q0 -33 8 -39q138 107 276 107t202 -74t63 -191v-342q0 -115 12 -143t66 -35l55 -6q10 -7 8 -27t-12 -24q-110 6 -212 6t-183 -6q-10 4 -12 23t8 28l41 6q55 8 66 36t11 142v293q0 102 -49 160t-144 59
q-95 0 -161 -55q-29 -25 -36 -42t-7 -71v-344q0 -113 12 -141t66 -37l43 -6q10 -7 8 -27t-12 -24q-91 6 -193 6t-200 -6q-10 4 -13 23q-2 19 9 28l51 6q55 6 66 35t12 143v916q1 94 -51 119t-236 24h-186q-44 0 -52 -9t-8 -60v-912q0 -166 18 -207t105 -49l66 -6q8 -7 7 -27
t-12 -24q-176 6 -266 6t-286 -6q-10 4 -12 23q-1 19 12 28l73 6q86 8 107 50q20 42 20 206z" />
    <glyph glyph-name="Tcommaaccent_h" unicode="&#x162;h" horiz-adv-x="2181" 
d="M565 -199q-1 33 23 57t69 23q45 0 88 -45t43 -125q0 -193 -225 -262q-12 6 -14 32t4 32q47 16 88 53t41 83t-20 61q-39 30 -68 44t-29 47zM606 307v916q0 47 -8 56t-53 9h-133q-197 0 -250 -48t-94 -144q-12 -8 -30 -3t-24 17q47 135 78 305q4 4 20 4t19 -4q4 -25 19 -42
t61 -19q45 -2 94 -2h850q141 0 152 28v29l137 55q14 0 20 -12q-6 -184 -6 -254v-430q0 -33 8 -39q138 107 276 107t202 -74t63 -191v-342q0 -115 12 -143t66 -35l55 -6q10 -7 8 -27t-12 -24q-110 6 -212 6t-183 -6q-10 4 -12 23t8 28l41 6q55 8 66 36t11 142v293
q0 102 -49 160t-144 59q-95 0 -161 -55q-29 -25 -36 -42t-7 -71v-344q0 -113 12 -141t66 -37l43 -6q10 -7 8 -27t-12 -24q-91 6 -193 6t-200 -6q-10 4 -13 23q-2 19 9 28l51 6q55 6 66 35t12 143v916q1 94 -51 119t-236 24h-186q-44 0 -52 -9t-8 -60v-912q0 -166 18 -207
t105 -49l66 -6q8 -7 7 -27t-12 -24q-176 6 -266 6t-286 -6q-10 4 -12 23q-1 19 12 28l73 6q86 8 107 50q20 42 20 206z" />
    <glyph glyph-name="f_f_j" unicode="ffj" horiz-adv-x="1601" 
d="M406 807h307q12 0 21 11t9 26q0 184 54 352q-17 55 -73 101t-120 46q-121 0 -175 -73q-53 -73 -68 -176q-15 -102 -15 -220v-10q0 -41 8 -49t52 -8zM195 229v433q1 43 -5 51t-36 8h-72q-23 14 -6 39l88 43q31 16 31 41q0 170 69 317q52 106 146 180t231 74q87 0 149 -29
t87 -63q45 57 133 99t193 42t180 -47t75 -112q0 -41 -28 -63t-59 -22q-32 0 -50 31q-41 70 -94 103t-99 32q-233 0 -233 -493v-23q0 -39 7 -51t32 -12h229q186 0 269 31q14 0 20 -11q-8 -147 -8 -256v-469q0 -215 -43 -319q-78 -188 -311 -334q-18 2 -27 16q-8 14 -2 31
q72 35 121 92q111 129 110 484v514q0 92 -17 114t-85 21h-256q-25 0 -32 -12t-7 -52v-428q0 -115 12 -145t66 -33l65 -6q10 -7 8 -27t-12 -24q-125 6 -222 6t-189 -6q-10 4 -13 23q-2 19 8 28l48 6q55 8 66 36t11 142v433q0 43 -5 51t-36 8h-321q-25 0 -30 -8t-5 -51v-433
q0 -115 12 -145t66 -33l74 -6q10 -7 8 -27t-12 -24q-136 6 -232 6t-188 -6q-10 4 -13 23q-2 19 9 28l47 6q55 7 67 35t11 143z" />
    <glyph glyph-name="f_j" unicode="fj" horiz-adv-x="1052" 
d="M195 229v433q1 43 -5 51t-36 8h-72q-23 14 -6 39l88 43q31 16 31 41q0 199 63 344q43 102 143 189t254 87q103 0 179 -47t75 -112q1 -41 -27 -63t-60 -22t-50 31q-41 70 -94 103t-98 32q-233 0 -234 -493v-23q0 -39 7 -51t32 -12h229q186 0 269 31q14 0 20 -11
q-8 -147 -8 -256v-469q0 -215 -43 -319q-78 -188 -311 -334q-18 2 -27 16q-8 14 -2 31q72 35 121 92q111 129 110 484v514q0 92 -17 114t-85 21h-256q-25 0 -32 -12t-7 -52v-428q0 -115 12 -145t66 -33l65 -6q11 -7 9 -27t-13 -24q-125 6 -222 6t-189 -6q-10 4 -13 23
q-2 19 9 28l47 6q55 7 67 35t11 143z" />
    <glyph glyph-name="f_f" unicode="ff" horiz-adv-x="1142" 
d="M406 807h307q12 0 21 11t9 26q0 180 52 354q-15 53 -71 99t-120 46q-121 0 -175 -73q-53 -73 -68 -176q-15 -102 -15 -220v-10q0 -41 8 -49t52 -8zM195 229v433q1 43 -5 51t-36 8h-72q-23 14 -6 39l88 43q31 16 31 41q0 170 69 317q52 106 146 180t238 74t224 -90
q41 53 126 96q86 43 174 43t144 -34t56 -89q0 -31 -22 -53q-51 -48 -101 6q-78 90 -159 90q-102 0 -148 -110q-47 -119 -47 -350v-60q0 -41 4 -49t31 -8h233q17 -16 11 -48t-25 -38h-219q-25 0 -30 -8t-5 -51v-433q0 -115 12 -145t66 -33l65 -6q10 -7 8 -27t-12 -24
q-125 6 -222 6t-189 -6q-10 4 -13 23q-2 19 8 28l48 6q55 8 66 36t11 142v433q0 43 -5 51t-36 8h-321q-25 0 -30 -8t-5 -51v-433q0 -115 12 -145t66 -33l74 -6q10 -7 8 -27t-12 -24q-136 6 -232 6t-188 -6q-10 4 -13 23q-2 19 9 28l47 6q55 7 67 35t11 143z" />
    <glyph glyph-name="f_f_i" unicode="ffi" horiz-adv-x="1617" 
d="M406 807h307q12 0 21 11t9 26q0 184 54 352q-17 55 -73 101t-120 46q-121 0 -175 -73q-53 -73 -68 -176q-15 -102 -15 -220v-10q0 -41 8 -49t52 -8zM195 229v433q1 43 -5 51t-36 8h-72q-23 14 -6 39l88 43q31 16 31 41q0 170 69 317q52 106 146 180t231 74q87 0 149 -29
t87 -63q45 57 133 99t193 42t180 -47t75 -112q0 -41 -28 -63t-59 -22q-32 0 -50 31q-41 70 -94 103t-99 32q-233 0 -233 -493v-23q0 -39 7 -51t32 -12h229q186 0 269 31q14 0 20 -11q-8 -147 -8 -256v-342q0 -113 12 -141t66 -37l43 -6q10 -7 8 -27t-12 -24q-91 6 -195 6
t-190 -6q-10 4 -13 23q-2 19 8 28l43 6q55 8 67 36q11 28 11 142v357q0 92 -17 114t-85 21h-256q-25 0 -32 -12t-7 -52v-428q0 -115 12 -145t66 -33l65 -6q10 -7 8 -27t-12 -24q-125 6 -222 6t-189 -6q-10 4 -13 23q-2 19 8 28l48 6q55 8 66 36t11 142v433q0 43 -5 51t-36 8
h-321q-25 0 -30 -8t-5 -51v-433q0 -115 12 -145t66 -33l74 -6q10 -7 8 -27t-12 -24q-136 6 -232 6t-188 -6q-10 4 -13 23q-2 19 9 28l47 6q55 7 67 35t11 143z" />
    <glyph glyph-name="f_f_l" unicode="ffl" horiz-adv-x="1615" 
d="M1292 848v330q0 109 -35 155q-49 66 -127 66t-130 -48t-72 -134q-33 -142 -33 -304v-63q0 -31 6 -37t33 -6h319q25 0 32 7t7 34zM406 807h307q12 0 21 11t9 26q0 180 52 354q-15 53 -71 99t-120 46q-121 0 -175 -73q-53 -73 -68 -176q-15 -102 -15 -220v-10q0 -41 8 -49
t52 -8zM195 229v433q1 43 -5 51t-36 8h-72q-23 14 -6 39l88 43q31 16 31 41q0 170 69 317q52 106 146 180t238 74t224 -90q41 53 124 96t187 43t189 -53l53 53q16 0 25 -8q-6 -135 -6 -305v-922q0 -113 12 -141t66 -37l47 -6q10 -7 8 -27t-12 -24q-99 6 -201 6t-188 -6
q-10 4 -13 23q-2 19 8 28l43 6q55 8 67 36q11 28 11 142v451q0 27 -6 34t-33 7h-319q-29 0 -34 -8t-5 -56v-428q0 -115 12 -145t66 -33l65 -6q10 -7 8 -27t-12 -24q-125 6 -222 6t-189 -6q-10 4 -13 23q-2 19 8 28l48 6q55 8 66 36t11 142v433q0 43 -5 51t-36 8h-321
q-25 0 -30 -8t-5 -51v-433q0 -115 12 -145t66 -33l74 -6q10 -7 8 -27t-12 -24q-136 6 -232 6t-188 -6q-10 4 -13 23q-2 19 9 28l47 6q55 7 67 35t11 143z" />
    <glyph glyph-name="f_i" unicode="fi" horiz-adv-x="1069" 
d="M195 229v433q1 43 -5 51t-36 8h-72q-23 14 -6 39l88 43q31 16 31 41q0 199 63 344q43 102 143 189t254 87q103 0 179 -47t75 -112q1 -41 -27 -63t-60 -22t-50 31q-41 70 -94 103t-98 32q-233 0 -234 -493v-23q0 -39 7 -51t32 -12h229q186 0 269 31q14 0 20 -11
q-8 -147 -8 -256v-342q0 -113 12 -141t66 -37l43 -6q10 -7 8 -27t-12 -24q-92 6 -196 6t-189 -6q-10 4 -13 23q-2 19 9 28l43 6q55 8 66 36t11 142v357q0 92 -17 114t-85 21h-256q-25 0 -32 -12t-7 -52v-428q0 -115 12 -145t66 -33l65 -6q11 -7 9 -27t-13 -24q-125 6 -222 6
t-189 -6q-10 4 -13 23q-2 19 9 28l47 6q55 7 67 35t11 143z" />
    <glyph glyph-name="f_l" unicode="fl" horiz-adv-x="1069" 
d="M743 848v330q0 109 -34 155q-51 66 -128 66t-129 -48q-106 -98 -106 -438v-63q0 -31 6 -37t33 -6h320q25 0 31 7t7 34zM705 721h-320q-29 0 -34 -8t-5 -56v-428q0 -115 12 -145t66 -33l63 -6q11 -7 9 -27t-13 -24q-123 6 -220 6t-189 -6q-10 4 -13 23q-2 19 9 28l47 6
q55 8 66 36t12 142v433q1 43 -5 51t-36 8h-72q-23 14 -6 39l88 43q31 16 31 41q0 220 49 340t145 200t244 80q104 0 190 -53l54 53q16 0 24 -8q-6 -135 -6 -305v-922q0 -113 12 -141t66 -37l49 -6q10 -7 8 -27t-12 -24q-100 6 -202 6t-193 -6q-10 4 -13 23q-2 19 8 28l48 6
q55 8 66 36t11 142v451q1 27 -5 34t-33 7z" />
    <glyph glyph-name=".notdef" horiz-adv-x="1024" 
d="M102 1239v-1044l349 522zM164 102h696l-348 523zM573 717l349 -522v1044zM512 809l348 522h-696zM0 0v1434h1024v-1434h-1024z" />
    <glyph glyph-name=".null" horiz-adv-x="0" 
 />
    <glyph glyph-name="nonmarkingreturn" horiz-adv-x="681" 
 />
    <glyph glyph-name="space" unicode=" " horiz-adv-x="512" 
 />
    <glyph glyph-name="exclam" unicode="!" horiz-adv-x="450" 
d="M225 1323q53 0 77 -11t24 -45t-15 -186l-59 -661q-10 -10 -28 -10t-25 10l-60 661q-14 152 -14 186t23 45q24 11 77 11zM227 -29q-49 0 -83 31t-33 82q0 51 32 86q33 35 83 35t82 -35t32 -85t-32 -82t-81 -32z" />
    <glyph glyph-name="quotedbl" unicode="&#x22;" horiz-adv-x="827" 
d="M578 1434q49 0 68 -10q20 -10 20 -28q0 -20 -11 -91l-53 -330q-25 -25 -49 0l-53 330q-10 72 -10 91q0 18 19 28q20 10 69 10zM162 1396q0 38 88 38t88 -38q0 -20 -10 -91l-54 -330q-25 -25 -49 0l-53 330q-10 72 -10 91z" />
    <glyph glyph-name="numbersign" unicode="#" horiz-adv-x="1024" 
d="M979 825h-209l-90 -331h203l-31 -103h-201l-104 -385h-80l102 385h-243l-105 -385h-78l103 385h-228l31 103h223l88 331h-229l33 103h223l92 350h88l-94 -350h238l92 350h90l-94 -350h207zM684 825h-240l-90 -331h242z" />
    <glyph glyph-name="dollar" unicode="$" horiz-adv-x="1024" 
d="M428 -201q-23 0 -33 8l25 197q-156 10 -250 66q-57 68 -57 268q6 10 19 13t26 -7q70 -231 268 -274l68 546l-78 39q-98 49 -164 135t-66 193q0 139 104 231t288 97l18 157q8 10 35 10t35 -10l-21 -159q78 -2 205 -31q39 -96 43 -231q-3 -11 -19 -13t-26 6q-18 47 -34 76
q-15 29 -62 72t-113 57l-61 -495l86 -45q246 -129 245 -351q-1 -156 -115 -255t-309 -99l-22 -193q-12 -8 -35 -8zM760 270q0 100 -40 174t-163 140l-63 -521q114 -1 190 53t76 154zM324 1030q0 -142 190 -246l55 467q-139 -1 -192 -67t-53 -154z" />
    <glyph glyph-name="percent" unicode="%" horiz-adv-x="1728" 
d="M1303 1300l-834 -1382q-25 0 -43 12t-18 33l827 1372q39 4 68 -35zM571 913q0 343 -163 340q-51 1 -87 -35q-37 -36 -59 -116t-22 -160q0 -369 168 -369q51 0 87 36q36 35 51 95q25 100 25 209zM583 584q-75 -68 -177 -68t-178 68q-136 123 -136 331q0 207 135 329
q75 67 179 67t178 -67q135 -122 135 -330q0 -207 -136 -330zM1489 369q0 227 -77 304q-36 36 -87 36q-129 0 -162 -239q-6 -50 -6 -101q0 -223 81 -304q36 -36 87 -36q130 0 159 239q5 50 5 101zM1636 370q0 -89 -30 -176t-106 -155q-75 -68 -177 -68t-177 68
q-138 125 -137 333q1 207 136 327q74 67 178 67t178 -67q75 -67 105 -153t30 -176z" />
    <glyph glyph-name="ampersand" unicode="&#x26;" horiz-adv-x="1675" 
d="M725 1073q-1 74 -37 126t-104 52t-109 -51t-41 -117q0 -127 168 -223q123 84 123 213zM588 92q193 0 352 189q-76 131 -190 257q-115 125 -236 205q-90 -45 -161 -136t-71 -217t86 -212q85 -86 220 -86zM1346 979q178 0 288 8q10 -8 12 -24t-8 -25l-90 -14
q-53 -8 -100 -48t-69 -71q-23 -31 -75 -118t-229 -329l68 -102q73 -112 145 -148t168 -36t168 73q12 -2 20 -12t3 -24q-111 -137 -326 -138q-154 0 -219 60q-33 27 -125 188q-221 -248 -447 -248q-199 0 -300 114t-101 258q0 145 86 247t246 196q-158 109 -158 238t86 208
t202 79q115 0 189 -69t74 -171t-69 -158q-40 -33 -59 -46t-79 -46q203 -125 391 -401q39 53 106 164q68 112 110 198t42 110t-53 30l-69 8q-10 8 -9 24t13 25h168z" />
    <glyph glyph-name="quotesingle" unicode="'" horiz-adv-x="481" 
d="M154 1396q0 38 88 38t88 -38q0 -20 -11 -91l-53 -330q-25 -25 -49 0l-53 330q-10 72 -10 91z" />
    <glyph glyph-name="parenleft" unicode="(" horiz-adv-x="655" 
d="M299 553q0 -524 315 -856q0 -29 -28 -31q-190 127 -306 365q-116 239 -116 523t116 522t306 364q29 -2 28 -31q-315 -332 -315 -856z" />
    <glyph glyph-name="parenright" unicode=")" horiz-adv-x="655" 
d="M356 553q0 524 -315 856q0 29 29 31q190 -127 306 -365q116 -239 116 -523t-116 -522t-306 -364q-29 2 -29 31q315 332 315 856z" />
    <glyph glyph-name="asterisk" unicode="*" horiz-adv-x="806" 
d="M430 1384l21 -266l256 129q14 -2 21 -15t3 -28l-235 -164l233 -161q4 -15 -3 -29t-21 -16l-254 133l-21 -267q-25 -20 -49 0l-23 267l-254 -133q-14 2 -21 16t-3 29l233 161l-235 164q-4 14 3 28t21 15l256 -129l23 266q22 18 49 0z" />
    <glyph glyph-name="plus" unicode="+" horiz-adv-x="1024" 
d="M573 0h-120v371h-334v100h334v336h120v-336h334v-100h-334v-371z" />
    <glyph glyph-name="comma" unicode="," horiz-adv-x="512" 
d="M131 152q1 42 27 70t80 28t104 -53t51 -158q0 -105 -74 -179t-192 -108q-14 4 -18 22t6 27q168 53 168 179q0 47 -35 74q-35 26 -64 36q-53 19 -53 62z" />
    <glyph glyph-name="hyphen" unicode="-" horiz-adv-x="655" 
d="M590 448q0 -38 -17 -59l-477 -45q-30 25 -30 61t16 56l477 45q31 -20 31 -58z" />
    <glyph glyph-name="period" unicode="." horiz-adv-x="512" 
d="M258 -29q-49 0 -83 31t-34 82t33 86t83 35t82 -35t32 -85t-32 -82t-81 -32z" />
    <glyph glyph-name="slash" unicode="/" horiz-adv-x="669" 
d="M608 1405l-428 -1438h-119l428 1438h119z" />
    <glyph glyph-name="zero" unicode="0" horiz-adv-x="1024" 
d="M512 1249q-242 0 -242 -608t242 -608t242 608t-242 608zM512 1311q140 1 240 -105q184 -195 184 -565q0 -255 -98 -455q-49 -98 -133 -156t-193 -58t-193 58q-151 105 -206 370q-25 116 -25 262t42 291q42 146 141 252q100 106 241 106z" />
    <glyph glyph-name="one" unicode="1" horiz-adv-x="1024" 
d="M451 250v696q-1 113 -17 150t-82 43l-98 8q-12 6 -13 22t11 23q215 39 338 119q14 0 20 -11q-8 -74 -8 -256v-794q0 -125 13 -160t75 -39l86 -6q10 -7 8 -27t-12 -24q-121 6 -246 6t-243 -6q-10 4 -13 23q-2 19 9 28l83 6q61 4 75 39t14 160z" />
    <glyph glyph-name="two" unicode="2" horiz-adv-x="1024" 
d="M393 127h254q141 0 187 40t71 89q29 12 45 -12q-49 -190 -94 -250q-127 6 -264 6h-297q-160 0 -227 -6q-14 6 -14 20t22 29q68 43 129 102t184 193q293 315 293 563q0 141 -67 220t-189 79q-172 0 -266 -205q-14 -8 -32 0q-17 8 -17 27q49 133 160 211q113 78 259 78
t238 -92t92 -242q0 -199 -219 -451l-125 -143q-186 -213 -186 -238q0 -18 63 -18z" />
    <glyph glyph-name="three" unicode="3" horiz-adv-x="1024" 
d="M291 -115q-86 0 -147 31q-60 31 -60 96q0 33 22 57q23 23 64 23t88 -68t113 -67q113 0 239 122t127 272q0 150 -68 246q-69 95 -197 95t-220 -100q-27 4 -40 23t-5 49q244 109 328 178q109 88 108 196q0 80 -48 128t-120 48q-168 0 -276 -180q-16 -4 -30 5q-13 9 -13 24
q47 109 150 179t225 69q122 1 201 -63t79 -173q0 -72 -45 -133t-174 -129q-14 -27 24 -31q125 -10 211 -93t86 -222q0 -233 -198 -406q-104 -90 -221 -133t-203 -43z" />
    <glyph glyph-name="four" unicode="4" horiz-adv-x="1024" 
d="M559 387h-489q-29 0 -29 30t37 83l657 917q23 29 47 29h35q31 0 31 -16q0 -8 -10 -23l-652 -901q-10 -25 0 -29t58 -4h317q37 0 47 9t10 44v377q0 29 19 41q47 31 85 34t44 -11q4 -14 4 -52v-395q0 -29 7 -38t34 -9h131q14 -10 14 -41t-14 -45h-111q-41 0 -51 -7t-10 -38
v-92q0 -125 13 -158t75 -41l53 -6q11 -7 9 -27t-13 -24q-111 6 -223 6t-246 -6q-10 4 -12 23t8 28l92 6q61 4 77 40q15 36 15 159v86q0 37 -9 44t-50 7z" />
    <glyph glyph-name="five" unicode="5" horiz-adv-x="1024" 
d="M881 471q0 -168 -117 -310t-283 -218t-334 -82q-16 5 -18 29t12 34q246 14 417 152t171 342q0 104 -50 179t-136 114q-156 71 -365 75q-22 0 -26 14t8 50l108 364q16 51 54 56l493 69q16 4 19 -18q-23 -74 -74 -127l-387 -55q-35 -5 -47 -15t-23 -41l-37 -122
q-12 -35 29 -37l43 -4q208 -20 367 -116q82 -50 129 -136t47 -197z" />
    <glyph glyph-name="six" unicode="6" horiz-adv-x="1024" 
d="M82 483q0 156 63 326t211 315q252 246 588 291q10 -4 13 -19t-5 -24q-94 -32 -148 -54t-146 -78t-160 -130q-233 -248 -234 -621q0 -195 71 -325t214 -131q111 0 171 88t60 228t-64 240q-65 99 -188 99q-39 0 -94 -16q-20 10 -6 33q98 61 201 61q145 0 235 -103t90 -275
t-120 -294q-120 -123 -324 -123q-204 -1 -316 145t-112 367z" />
    <glyph glyph-name="seven" unicode="7" horiz-adv-x="1024" 
d="M731 1155h-409q-94 0 -136 -17t-84 -87q-31 -12 -43 16q47 129 70 221q49 -6 217 -6h346q250 0 275 6q14 -4 14 -18q-82 -125 -193 -350l-522 -1051q-25 -4 -45 7t-24 32l579 1171q23 47 14 62q-10 14 -59 14z" />
    <glyph glyph-name="eight" unicode="8" horiz-adv-x="1024" 
d="M521 1249q-97 -1 -154 -67t-57 -161t73 -163q74 -68 195 -127q164 117 163 277q0 98 -61 170q-62 71 -159 71zM516 33q112 -1 176 67t64 181q0 205 -303 342q-186 -127 -187 -291q0 -131 70 -215t180 -84zM530 1311q154 0 251 -79t98 -220q1 -60 -15 -92t-24 -49t-28 -37
l-30 -30t-38 -30t-34 -25t-38 -25q-31 -20 -35 -24q125 -72 198 -160t73 -234t-114 -240t-283 -94t-281 83q-112 84 -111 258q0 103 74 183t202 161q-231 127 -233 322q-2 152 106 242t262 90z" />
    <glyph glyph-name="nine" unicode="9" horiz-adv-x="1024" 
d="M489 1249q-102 -1 -165 -75q-64 -74 -64 -207t64 -239t172 -105q57 0 90 8q14 -8 6 -25q-70 -59 -192 -59t-213 95t-91 264t121 287t304 118q183 1 293 -145t110 -378q0 -178 -76 -360t-225 -315q-103 -95 -237 -155t-251 -81q-12 3 -16 21t4 26q183 55 319 156
q300 222 299 725q0 159 -51 291q-27 70 -79 112t-122 41z" />
    <glyph glyph-name="colon" unicode=":" horiz-adv-x="512" 
d="M258 -29q-49 0 -83 31t-34 82t33 86t83 35t82 -35t32 -85t-32 -82t-81 -32zM258 573q-49 0 -83 31t-34 82t33 86t83 35t82 -35t32 -85t-32 -82t-81 -32z" />
    <glyph glyph-name="semicolon" unicode=";" horiz-adv-x="512" 
d="M258 573q-49 0 -83 31t-34 82t33 86t83 35t82 -35t32 -85t-32 -82t-81 -32zM131 152q1 42 27 70t80 28t104 -53t51 -158q0 -105 -74 -179t-192 -108q-14 4 -18 22t6 27q168 53 168 179q0 47 -35 74q-35 26 -64 36q-53 19 -53 62z" />
    <glyph glyph-name="less" unicode="&#x3c;" horiz-adv-x="1024" 
d="M115 467l796 379v-119l-649 -303v-4l649 -305v-117l-796 377v92z" />
    <glyph glyph-name="equal" unicode="=" horiz-adv-x="1024" 
d="M907 317v-100h-788v100h788zM907 625v-101h-788v101h788z" />
    <glyph glyph-name="greater" unicode="&#x3e;" horiz-adv-x="1024" 
d="M113 846l796 -379v-92l-796 -377v117l649 305v4l-649 303v119z" />
    <glyph glyph-name="question" unicode="?" horiz-adv-x="657" 
d="M260 -29q-49 0 -83 31t-34 82t33 86t83 35t82 -35t32 -85t-32 -82t-81 -32zM213 1323q127 0 240 -129t112 -289q-1 -76 -25 -122t-53 -62l-161 -86q-72 -37 -72 -82t20 -127q-6 -12 -20 -15t-23 5q-73 121 -73 190t26 100q27 30 84 60l101 53q113 59 113 145t-46 130
q-66 66 -237 65q-18 0 -43 26q-25 25 -25 59q-1 34 21 56t61 23z" />
    <glyph glyph-name="at" unicode="@" horiz-adv-x="1566" 
d="M883 1028q-293 0 -471 -209t-179 -504q0 -203 128 -370q67 -85 191 -139t282 -54t327 72q27 -12 17 -39q-166 -104 -416 -104t-451 153q-100 76 -159 200t-60 279q0 349 240 567t569 218q281 0 443 -157t161 -369q0 -212 -145 -356t-385 -144q-147 0 -148 45q0 20 17 63
l51 129l-4 2q-92 -96 -208 -168q-116 -71 -168 -71t-74 26q-21 26 -21 67q0 40 38 129t117 185q211 258 410 258q23 -1 45 -13t31 -32l51 105q24 8 54 0t44 -25q-203 -466 -228 -534t-14 -84t50 -15q170 6 285 119q115 112 115 312t-152 329t-383 129zM934 666
q-60 0 -141 -65q-80 -65 -146 -193t-65 -215q0 -27 24 -27q46 0 140 84t170 192q77 109 98 164q-20 60 -80 60z" />
    <glyph glyph-name="A" unicode="A" horiz-adv-x="1275" 
d="M471 608h252q45 0 52 12t-7 52l-111 334q-35 104 -47 129h-4q-12 -21 -49 -121l-129 -357q-12 -35 -6 -42t49 -7zM750 526h-310q-39 0 -53 -8t-25 -41l-71 -215q-45 -135 -45 -171t59 -40l68 -6q10 -9 10 -27t-14 -24q-141 10 -410 0q-10 6 -11 24t7 27l68 6
q86 8 122 101q10 29 47 115t134 341l209 553q41 109 34 146q53 16 107 77q25 0 31 -18q23 -76 90 -274l280 -824q45 -131 77 -170t97 -47l56 -6q10 -9 9 -27t-9 -24q-127 6 -216 6t-268 -6q-12 6 -13 24t9 27l60 6q72 6 71 37q1 29 -26 109l-90 278q-10 35 -24 43t-60 8z
" />
    <glyph glyph-name="B" unicode="B" horiz-adv-x="1239" 
d="M430 1229v-416q0 -43 14 -51t93 -6q165 6 243 64t78 198t-88 209q-88 68 -217 67q-68 0 -94 -12q-29 -8 -29 -53zM430 641v-303q0 -174 45 -227t175 -53t218 70q88 71 88 216q0 146 -93 248t-314 102q-79 0 -99 -10t-20 -43zM262 307v778q0 119 -16 156t-84 43l-66 6
q-12 10 -11 28t13 23q176 17 424 17t361 -58q156 -76 155 -256q0 -104 -53 -168t-156 -112q0 -25 39 -31q102 -18 188 -106t87 -236q0 -185 -138 -291t-407 -106l-246 6q-8 0 -235 -6q-10 4 -12 22q-1 18 8 29l37 6q80 14 96 53t16 203z" />
    <glyph glyph-name="C" unicode="C" horiz-adv-x="1425" 
d="M90 668q0 166 70 308t188 234q223 174 553 174q184 0 363 -49q41 -10 57 -8q6 -123 29 -301q-8 -10 -26 -12t-30 8q-66 299 -420 299q-250 0 -414 -160t-165 -467q0 -307 173 -485t435 -178q176 0 280 88q103 88 148 205q11 8 29 5t24 -14q-10 -77 -42 -163t-56 -117
q-29 -3 -71 -19t-139 -32t-185 -17q-305 0 -510 137q-291 202 -291 564z" />
    <glyph glyph-name="D" unicode="D" horiz-adv-x="1597" 
d="M430 1110v-756q0 -166 41 -223q59 -84 252 -84q289 0 432 172t143 464t-185 464q-69 63 -187 105t-278 42q-159 0 -197 -28q-21 -17 -21 -156zM686 -16l-375 16q-70 0 -215 -6q-10 4 -11 22t7 29l47 6q88 12 106 51q17 39 17 205v778q0 113 -17 152t-79 47l-45 6
q-12 8 -12 26t14 25q279 17 539 17q537 1 735 -296q106 -161 106 -364q0 -202 -92 -362t-270 -256t-455 -96z" />
    <glyph glyph-name="E" unicode="E" horiz-adv-x="1196" 
d="M498 668q-48 0 -58 -8t-10 -48v-288q0 -172 43 -216t244 -44t263 32q62 33 144 197q10 8 28 4t24 -18q-33 -160 -93 -285q-276 6 -548 6h-185q-96 0 -278 -6q-10 4 -12 22q-1 18 8 29l67 6q86 8 107 50q20 42 20 206v737q0 166 -18 207t-107 52l-33 4q-8 6 -7 26t12 25
q133 -6 241 -6h385q252 0 277 6q10 -31 32 -273q-6 -10 -24 -11t-27 7q-14 43 -18 57t-19 44q-31 69 -117 92q-52 14 -200 14h-147q-46 0 -54 -11t-8 -71v-409q0 -41 10 -49t58 -9h118q136 1 174 13t50 71l16 84q8 10 28 9t25 -11l-8 -207l8 -196q-6 -10 -25 -12t-28 10
l-18 80q-14 66 -64 77q-37 10 -158 11h-118z" />
    <glyph glyph-name="F" unicode="F" horiz-adv-x="1101" 
d="M910 471q-18 0 -29 8l-21 80q-16 63 -59 75t-164 13h-139q-48 0 -58 -8t-10 -47v-285q0 -166 18 -207t107 -49l70 -6q8 -7 7 -27t-11 -24q-182 6 -284 6t-245 -6q-10 4 -11 22t7 29l51 6q86 10 105 50q18 40 18 206v737q0 166 -18 207t-105 52l-33 4q-8 6 -7 26t12 25
q129 -6 237 -6h377q250 0 276 6q0 -154 7 -271q-4 -10 -22 -12t-28 6q-14 82 -44 129q-30 46 -87 62t-211 16h-124q-45 0 -54 -11q-8 -12 -8 -71v-432q0 -41 10 -48t58 -7h139q137 0 161 8t39 18q14 10 25 58l19 82q8 8 27 8t26 -8l-8 -207l8 -199q-6 -8 -24 -8z" />
    <glyph glyph-name="G" unicode="G" horiz-adv-x="1529" 
d="M1327 324v-115q0 -127 49 -146q12 -12 -2 -24q-31 0 -100 -19q-201 -53 -367 -53q-399 0 -624 228q-189 189 -189 471t185 479q229 240 649 239q128 0 246 -26t141 -23q0 -92 31 -297q-4 -12 -26 -14t-30 8q-41 158 -146 224t-274 67q-281 0 -426 -170t-145 -420
q0 -309 159 -506t455 -196q186 0 226 61q20 29 20 117v82q0 129 -19 159t-114 39l-90 11q-12 6 -11 26t11 25q90 -6 249 -6t261 6q10 -5 11 -23t-9 -28l-33 -4q-59 -6 -73 -43t-15 -129z" />
    <glyph glyph-name="H" unicode="H" horiz-adv-x="1650" 
d="M430 809q0 -47 14 -56t88 -10h586q74 -1 88 9t15 57v235q-1 166 -19 208t-106 51l-39 4q-8 6 -7 26t11 25q141 -6 247 -6t242 6q10 -4 12 -24t-8 -27l-43 -4q-86 -9 -104 -51t-18 -208v-737q0 -166 18 -206t104 -50l50 -6q8 -7 7 -27t-12 -24q-148 6 -254 6t-241 -6
q-10 4 -11 22t7 29l39 6q92 14 108 52t17 204v289q-1 46 -15 56t-88 10h-586q-74 0 -88 -10t-14 -56v-289q0 -164 20 -206t105 -50l59 -6q8 -7 8 -27t-12 -24q-166 6 -260 6l-237 -6q-10 4 -12 22q-1 18 8 29l34 6q84 14 102 53q17 39 17 203v737q0 162 -20 207t-101 52
l-53 4q-8 6 -7 26t11 25l258 -6q106 0 238 6q10 -4 11 -24t-7 -27l-39 -4q-86 -9 -104 -51t-19 -208v-235z" />
    <glyph glyph-name="I" unicode="I" horiz-adv-x="692" 
d="M262 311v729q0 170 -18 212t-107 51l-51 4q-8 6 -7 26t11 25q154 -6 256 -6t256 6q10 -4 11 -24t-7 -27l-51 -4q-88 -9 -106 -51t-19 -212v-729q0 -168 18 -209t107 -51l51 -6q8 -7 7 -27t-11 -24q-154 6 -256 6t-256 -6q-10 4 -11 22t7 29l51 6q88 10 107 51
q18 41 18 209z" />
    <glyph glyph-name="J" unicode="J" horiz-adv-x="706" 
d="M293 266v774q0 168 -25 211t-116 52l-52 4q-8 6 -7 26t11 25q178 -6 282 -6t226 6q10 -4 12 -24t-8 -27l-30 -4q-88 -11 -106 -53t-19 -210v-759q0 -283 -50 -405q-51 -122 -157 -205t-244 -83q-88 0 -88 43q0 29 22 62t56 33t78 -14q45 -14 90 -13q45 0 72 53
q53 108 53 514z" />
    <glyph glyph-name="K" unicode="K" horiz-adv-x="1382" 
d="M262 307v737q0 168 -18 209t-105 50l-51 4q-8 6 -7 26t11 25q152 -6 258 -6t238 6q10 -4 11 -24t-7 -27l-39 -4q-86 -9 -104 -51t-19 -208v-235q0 -78 27 -78t60 27t101 94l222 219q171 162 174 203q0 12 -35 20l-55 13q-10 10 -10 26q1 16 14 25q106 -6 221 -6t207 6
q10 -8 12 -26t-8 -25q-104 -9 -192 -59t-285 -236l-185 -174q-47 -48 -47 -64t39 -63q387 -444 512 -576q74 -74 164 -84l55 -6q11 -7 9 -27t-13 -24q-80 6 -209 6t-270 -6q-10 4 -13 22t5 29l47 8q49 7 49 19t-16 32t-183 209l-163 185q-123 137 -152 157q-22 15 -46 15
t-30 -20t-6 -79v-264q0 -166 17 -207t102 -49l55 -6q8 -7 7 -27t-11 -24q-152 6 -256 6t-231 -6q-10 4 -12 22q-1 18 8 29l41 6q80 12 96 51t16 205z" />
    <glyph glyph-name="L" unicode="L" horiz-adv-x="1132" 
d="M262 307v737q0 168 -19 209t-114 50l-51 4q-8 6 -7 26t11 25q172 -6 268 -6t250 6q10 -4 11 -24t-7 -27l-49 -4q-88 -7 -106 -49t-19 -210v-712q0 -102 8 -148t35 -73q47 -47 237 -47t236 26q74 43 135 203q8 8 30 3t22 -15q0 -21 -33 -135t-53 -152q-158 6 -510 6h-189
q-94 0 -266 -6q-10 4 -11 22t7 29l61 6q86 8 105 49q18 41 18 207z" />
    <glyph glyph-name="M" unicode="M" horiz-adv-x="1867" 
d="M330 329q0 -202 16 -238t76 -40l78 -6q10 -11 9 -29t-11 -22q-104 6 -218 6t-219 -6q-10 8 -11 25t7 26l45 6q70 10 95 38q47 53 90 1037q4 98 -21 131t-116 46l-33 4q-8 8 -6 26t14 25q92 -6 178 -6t154 6q-11 -98 106 -338l234 -473q102 -209 141 -281h4q49 84 158 307
l192 392q125 254 146 325q8 37 10 68q70 -6 155 -6t181 6q8 -6 9 -26t-7 -25l-43 -4q-94 -9 -120 -47t-24 -148q16 -850 24 -933t21 -92q41 -30 78 -32l66 -6q10 -9 8 -27t-12 -24q-125 6 -244 6t-246 -6q-10 8 -12 25t8 26l60 6q72 8 86 38t14 136l-6 854h-4
q-17 -28 -67 -132t-66 -134l-183 -358q-164 -319 -221 -467q-6 -8 -19 -8t-20 8q-27 82 -180 409l-184 396q-45 105 -131 294h-4q-35 -556 -35 -758z" />
    <glyph glyph-name="N" unicode="N" horiz-adv-x="1603" 
d="M1364 838v-490q0 -305 6 -358q-8 -23 -39 -23q-39 55 -262 309l-475 541q-12 14 -113 132q-100 118 -125 145h-4q-10 -31 -10 -133v-447q0 -358 37 -424q18 -33 104 -39l64 -6q8 -11 7 -27t-11 -24q-137 6 -241 6t-212 -6q-10 8 -12 25t8 26l55 6q76 10 90 41
q27 68 27 422v592q0 98 -42 142t-130 55l-35 4q-10 8 -9 26t13 25q85 -6 185 -6t141 6q41 -102 350 -451l199 -223q270 -301 338 -371h4q8 10 8 86v439q0 358 -41 424q-18 27 -127 41l-35 4q-10 8 -9 27t13 24q141 -6 245 -6t208 6q12 -8 13 -26t-9 -25l-29 -4
q-100 -16 -114 -43q-31 -66 -31 -422z" />
    <glyph glyph-name="O" unicode="O" horiz-adv-x="1628" 
d="M850 31q201 -1 340 151t139 429t-123 485q-61 102 -169 164t-266 61q-158 0 -306 -127q-76 -66 -121 -186t-45 -248q0 -363 182 -572q61 -70 157 -114t212 -43zM808 -33q-314 0 -514 203t-200 502t207 506q207 206 533 206t513 -205q187 -206 187 -505t-206 -503
t-520 -204z" />
    <glyph glyph-name="P" unicode="P" horiz-adv-x="1124" 
d="M430 1221v-914q0 -166 20 -206t115 -50l56 -6q8 -7 7 -27t-12 -24q-174 6 -278 6t-238 -6q-10 4 -11 22t7 29l43 6q88 12 106 51q17 39 17 205v756q0 137 -14 174t-82 45l-74 8q-10 8 -9 26t13 25q126 17 396 17q568 1 567 -389q0 -225 -205 -326q-129 -61 -283 -61
q-10 4 -11 21t9 20q301 55 301 344q0 151 -86 239t-243 88q-79 0 -95 -11t-16 -62z" />
    <glyph glyph-name="Q" unicode="Q" horiz-adv-x="1628" 
d="M850 31q201 -1 340 151t139 429t-123 485q-61 102 -169 164t-266 61q-158 0 -306 -127q-76 -66 -121 -186t-45 -248q0 -363 182 -572q61 -70 157 -114t212 -43zM94 662q0 310 207 516t533 206t513 -205q187 -206 187 -497q0 -248 -138 -433t-358 -251q-4 -10 17 -31
q272 -262 456 -321q88 -29 167 -29t122 18q8 -2 11 -12t-1 -18q-94 -53 -244 -53t-330 82q-180 83 -366 264q-42 43 -66 55t-109 25t-163 45q-206 75 -322 247t-116 392z" />
    <glyph glyph-name="R" unicode="R" horiz-adv-x="1320" 
d="M430 1229v-479q0 -58 8 -68t144 -10t206 53q102 80 103 254q0 133 -84 224t-244 91q-93 0 -113 -10t-20 -55zM1077 1010q0 -131 -79 -217t-177 -125q-12 -14 10 -50q139 -223 227 -343t185 -201q57 -51 141 -58q8 -4 10 -13t-8 -15q-31 -10 -90 -11q-135 -1 -226 53
t-198 206q-26 40 -98 152t-100 152t-58 55q-32 15 -96 15t-77 -6t-13 -39v-258q0 -166 17 -205t106 -51l43 -6q8 -7 7 -27t-11 -24q-137 6 -247 6t-253 -6q-10 4 -11 22t7 29l51 6q86 10 105 50q18 40 18 206v735q0 150 -14 191t-76 49l-66 8q-10 8 -10 26t13 25
q184 16 456 17q512 0 512 -348z" />
    <glyph glyph-name="S" unicode="S" horiz-adv-x="1001" 
d="M895 346q0 -170 -119 -274t-312 -104t-325 75q-18 33 -35 123q-16 90 -20 164q8 10 26 12t23 -6q90 -305 352 -305q123 1 190 69t67 159t-34 160t-135 134l-194 127q-221 145 -221 352q0 152 111 252q112 100 306 100q92 0 162 -19t101 -19q37 -98 36 -250
q-6 -10 -24 -12t-27 6q-44 164 -156 209q-52 22 -122 22q-135 0 -189 -69t-55 -158q0 -143 174 -252l164 -103q256 -157 256 -393z" />
    <glyph glyph-name="T" unicode="T" horiz-adv-x="1351" 
d="M754 1219v-912q0 -166 18 -207t105 -49l65 -6q8 -7 7 -27t-11 -24q-176 6 -266 6t-287 -6q-10 4 -11 23t11 28l74 6q86 8 106 50t21 206v916q0 47 -8 56t-54 9h-112q-197 0 -250 -48t-94 -144q-12 -8 -30 -3t-24 17q47 135 78 305q4 4 20 4t19 -4q4 -25 19 -42t61 -19
q45 -2 94 -2h830q85 0 111 9t48 48q8 4 22 2t15 -8q-16 -61 -25 -163t-6 -148q-6 -12 -25 -14t-28 9q-14 123 -51 150q-70 51 -238 51h-145q-45 0 -52 -9t-7 -60z" />
    <glyph glyph-name="U" unicode="U" horiz-adv-x="1527" 
d="M1239 602v236q0 354 -39 424q-20 37 -102 43l-51 4q-8 10 -8 26q1 16 12 23q117 -6 227 -6t221 6q12 -8 12 -24t-8 -25l-49 -4q-82 -6 -102 -50q-29 -68 -29 -417v-232q0 -336 -143 -489q-66 -72 -170 -111t-222 -39q-252 0 -382 113q-160 133 -160 483v484
q0 165 -18 207t-105 51l-51 4q-8 6 -7 25t11 24q154 -6 254 -6t252 6q10 -4 11 -24t-7 -25l-49 -4q-87 -9 -105 -51t-18 -207v-443q0 -264 96 -405t313 -141t317 146q100 148 99 398z" />
    <glyph glyph-name="V" unicode="V" horiz-adv-x="1384" 
d="M217 1352q121 0 250 6q10 -6 12 -24t-8 -27l-31 -4q-92 -12 -96 -39q14 -70 148 -406t245 -588q37 75 110 249q73 173 143 336t134 329q18 49 19 80q0 29 -92 39l-37 4q-10 10 -8 27t12 24q86 -6 198 -6t214 6q10 -6 11 -24t-7 -27l-62 -4q-66 -6 -106 -72
q-84 -139 -230 -471l-110 -252q-158 -365 -213 -535q-9 -6 -23 -6t-31 6q-28 113 -94 273l-360 889q-37 90 -70 125t-96 43l-37 4q-10 8 -9 25t13 26q90 -6 211 -6z" />
    <glyph glyph-name="W" unicode="W" horiz-adv-x="1966" 
d="M985 642q0 19 -16 58q-96 219 -226 492q-27 53 -54 81q-28 28 -77 32l-49 4q-10 12 -9 27t13 22q89 -6 231 -6t214 6q10 -4 12 -20t-8 -29l-53 -4q-59 -3 -67 -23t38 -126q45 -106 143 -320q129 267 157 358q29 91 1 102q-12 6 -39 9l-61 4q-25 37 4 49q85 -6 201 -6
t188 6q10 -4 12 -20t-8 -29l-59 -4q-38 -4 -66 -28q-28 -23 -43 -48q-14 -25 -23 -38t-36 -69q-82 -146 -130 -254t-49 -123t93 -222q94 -206 131 -292q168 381 348 840q61 170 61 186q0 43 -67 48l-60 4q-29 33 2 49q116 -6 212 -6t175 6q11 -4 13 -20t-9 -29l-38 -4
q-72 -5 -107 -61t-137 -296l-150 -346q-135 -313 -256 -629q-10 -6 -25 -6t-28 6q-43 117 -248 582q-180 -367 -256 -582q-10 -6 -24 -6t-31 6q-117 287 -337 762t-233 499t-42 46t-70 25l-49 4q-10 8 -8 25t14 24q82 -6 209 -6t235 6q12 -4 14 -22t-9 -27l-48 -4
q-68 -6 -67 -35q0 -64 461 -1039q190 392 190 411z" />
    <glyph glyph-name="X" unicode="X" horiz-adv-x="1316" 
d="M1086 0q-136 0 -246 -6q-25 25 -4 51l59 6q70 6 70 27q0 27 -45 90q-262 371 -293 412q-45 -57 -181 -259t-135 -243q0 -20 60 -27l55 -6q10 -11 9 -27t-11 -24q-110 6 -222 6t-210 -6q-14 6 -16 24q-1 18 10 27l51 6q74 8 129 55t115 127q233 311 265 357t32 60
q0 13 -25 48l-307 441q-53 77 -90 109t-88 44l-66 15q-8 8 -6 27t10 24q145 -6 262 -6t207 6q10 -4 12 -22t-8 -29l-57 -4q-62 -4 -62 -27t62 -113q229 -336 262 -375q90 113 274 418q29 46 29 66t-67 28l-54 7q-10 10 -9 27t13 24q109 -6 213 -6t201 6q10 -8 12 -26t-8 -25
l-49 -4q-88 -8 -219 -175q-80 -102 -266 -362q-20 -31 -20 -44t26 -48l346 -488q90 -125 186 -135l72 -6q10 -11 9 -27t-11 -24q-140 6 -276 6z" />
    <glyph glyph-name="Y" unicode="Y" horiz-adv-x="1175" 
d="M688 418v-107q0 -166 20 -210t103 -50l78 -6q8 -11 7 -29t-11 -22q-189 6 -287 6t-260 -6q-10 4 -11 22t7 29l63 6q86 8 105 49q18 41 18 211v105q0 86 -10 127t-55 127l-242 471q-49 94 -80 121t-82 34l-57 11q-10 10 -8 27t12 24q98 -6 240 -6t217 6q12 -4 14 -24
t-8 -27l-27 -4q-86 -12 -86 -37q0 -31 64 -158q197 -391 231 -455q117 199 221 397t105 220q0 23 -86 33l-37 4q-10 10 -9 27t13 24q111 -6 197 -6t190 6q12 -8 13 -26t-9 -25l-57 -11q-64 -13 -107 -65q-18 -23 -29 -37t-41 -63t-56 -93q-26 -45 -38 -65l-129 -223
q-68 -117 -82 -166t-14 -166z" />
    <glyph glyph-name="Z" unicode="Z" horiz-adv-x="1312" 
d="M870 1288h-305q-244 0 -305 -67q-51 -55 -90 -140q-14 -6 -30 -2t-21 17q47 135 84 307q16 12 35 0q4 -35 38 -43t164 -8h541q203 0 236 6q12 -2 12 -19q-78 -68 -336 -438l-338 -487q-203 -295 -203 -318q0 -24 56 -28t326 -4q272 0 355 46t146 189q41 14 51 -14
q-41 -211 -92 -291q-170 6 -373 6h-526q-88 0 -229 -6q-10 6 -11 24q33 31 105 120t119 159l442 629q180 258 202 296t21 50q0 16 -74 16z" />
    <glyph glyph-name="bracketleft" unicode="[" horiz-adv-x="655" 
d="M240 -307v1712h141l225 -6q27 -16 2 -45l-182 -21q-33 -2 -51 -20q-27 -27 -27 -320v-889q0 -293 27 -319q18 -18 51 -21l182 -20q25 -29 -2 -45l-225 -6h-141z" />
    <glyph glyph-name="backslash" unicode="\" horiz-adv-x="632" 
d="M180 1405l391 -1438h-118l-392 1438h119z" />
    <glyph glyph-name="bracketright" unicode="]" horiz-adv-x="655" 
d="M416 1405v-1712h-142l-225 6q-27 16 -2 45l182 20q33 2 56 25t22 315v889q0 293 -22 315t-56 25l-182 21q-25 29 2 45l225 6h142z" />
    <glyph glyph-name="asciicircum" unicode="^" horiz-adv-x="1024" 
d="M922 500h-127l-283 637l-283 -637h-129l363 782h98z" />
    <glyph glyph-name="underscore" unicode="_" horiz-adv-x="1024" 
d="M1024 -154v-102h-1024v102h1024z" />
    <glyph glyph-name="grave" unicode="`" 
d="M129 1275q0 21 39 54q42 29 68 29t49 -47l161 -330q0 -12 -15 -19t-28 -6l-239 261q-35 37 -35 58z" />
    <glyph glyph-name="a" unicode="a" horiz-adv-x="827" 
d="M229 194q0 -47 31 -89t98 -42q29 -1 69 17q39 18 59 38t24 93l4 121q0 27 -20 26q-22 0 -102 -26t-122 -59q-42 -32 -41 -79zM457 836q221 0 213 -240l-13 -356q-8 -178 95 -179q28 -1 52 13t25 14q14 0 15 -27q0 -5 -20 -27t-64 -42q-43 -20 -88 -21q-84 0 -133 64
q-18 29 -33 28q-6 1 -90 -45t-137 -47q-91 0 -149 52t-58 126t37 113t133 74l243 88q35 12 35 59l2 95q4 178 -149 178q-49 0 -89 -24t-43 -74t-20 -64q-49 -39 -117 -39q-29 0 -28 29q0 78 133 165t248 87z" />
    <glyph glyph-name="b" unicode="b" horiz-adv-x="1024" 
d="M305 598v-319q0 -115 53 -181t154 -65q135 0 202 97q66 97 66 252t-82 260t-229 106q-88 0 -139 -33q-25 -17 -25 -117zM154 178v977q0 92 -10 118t-54 52l-20 12q-8 5 -8 21t10 21q12 5 86 30t135 55q14 0 20 -12q-8 -143 -8 -254v-387q0 -43 21 -43q117 68 235 68
q172 0 282 -115t109 -287q0 -205 -132 -334t-339 -129q-86 0 -170 27t-97 27t-36 -31q-2 -2 -12 -2t-16 12q4 57 4 174z" />
    <glyph glyph-name="c" unicode="c" horiz-adv-x="819" 
d="M569 836q104 0 183 -35q30 -27 30 -69t-13 -66t-31 -23q-18 0 -29 14q-88 109 -204 109t-200 -88t-84 -232t88 -252q89 -108 237 -108t232 123q12 4 24 -5t13 -24q-49 -104 -145 -156t-197 -53q-175 0 -287 110t-112 296q0 187 128 323t367 136z" />
    <glyph glyph-name="d" unicode="d" horiz-adv-x="1042" 
d="M717 203v403q0 47 -23 80q-61 86 -183 86t-197 -99q-74 -99 -74 -245t81 -252t224 -106q100 0 157 57q15 15 15 76zM868 1198v-899q0 -137 10 -187t50 -51q27 0 88 21q12 -4 12 -31t-14 -35q-162 -23 -271 -65q-23 0 -22 16v35q0 55 -4 64h-8q-137 -94 -258 -95
q-168 0 -274 114q-105 114 -105 280q0 211 141 341t354 130q86 0 138 -19q12 0 12 29v309q0 92 -9 118t-55 52l-20 12q-8 5 -8 21t8 20q147 47 221 86q14 0 20 -12q-6 -184 -6 -254z" />
    <glyph glyph-name="e" unicode="e" horiz-adv-x="811" 
d="M248 586h145q186 0 213 20q12 8 12 49t-37 80q-38 39 -121 39t-154 -61t-73 -117q1 -10 15 -10zM645 524h-379q-39 0 -47 -8t-8 -47q0 -163 91 -273t249 -110q109 0 188 100q33 10 37 -24q-47 -96 -138 -144t-183 -47q-195 0 -297 135q-86 112 -86 286t116 308t295 136
q127 0 209 -74t82 -170q0 -36 -8 -52t-121 -16z" />
    <glyph glyph-name="f" unicode="f" horiz-adv-x="593" 
d="M381 721q-25 0 -30 -8t-5 -51v-433q0 -115 12 -145t66 -33l74 -6q10 -7 8 -27t-12 -24q-136 6 -232 6t-188 -6q-10 4 -13 23q-2 19 9 28l47 6q55 8 66 36t12 142v433q1 43 -5 51t-36 8h-72q-23 14 -6 39l88 43q31 16 31 41q0 213 63 360q47 106 139 184t230 76
q84 0 142 -34t58 -89q1 -31 -23 -53t-54 -20q-30 0 -50 24q-78 90 -170 90t-139 -112q-45 -115 -45 -346v-60q0 -41 4 -49t31 -8h233q16 -16 10 -48t-24 -38h-219z" />
    <glyph glyph-name="g" unicode="g" horiz-adv-x="913" 
d="M446 307q78 1 122 59t44 162t-46 176t-129 72t-131 -63t-48 -167t55 -172q55 -67 133 -67zM555 -66h-70q-141 0 -176 -22q-98 -60 -98 -160t71 -158q72 -58 204 -57q132 0 217 65t85 154q0 178 -233 178zM414 -551q-188 0 -273 73q-84 73 -84 165q-1 49 21 72t74 73
t67 68q37 37 17 49q-61 16 -106 62q-44 46 -44 100q0 11 41 39t98 90q20 25 21 39q-154 82 -154 247q0 131 98 220q98 90 218 90t206 -37t134 -37h165q19 -8 15 -45t-27 -39h-147q4 -34 4 -98q0 -122 -74 -222q-38 -50 -108 -80t-162 -30q-16 0 -90 6q-90 -53 -91 -113
q0 -37 37 -61t107 -25l244 6q287 0 286 -225q-1 -164 -153 -276t-340 -111z" />
    <glyph glyph-name="h" unicode="h" horiz-adv-x="1054" 
d="M180 229v926q0 92 -9 118t-54 52l-21 12q-8 5 -8 21t8 20q147 47 221 86q14 0 21 -12q-6 -184 -6 -254v-430q0 -33 8 -39q137 107 275 107q137 0 201 -74t65 -191v-342q0 -115 12 -143t65 -35l56 -6q10 -7 8 -27t-12 -24q-110 6 -212 6t-184 -6q-10 4 -12 23t8 28l41 6
q55 8 67 36q11 28 11 142v293q0 102 -49 160t-144 59q-95 0 -161 -55q-29 -25 -36 -42t-7 -71v-344q0 -113 12 -141t66 -37l43 -6q10 -7 8 -27t-12 -24q-91 6 -193 6t-201 -6q-10 4 -12 23t8 28l51 6q54 7 66 35t12 143z" />
    <glyph glyph-name="i" unicode="i" horiz-adv-x="526" 
d="M267 1278q46 0 75 -31t29 -80t-31 -75t-78 -27q-47 0 -76 30q-28 29 -28 75t31 77q32 31 78 31zM201 229v359q0 64 -7 82t-49 45l-18 12q-6 6 -6 19t8 18q123 43 211 100q16 0 20 -12q-8 -143 -8 -254v-369q0 -113 12 -141t66 -37l43 -6q10 -7 8 -27t-12 -24
q-91 6 -195 6t-190 -6q-10 4 -12 23t8 28l43 6q55 7 67 35t11 143z" />
    <glyph glyph-name="j" unicode="j" horiz-adv-x="518" 
d="M271 1278q46 0 75 -31t29 -79t-32 -76t-78 -27q-46 0 -75 30q-28 31 -28 77t32 76t77 30zM205 72v516q0 64 -7 82t-48 45l-19 12q-6 6 -6 19t8 18q123 43 211 100q16 0 21 -12q-8 -143 -9 -254v-496q0 -215 -43 -319q-78 -188 -311 -334q-18 2 -27 16q-8 14 -2 31
q72 35 121 92q111 130 111 484z" />
    <glyph glyph-name="k" unicode="k" horiz-adv-x="987" 
d="M180 229v926q0 92 -9 118t-54 52l-21 12q-8 5 -8 21t8 20q147 47 221 86q14 0 21 -12q-6 -184 -6 -254v-702q0 -20 6 -26t31 -5q61 0 139 80l84 90q72 78 72 93t-46 22l-49 6q-14 4 -14 26t14 25h47q172 0 326 16q10 -4 12 -23t-8 -28l-65 -12q-53 -10 -129 -72
q-27 -20 -187 -172q-31 -29 -14 -49q45 -59 163 -193t162 -174q42 -39 111 -51l29 -4q10 -7 9 -27t-13 -24q-90 6 -205 6t-203 -6q-12 6 -13 25t9 26l37 6q51 5 51 21t-35 57l-219 254q-26 29 -58 29t-38 -10t-6 -60v-113q0 -113 12 -141t66 -37l49 -6q10 -7 8 -27t-12 -24
q-103 6 -203 6t-193 -6q-10 4 -12 23t10 28l45 6q54 7 66 35t12 143z" />
    <glyph glyph-name="l" unicode="l" horiz-adv-x="505" 
d="M332 1198v-969q0 -113 12 -141t66 -37l49 -6q10 -7 8 -27t-12 -24q-103 6 -203 6t-193 -6q-10 4 -12 23t8 28l47 6q55 8 67 36q11 28 11 142v926q0 92 -9 118t-54 52l-21 12q-8 5 -8 21t8 20q147 47 221 86q14 0 21 -12q-6 -184 -6 -254z" />
    <glyph glyph-name="m" unicode="m" horiz-adv-x="1611" 
d="M1286 229v297q0 211 -190 211q-115 0 -170 -71q-31 -39 -31 -123v-314q0 -113 12 -141t66 -37l43 -6q10 -7 8 -27t-12 -24q-92 6 -192 6t-187 -6q-10 4 -12 23t8 28l37 6q55 8 66 36t11 142v297q0 211 -188 211q-111 0 -172 -73q-31 -37 -31 -117v-318q0 -113 12 -141
t66 -37l37 -6q10 -7 8 -27t-12 -24q-83 6 -187 6t-198 -6q-10 4 -12 23t8 28l49 6q55 8 66 36t12 142v359q0 64 -7 82t-49 45l-18 12q-6 6 -6 19t8 18q41 14 109 47t96 53q16 0 22 -14q-4 -47 -4 -96q0 -23 23 -23q147 104 272 105q76 0 124 -28t93 -93q20 -4 51 16
q150 105 274 105t186 -72t63 -182v-353q0 -113 12 -141t66 -37l49 -6q10 -7 8 -27t-12 -24q-103 6 -201 6t-184 -6q-10 4 -13 23q-2 19 8 28l37 6q54 7 66 35t12 143z" />
    <glyph glyph-name="n" unicode="n" horiz-adv-x="1075" 
d="M201 229v359q0 64 -7 82t-49 45l-18 12q-6 6 -6 19t8 18q41 14 109 47t96 53q16 0 22 -14q-4 -47 -4 -96q0 -23 23 -23q168 105 288 105t179 -72t59 -182v-353q0 -113 12 -141t66 -37l45 -6q10 -7 8 -27t-12 -24q-92 6 -196 6t-187 -6q-10 4 -12 23t8 28l39 6q55 8 66 36
t12 142v306q0 203 -193 202q-121 0 -174 -71q-31 -41 -31 -123v-314q0 -113 12 -141t66 -37l37 -6q10 -7 8 -27t-12 -24q-81 6 -187 6t-192 -6q-10 4 -12 23t8 28l43 6q55 7 67 35t11 143z" />
    <glyph glyph-name="o" unicode="o" horiz-adv-x="995" 
d="M510 33q126 -1 182 103t56 250t-66 268q-66 120 -199 120q-104 0 -170 -94q-65 -94 -65 -254t68 -276t194 -117zM504 836q180 0 300 -119t120 -309t-121 -313q-121 -124 -306 -124t-306 117q-119 117 -119 306q0 190 126 316t306 126z" />
    <glyph glyph-name="p" unicode="p" horiz-adv-x="1038" 
d="M326 559v-352q0 -47 13 -72t48 -51q59 -45 148 -45q123 0 195 102t71 251q0 149 -73 247t-199 98t-179 -57q-24 -31 -24 -121zM174 -293v881q0 64 -7 82t-48 45l-19 12q-6 6 -6 19t8 18q123 51 203 110q18 0 25 -14q-8 -74 -8 -98t18 -23q4 3 27 15q146 79 260 82
q151 0 245 -108t95 -267q1 -213 -141 -351t-359 -139q-76 0 -113 9q-29 -6 -28 -58v-215q0 -111 11 -139t66 -35l80 -10q11 -7 9 -27t-13 -24q-147 6 -241 6t-181 -6q-10 4 -12 23t8 28l43 6q54 7 66 35t12 143z" />
    <glyph glyph-name="q" unicode="q" horiz-adv-x="1017" 
d="M715 168v305q0 156 -27 205q-53 94 -173 94t-196 -94q-75 -94 -75 -252t90 -266t233 -107q106 0 133 33q15 16 15 82zM866 569v-862q0 -111 12 -139t66 -35l60 -10q10 -7 8 -27t-13 -24q-117 6 -211 6t-210 -6q-10 4 -13 23q-2 19 8 28l64 6q55 6 66 35t12 143v266
q0 49 -19 50q-88 -51 -203 -51t-199 39q-84 41 -129 103q-95 129 -93 259q0 215 142 339t349 124q99 0 161 -18t80 -17q18 0 56 35q14 0 23 -19q-17 -66 -17 -248z" />
    <glyph glyph-name="r" unicode="r" horiz-adv-x="679" 
d="M201 229v359q0 64 -7 82t-49 45l-18 12q-6 6 -6 19t8 18q94 33 207 100q16 -4 16 -14v-119q0 -14 6 -18q147 123 226 123q40 0 66 -23t26 -63t-29 -66q-29 -25 -54 -25t-62 24t-79 24t-71 -39t-29 -160v-279q0 -115 12 -145t70 -33l74 -6q10 -7 8 -27t-12 -24
q-143 6 -240 6t-176 -6q-10 4 -12 23t8 28l39 6q55 7 67 35t11 143z" />
    <glyph glyph-name="s" unicode="s" horiz-adv-x="661" 
d="M390 836q130 0 171 -37q33 -80 33 -166q-6 -10 -24 -12t-25 6q-57 150 -180 149q-59 0 -95 -35t-37 -78q1 -43 13 -67q22 -43 88 -81q152 -85 209 -148t57 -168t-86 -166t-218 -61t-210 61q-33 78 -25 207q7 10 23 10t25 -8q66 -211 217 -211q59 0 98 34t39 87t-27 92
t-54 59q-28 20 -102 62q-74 43 -126 101t-52 152t79 156t209 62z" />
    <glyph glyph-name="t" unicode="t" horiz-adv-x="628" 
d="M369 721q-25 0 -31 -8t-6 -41v-383q0 -109 28 -168t121 -60q42 -1 73 19q30 20 38 20t14 -12t2 -22q-80 -94 -209 -94t-174 58t-45 163v469q0 41 -6 50t-37 9h-57q-8 6 -10 20t4 23q92 30 135 68t82 116q6 4 21 2t22 -12v-92q0 -27 5 -33t32 -6h227q18 -14 17 -45
t-15 -41h-231z" />
    <glyph glyph-name="u" unicode="u" horiz-adv-x="1048" 
d="M326 643v-342q0 -117 41 -176t142 -59t173 61q41 37 41 119v336q0 116 -27 137q-12 10 -49 24l-26 11q-10 6 -11 22q0 16 13 23q168 4 239 37q16 -4 19 -15q-6 -57 -7 -178v-344q0 -131 12 -177t48 -46q37 0 84 10q10 -8 10 -31t-12 -28q-209 -43 -268 -76q-18 0 -25 14
v84q0 29 -18 29q-168 -106 -291 -106q-124 0 -182 62q-58 64 -58 193v342q0 102 -8 129t-53 45l-25 11q-10 8 -8 24t12 21q125 2 219 37q18 -2 21 -15q-6 -53 -6 -178z" />
    <glyph glyph-name="v" unicode="v" horiz-adv-x="884" 
d="M175 807q89 0 194 6q10 -7 11 -25t-9 -26l-25 -4q-47 -8 -54 -22q-8 -14 30 -126t99 -248t66 -143q12 10 53 117t90 230q50 124 50 159q0 25 -37 31l-47 6q-10 10 -8 28t12 23q96 -6 154 -6t143 6q10 -7 12 -25t-8 -26l-31 -4q-63 -9 -103 -87q-13 -26 -27 -53t-26 -52
q-13 -25 -84 -190q-72 -165 -86 -202t-38 -97t-41 -102q-7 -8 -23 -8t-24 8q-21 72 -78 213l-172 416q-13 38 -19 49q-6 13 -14 29t-13 22t-14 19q-10 12 -18 16q-8 3 -19 9t-26 8l-41 6q-10 12 -8 30t14 21q76 -6 165 -6z" />
    <glyph glyph-name="w" unicode="w" horiz-adv-x="1351" 
d="M190 807q92 0 175 6q12 -6 13 -23t-9 -26l-47 -8q-45 -6 -46 -29q0 -27 33 -106l127 -314q15 -38 26 -62t11 -26q8 6 47 98l101 248q33 82 18 119q-23 55 -94 72l-33 8q-10 10 -8 28t14 21q78 -6 169 -6t196 6q12 -4 14 -22t-8 -27l-43 -8q-58 -12 -66 -26t4 -44
q184 -456 191 -465q29 29 168 420q20 59 20 88q0 20 -37 27l-51 8q-12 8 -10 26t12 23q90 -6 159 -6t136 6q12 -6 14 -23t-8 -26l-41 -8q-35 -8 -55 -33t-80 -149t-143 -344q-84 -220 -94 -255q-9 -8 -25 -8t-25 8q-43 129 -84 226l-98 235q-41 104 -47 105q-6 0 -45 -101
l-106 -256q-55 -131 -82 -209q-9 -8 -25 -8t-25 8q-10 35 -61 170l-188 463q-35 82 -59 110t-64 38l-33 8q-8 8 -7 26t13 23q94 -6 186 -6z" />
    <glyph glyph-name="x" unicode="x" horiz-adv-x="884" 
d="M203 807q55 0 176 6q10 -7 11 -25t-9 -26l-31 -6q-41 -8 -43 -22t25 -50l98 -143q16 -25 27 -35q8 6 118 174q25 41 22 53t-38 23l-24 6q-9 8 -7 28t15 23q71 -6 155 -6t144 6q12 -7 13 -25t-9 -26l-31 -6q-80 -16 -102 -35q-51 -41 -193 -234q-18 -25 -18 -37t20 -38
l191 -269q37 -51 65 -73t70 -23l33 -2q10 -7 8 -27t-12 -24q-115 6 -207 6t-191 -6q-12 4 -14 23t8 28l59 6q81 8 35 62l-106 153q-35 51 -45 60q-14 -14 -37 -50l-86 -135q-33 -49 -32 -66t38 -24l35 -6q10 -7 8 -27t-12 -24q-76 6 -149 6t-152 -6q-12 6 -14 25
q-1 19 10 26l47 8q53 8 102 62q25 25 94 121q70 96 91 122t3 50l-184 260q-51 76 -123 88l-32 6q-11 8 -9 28t13 23q121 -6 176 -6z" />
    <glyph glyph-name="y" unicode="y" horiz-adv-x="897" 
d="M139 -510q-43 0 -67 25t-23 63q0 38 24 61q24 22 58 21h39q45 0 68 37q136 214 138 320q0 38 -34 137l-160 438q-23 63 -31 85q-9 21 -32 45t-58 30l-51 10q-10 8 -8 28t14 23q98 -6 186 -6t187 6q12 -4 13 -23t-9 -28l-51 -10q-45 -10 -45 -27q0 -25 59 -193l66 -188
q53 -143 59 -145q12 8 76 151l70 162q71 170 71 201t-49 39l-63 10q-10 8 -9 28t13 23q98 -6 174 -6t162 6q12 -7 13 -25t-9 -26l-35 -6q-49 -8 -84 -54t-90 -163l-115 -236q-156 -317 -336 -717q-43 -96 -131 -96z" />
    <glyph glyph-name="z" unicode="z" horiz-adv-x="772" 
d="M463 0h-184q-178 0 -216 -6q-12 6 -12 20q74 90 197 301l217 369q23 43 17 52t-36 9h-141q-102 1 -140 -29t-75 -120q-8 -10 -25 -7t-22 15q4 43 26 124t42 116q12 8 24 0q4 -25 30 -31t116 -6h290q94 0 125 6q12 -6 11 -20q-63 -88 -152 -234l-248 -416q-33 -55 -27 -68
t66 -14h70q184 0 241 62q25 29 66 119q9 6 25 3t20 -16q-31 -170 -76 -235q-102 6 -229 6z" />
    <glyph glyph-name="braceleft" unicode="{" horiz-adv-x="655" 
d="M403 1189q-1 -71 19 -203t20 -218q0 -176 -153 -215v-8q154 -39 153 -215q0 -55 -19 -220q-19 -164 -19 -218t34 -106q35 -52 137 -69q9 -6 9 -19t-9 -22q-291 0 -290 258q0 72 15 208t15 192q0 55 -4 78q-4 22 -20 50q-32 55 -154 64q-18 23 0 45q122 8 154 65
q24 42 24 105l-30 422q0 258 290 258q20 -20 0 -41q-102 -16 -137 -68t-35 -123z" />
    <glyph glyph-name="bar" unicode="|" horiz-adv-x="489" 
d="M305 1536v-2048h-121v2048h121z" />
    <glyph glyph-name="braceright" unicode="}" horiz-adv-x="655" 
d="M340 348q0 -70 15 -206t16 -208q0 -258 -291 -258q-8 8 -8 22t8 19q102 17 137 69t35 106t-20 219q-20 166 -19 219q0 176 154 215v8q-154 39 -154 215q0 86 19 218q20 132 20 203t-35 123t-137 68q-20 20 0 41q291 0 291 -258l-31 -422q0 -65 20 -99q37 -61 158 -71
q18 -23 0 -45q-121 -8 -150 -58q-28 -50 -28 -120z" />
    <glyph glyph-name="asciitilde" unicode="~" horiz-adv-x="1024" 
d="M659 369h-253q-76 0 -109 -26t-74 -107q-20 -8 -41 -2q-20 7 -26 30q47 115 91 161t118 46h253q76 0 109 26t74 107q21 8 41 1t26 -30q-51 -129 -95 -167t-114 -39z" />
    <glyph glyph-name="uni00A0" unicode="&#xa0;" horiz-adv-x="512" 
 />
    <glyph glyph-name="exclamdown" unicode="&#xa1;" horiz-adv-x="450" 
d="M227 573q-49 0 -83 31t-33 82q0 51 32 86q33 35 83 35t82 -35t32 -85t-32 -82t-81 -32zM225 -545q-53 0 -77 11q-24 12 -24 46t15 185l60 661q10 10 27 10t26 -10l59 -661q15 -151 15 -185t-24 -46t-77 -11z" />
    <glyph glyph-name="cent" unicode="&#xa2;" horiz-adv-x="1024" 
d="M274 690q0 -109 56 -207t168 -143l80 670q-132 2 -218 -85t-86 -235zM133 638q0 184 128 304t325 135l20 176q35 18 68 0l-21 -172q63 0 164 -22q45 -39 45 -105q0 -28 -8 -50t-18 -22t-27 19q-66 78 -166 103l-82 -682q33 -8 82 -9q129 0 236 115q14 2 24 -6t8 -19
q-115 -186 -362 -186l-25 -209q-35 -20 -67 0l26 215q-154 19 -252 125t-98 290z" />
    <glyph glyph-name="sterling" unicode="&#xa3;" horiz-adv-x="1024" 
d="M236 682q20 0 25 3t3 27t-2 109q0 213 123 351t313 139q74 0 115 -31q23 -20 23 -48t-22 -56t-35 -29q-13 0 -34 14q-167 131 -274 -12q-57 -76 -57 -211q0 -61 8 -153q8 -91 14 -97t33 -6h301q14 -10 14 -34t-14 -32h-299q-27 0 -35 -5t-8 -23q0 -258 -195 -424l3 -4
q76 10 142 1t196 -65t194 -55q102 0 80 147q-6 36 8 54t43 18t51 -28t21 -64q-1 -82 -97 -156t-225 -73q-76 -1 -219 77t-214 78t-71 -67q0 -20 -28 -38q-29 -17 -49 -18q-37 0 -37 45t98 125q141 121 141 447q0 18 -5 23t-27 5h-168q-12 10 -13 33q1 23 13 33h166z" />
    <glyph glyph-name="currency" unicode="&#xa4;" horiz-adv-x="1024" 
d="M514 1104q143 0 256 -82l84 104q37 -10 67 -39t33 -59l-92 -92q94 -114 94 -270t-94 -271l92 -92q-4 -31 -34 -59t-66 -39l-84 104q-113 -82 -256 -82t-256 82l-84 -104q-36 10 -66 39t-34 59l92 92q-94 115 -94 271t94 270l-92 92q4 32 34 60t66 38l84 -104
q113 82 256 82zM513 1010q-130 0 -227 -102q-98 -102 -98 -244t98 -242t227 -100q130 0 228 100q99 100 99 242t-98 244t-229 102z" />
    <glyph glyph-name="yen" unicode="&#xa5;" horiz-adv-x="1024" 
d="M610 428v-176q0 -125 14 -161t74 -42l76 -8q10 -7 8 -25t-12 -22q-111 6 -234 6t-233 -6q-10 4 -12 21t8 26l76 8q61 8 75 43q13 35 13 160v176h-311q-10 10 -11 33q0 23 11 33h307v165h-307q-10 8 -11 33q0 25 11 33h278l-209 354q-53 90 -80 119t-84 41l-43 10
q-8 9 -7 23t13 20q76 -6 208 -6t208 6q10 -4 11 -19t-7 -24l-78 -14q-41 -8 -40 -31q0 -14 71 -145l105 -187q63 -115 67 -114q20 0 64 80l78 143q106 201 106 217q0 29 -47 37l-78 14q-10 7 -8 23t14 20q92 -6 180 -6t166 6q10 -6 12 -20t-8 -23l-49 -10q-41 -8 -75 -52
t-97 -149l-182 -313h279q10 -8 10 -33t-10 -33h-306v-165h306q10 -8 10 -32t-10 -34h-310z" />
    <glyph glyph-name="brokenbar" unicode="&#xa6;" horiz-adv-x="489" 
d="M305 358v-716h-121v716h121zM305 1382v-716h-121v716h121z" />
    <glyph glyph-name="section" unicode="&#xa7;" horiz-adv-x="1036" 
d="M203 925q0 -142 115 -303q57 -77 180 -201t180 -218t57 -213q99 88 99 229t-60 245t-208 246q-148 140 -202 231t-55 216q-106 -90 -106 -232zM526 1300q-136 0 -135 -132q-1 -64 59 -140t212 -215t211 -251q60 -112 61 -245q0 -203 -163 -387t-392 -184q-72 0 -118 29
t-46 65t19 60q18 22 50 22t54 -18q86 -72 174 -72q51 0 96 35t45 103t-81 165q-24 29 -41 50t-62 67l-100 100q-133 133 -200 242t-67 254q0 190 166 363t379 173q78 0 118 -30t40 -58q1 -28 -19 -50t-52 -22t-54 17q-88 59 -154 59z" />
    <glyph glyph-name="dieresis" unicode="&#xa8;" 
d="M549 1049q-43 -1 -73 27t-31 73t29 76t74 31t72 -30t28 -73t-28 -74q-28 -30 -71 -30zM293 1153q0 -43 -29 -73t-73 -31q-43 1 -71 27t-30 72t27 77t73 31t73 -30q30 -30 30 -73z" />
    <glyph glyph-name="copyright" unicode="&#xa9;" horiz-adv-x="1617" 
d="M209 677q0 -265 173 -447t427 -183q254 0 427 182q173 181 173 447t-173 447t-427 181t-427 -180q-173 -182 -173 -447zM809 -33q-305 0 -511 206t-206 503t206 503q206 205 511 205t511 -206t206 -502q0 -297 -206 -503t-511 -206zM866 1028q-139 0 -216 -97t-77 -253
t84 -254t222 -98q166 0 251 194q25 20 41 -6q-4 -41 -20 -103t-35 -94q-150 -47 -250 -47q-214 0 -330 119t-116 292t131 288t328 114q93 0 166 -16t81 -16l25 -191q-7 -10 -21 -12t-22 6q-55 174 -242 174z" />
    <glyph glyph-name="ordfeminine" unicode="&#xaa;" horiz-adv-x="679" 
d="M389 780q-11 0 -35 -8t-47 -14t-50 -23q-27 -16 -33 -23t-13 -20q-8 -13 -8 -42q1 -30 23 -58t74 -29q52 0 85 33q16 20 16 51l5 107q0 26 -17 26zM412 877v24q0 68 -22 106q-22 37 -94 37t-85 -63q-8 -43 -20 -53q-11 -10 -45 -22t-46 -13q-29 0 -28 27q0 47 61 94
q115 92 223 92t147 -46q38 -46 34 -130l-11 -250q-4 -115 70 -115q29 0 59 21q11 0 17 -10t0 -19q-63 -66 -148 -65q-52 0 -82 29t-42 29t-33 -11q-86 -47 -154 -47t-107 40q-38 40 -38 111q0 70 79 105q194 70 220 77q45 17 45 52z" />
    <glyph glyph-name="guillemotleft" unicode="&#xab;" horiz-adv-x="774" 
d="M682 733l-143 -287q-10 -25 0 -49l143 -291q-8 -20 -35 -26q-209 268 -240 305t-4 68q57 68 244 307q27 -4 35 -27zM385 733l-143 -287q-10 -25 0 -49l143 -291q-8 -20 -35 -26q-209 268 -240 305t-4 68q57 68 244 307q27 -4 35 -27z" />
    <glyph glyph-name="logicalnot" unicode="&#xac;" horiz-adv-x="1024" 
d="M836 102v422h-768v101h888v-523h-120z" />
    <glyph glyph-name="uni00AD" unicode="&#xad;" horiz-adv-x="655" 
d="M590 448q0 -38 -17 -59l-477 -45q-30 25 -30 61t16 56l477 45q31 -20 31 -58z" />
    <glyph glyph-name="registered" unicode="&#xae;" horiz-adv-x="655" 
d="M328 1341q-84 0 -144 -62q-60 -61 -59 -151q0 -90 59 -153q60 -63 144 -63t143 62q59 64 59 153t-59 151t-143 63zM328 1386q110 0 188 -76t78 -184t-78 -184t-188 -76t-189 76q-78 76 -78 184t78 184t189 76zM299 1208v-61q0 -10 4 -12t21 -2q41 0 41 46t-39 46
q-27 -1 -27 -17zM242 1069v117q0 39 -23 41h-8q-10 16 2 22q86 4 115 4q102 0 102 -69q0 -39 -37 -58q-6 -2 16 -49t54 -59q4 0 4 -6t-4 -8q-10 -2 -29 -3q-49 0 -76 43q-2 4 -28 52q-6 12 -18 12t-13 -10v-29q0 -25 4 -33t25 -10l6 -2q2 -2 2 -10t-2 -10l-62 2l-59 -2
q-4 2 -5 10t3 10q24 6 28 13q3 7 3 32z" />
    <glyph glyph-name="macron" unicode="&#xaf;" 
d="M594 1130q0 -37 -14 -57h-418q-16 20 -17 57q0 37 17 60h418q14 -23 14 -60z" />
    <glyph glyph-name="degree" unicode="&#xb0;" horiz-adv-x="618" 
d="M309 1247q-61 0 -102 -48t-41 -126t41 -126t102 -48t103 48q41 48 41 126t-41 126q-42 48 -103 48zM309 1311q104 0 176 -67q72 -66 72 -174t-71 -171t-177 -63t-177 63t-71 171t72 174q72 67 176 67z" />
    <glyph glyph-name="plusminus" unicode="&#xb1;" horiz-adv-x="1024" 
d="M573 172h-120v348h-334v101h334v333h120v-333h334v-101h-334v-348zM907 100v-100h-788v100h788z" />
    <glyph glyph-name="twosuperior" unicode="&#xb2;" 
d="M303 743h146q79 -1 121 13t73 61q27 10 39 -14q-10 -20 -22 -51q-38 -95 -58 -111q-102 4 -231 4h-148q-92 0 -153 -4q-16 16 -7 33q88 55 213 180q188 188 189 340q0 80 -42 126t-112 46q-109 0 -184 -129q-12 -8 -26 -1q-13 7 -13 19q84 195 285 195q111 0 177 -58
t64 -153q0 -127 -155 -283l-115 -114q-70 -70 -70 -84t29 -15z" />
    <glyph glyph-name="threesuperior" unicode="&#xb3;" 
d="M520 874q0 76 -42 130t-127 53q-85 0 -148 -60q-37 18 -27 56q162 67 221 107t59 102t-31 90q-32 29 -77 28q-100 0 -174 -118q-27 -2 -35 22q39 78 109 122t156 44t140 -43q56 -43 56 -96t-33 -92t-116 -78q-13 -21 16 -21q82 0 141 -53t60 -141q0 -147 -144 -254
t-292 -107q-146 0 -146 80q0 29 19 47t51 18t60 -44q28 -46 71 -45q73 0 153 70t80 183z" />
    <glyph glyph-name="acute" unicode="&#xb4;" 
d="M500 1360q24 0 60 -30t36 -53t-33 -56l-256 -267q-31 -4 -35 23l177 334q27 49 51 49z" />
    <glyph glyph-name="mu" unicode="&#xb5;" horiz-adv-x="1048" 
d="M174 774q0 33 21 33h116q18 -2 21 -14q-6 -52 -6 -220v-276q0 -217 149 -217q119 0 197 127q41 66 41 127v446q0 27 20 27h115q16 -4 18 -14l-2 -150v-444q0 -123 47 -123q59 0 97 51q10 -9 17 -25t1 -24q-53 -111 -182 -111q-59 0 -93 45t-38 117q0 14 -6 14h-13
q-62 -96 -124 -135t-139 -39t-142 51q-11 2 -15 -5t-4 -27v-35q0 -125 40 -256t40 -150q0 -37 -49 -67t-83 -31q-34 0 -44 26t-10 101l10 453v745z" />
    <glyph glyph-name="paragraph" unicode="&#xb6;" horiz-adv-x="1024" 
d="M750 903v-950q0 -393 -242 -393q-70 0 -125 37t-55 113t59 106q33 0 66 -20t39 -42q-29 -34 -29 -66t19 -49t48 -17t56 18t51 80q25 62 25 161v289q0 39 -10 52t-34 14q-213 0 -355 116t-142 320q0 206 150 320q151 114 419 114q190 0 248 -10q8 -6 8 -22t-8 -21l-80 -15
q-78 -14 -93 -34t-15 -101z" />
    <glyph glyph-name="periodcentered" unicode="&#xb7;" horiz-adv-x="512" 
d="M258 303q-49 0 -83 31t-34 82t33 86t83 35t82 -35t32 -85t-32 -82t-81 -32z" />
    <glyph glyph-name="cedilla" unicode="&#xb8;" 
d="M512 -282q0 -70 -57 -116t-131 -46q-104 0 -105 63q0 15 12 31q11 16 31 16t53 -26t43 -27q49 0 50 57q0 35 -32 69t-81 52v10l123 199h63l-69 -113q-14 -25 16 -43q84 -55 84 -126z" />
    <glyph glyph-name="onesuperior" unicode="&#xb9;" 
d="M313 821v396q0 63 -11 88t-52 28l-64 6q-8 5 -9 19t7 20q100 16 250 72q14 0 15 -10q-4 -43 -5 -150v-469q0 -81 14 -103t72 -30l35 -4q8 -6 7 -22t-9 -21q-123 4 -189 4t-179 -4q-7 5 -9 21t7 22l34 4q59 8 73 30t13 103z" />
    <glyph glyph-name="ordmasculine" unicode="&#xba;" horiz-adv-x="792" 
d="M404 545q90 -1 131 71t41 169t-48 183q-47 86 -130 85q-83 0 -132 -68t-49 -174t48 -186q49 -80 139 -80zM400 1106q142 0 234 -85t93 -219q0 -134 -93 -222q-94 -88 -240 -88t-237 84t-91 218t96 223t238 89z" />
    <glyph glyph-name="guillemotright" unicode="&#xbb;" horiz-adv-x="774" 
d="M532 446l-143 287q8 23 35 27q186 -240 244 -307q27 -31 -4 -68t-240 -305q-27 6 -35 26l143 291q10 24 0 49zM236 446l-144 287q8 23 35 27q186 -240 244 -307q27 -31 -4 -68t-240 -305q-27 6 -35 26l144 291q10 24 0 49z" />
    <glyph glyph-name="onequarter" unicode="&#xbc;" horiz-adv-x="1597" 
d="M973 297h184q25 0 31 5t6 28v223q0 16 12 25q41 23 94 22q23 0 23 -39v-235q0 -18 5 -24t26 -5h76q12 -8 12 -30t-12 -29h-68q-27 0 -33 -6t-6 -27v-29q0 -90 10 -108t70 -25l37 -4q6 -7 5 -23t-9 -20q-86 4 -196 4t-163 -4q-8 4 -10 19t6 24l37 4q60 7 72 27t12 106v25
q0 25 -6 31t-33 6h-317q-18 0 -19 20q0 16 19 41l436 561q18 25 53 25t35 -11q0 -4 -4 -12l-422 -540q-10 -18 -4 -22t41 -3zM225 682v395q0 63 -11 88t-52 29l-64 6q-8 6 -9 20t7 19q100 16 250 72q14 0 14 -11q-4 -43 -4 -149v-469q0 -82 14 -104t72 -29l35 -4q8 -7 7 -23
t-9 -20q-123 4 -189 4t-180 -4q-8 4 -9 20t7 23l35 4q59 7 73 29t13 104zM283 -29q575 872 893 1368q43 0 63 -47q-430 -647 -901 -1374q-51 0 -55 53z" />
    <glyph glyph-name="onehalf" unicode="&#xbd;" horiz-adv-x="1597" 
d="M1153 98h145q80 0 122 14t73 60q27 10 39 -14q-10 -20 -34 -81t-46 -81q-102 4 -231 4h-148q-92 0 -153 -4q-16 16 -7 33q88 55 213 180q188 188 189 340q0 80 -42 126t-112 46q-109 0 -184 -129q-12 -8 -26 -1q-13 7 -13 19q84 195 285 195q111 -1 177 -59t64 -152
q0 -127 -155 -283l-115 -114q-70 -71 -70 -85t29 -14zM240 682v395q0 63 -12 88t-52 29l-63 6q-7 6 -9 20t7 19q100 16 249 72q14 0 15 -11q-4 -43 -4 -149v-469q0 -82 13 -104t73 -29l35 -4q8 -7 7 -23t-10 -20q-123 4 -189 4t-179 -4q-8 4 -9 20t7 23l35 4q58 7 72 29
t14 104zM266 -29q575 872 893 1368q43 0 64 -47q-430 -647 -901 -1374q-52 0 -56 53z" />
    <glyph glyph-name="threequarters" unicode="&#xbe;" horiz-adv-x="1597" 
d="M1014 297h184q25 0 31 5t6 28v223q0 16 12 25q41 23 94 22q23 0 23 -39v-235q0 -18 5 -24t26 -5h75q12 -8 12 -30t-12 -29h-67q-27 0 -33 -6t-6 -27v-29q0 -90 10 -108t70 -25l37 -4q6 -7 5 -23t-9 -20q-86 4 -196 4t-163 -4q-8 4 -10 19t6 24l37 4q61 7 73 27t11 106v25
q0 25 -6 31t-33 6h-317q-18 0 -19 20q0 16 19 41l436 561q18 25 53 25t35 -11q0 -4 -4 -12l-422 -540q-10 -18 -4 -22t41 -3zM510 735q0 76 -42 129q-42 54 -127 54t-148 -60q-37 18 -27 55q162 68 221 108q59 39 59 101t-32 90t-76 29q-100 0 -174 -119q-27 -2 -35 23
q39 78 109 122t156 44t140 -43q56 -42 56 -96t-33 -93t-117 -78q-12 -20 17 -20q82 0 141 -53t59 -142q0 -148 -144 -254q-145 -106 -291 -106t-146 80q0 29 19 47t50 18t60 -45t71 -45q74 1 154 71t80 183zM354 -29q575 872 893 1368q43 0 64 -47q-430 -647 -901 -1374
q-52 0 -56 53z" />
    <glyph glyph-name="questiondown" unicode="&#xbf;" horiz-adv-x="657" 
d="M403 573q-49 0 -83 31t-33 82q0 51 32 86q33 35 83 35t82 -35t32 -85t-32 -82t-81 -32zM444 -545q-128 0 -240 129t-112 289q0 76 25 122t53 62l162 86q72 37 71 90q0 37 -20 119q6 12 20 16t23 -6q74 -121 74 -190t-27 -99t-84 -61l-100 -53q-113 -59 -113 -144t45 -130
q66 -66 238 -66q18 0 43 -26q24 -25 24 -59t-22 -56t-60 -23z" />
    <glyph glyph-name="Agrave" unicode="&#xc0;" horiz-adv-x="1275" 
d="M408 1757q18 0 59 -26l289 -236q4 -17 -2 -31t-19 -18l-342 147q-43 18 -51 33q-16 33 16 82t50 49zM471 608h252q45 0 52 12t-7 52l-111 334q-35 104 -47 129h-4q-12 -21 -49 -121l-129 -357q-12 -35 -6 -42t49 -7zM750 526h-310q-39 0 -53 -8t-25 -41l-71 -215
q-45 -135 -45 -171t59 -40l68 -6q10 -9 10 -27t-14 -24q-141 10 -410 0q-10 6 -11 24t7 27l68 6q86 8 122 101q10 29 47 115t134 341l209 553q41 109 34 146q53 16 107 77q25 0 31 -18q23 -76 90 -274l280 -824q45 -131 77 -170t97 -47l56 -6q10 -9 9 -27t-9 -24
q-127 6 -216 6t-268 -6q-12 6 -13 24t9 27l60 6q72 6 71 37q1 29 -26 109l-90 278q-10 35 -24 43t-60 8z" />
    <glyph glyph-name="Aacute" unicode="&#xc1;" horiz-adv-x="1275" 
d="M868 1747q33 0 59 -49t13 -82q-14 -17 -53 -33l-342 -147q-30 10 -21 49l289 235q39 27 55 27zM471 608h252q45 0 52 12t-7 52l-111 334q-35 104 -47 129h-4q-12 -21 -49 -121l-129 -357q-12 -35 -6 -42t49 -7zM750 526h-310q-39 0 -53 -8t-25 -41l-71 -215
q-45 -135 -45 -171t59 -40l68 -6q10 -9 10 -27t-14 -24q-141 10 -410 0q-10 6 -11 24t7 27l68 6q86 8 122 101q10 29 47 115t134 341l209 553q41 109 34 146q53 16 107 77q25 0 31 -18q23 -76 90 -274l280 -824q45 -131 77 -170t97 -47l56 -6q10 -9 9 -27t-9 -24
q-127 6 -216 6t-268 -6q-12 6 -13 24t9 27l60 6q72 6 71 37q1 29 -26 109l-90 278q-10 35 -24 43t-60 8z" />
    <glyph glyph-name="Acircumflex" unicode="&#xc2;" horiz-adv-x="1275" 
d="M373 1468l250 236q41 41 86 0l249 -236q0 -37 -24 -41l-238 121q-33 16 -65 0l-232 -121q-26 0 -26 41zM471 608h252q45 0 52 12t-7 52l-111 334q-35 104 -47 129h-4q-12 -21 -49 -121l-129 -357q-12 -35 -6 -42t49 -7zM750 526h-310q-39 0 -53 -8t-25 -41l-71 -215
q-45 -135 -45 -171t59 -40l68 -6q10 -9 10 -27t-14 -24q-141 10 -410 0q-10 6 -11 24t7 27l68 6q86 8 122 101q10 29 47 115t134 341l209 553q41 109 34 146q53 16 107 77q25 0 31 -18q23 -76 90 -274l280 -824q45 -131 77 -170t97 -47l56 -6q10 -9 9 -27t-9 -24
q-127 6 -216 6t-268 -6q-12 6 -13 24t9 27l60 6q72 6 71 37q1 29 -26 109l-90 278q-10 35 -24 43t-60 8z" />
    <glyph glyph-name="Atilde" unicode="&#xc3;" horiz-adv-x="1275" 
d="M580 1614h125q65 0 95 15t68 69q25 16 35 -10q-25 -106 -80 -160q-35 -33 -104 -33h-115q-70 0 -104 -25t-68 -84q-8 -6 -22 -4t-19 13q6 33 32 92t48 80q41 47 109 47zM471 608h252q45 0 52 12t-7 52l-111 334q-35 104 -47 129h-4q-12 -21 -49 -121l-129 -357
q-12 -35 -6 -42t49 -7zM750 526h-310q-39 0 -53 -8t-25 -41l-71 -215q-45 -135 -45 -171t59 -40l68 -6q10 -9 10 -27t-14 -24q-141 10 -410 0q-10 6 -11 24t7 27l68 6q86 8 122 101q10 29 47 115t134 341l209 553q41 109 34 146q53 16 107 77q25 0 31 -18q23 -76 90 -274
l280 -824q45 -131 77 -170t97 -47l56 -6q10 -9 9 -27t-9 -24q-127 6 -216 6t-268 -6q-12 6 -13 24t9 27l60 6q72 6 71 37q1 29 -26 109l-90 278q-10 35 -24 43t-60 8z" />
    <glyph glyph-name="Adieresis" unicode="&#xc4;" horiz-adv-x="1275" 
d="M860 1423q-102 0 -106 105q0 47 29 81q30 33 76 33t73 -34q26 -34 26 -78q0 -45 -26 -76t-72 -31zM459 1423q-100 0 -101 105q-4 45 25 80q29 34 75 34t76 -34t30 -77q0 -44 -30 -76q-28 -32 -75 -32zM471 608h252q45 0 52 12t-7 52l-111 334q-35 104 -47 129h-4
q-12 -21 -49 -121l-129 -357q-12 -35 -6 -42t49 -7zM750 526h-310q-39 0 -53 -8t-25 -41l-71 -215q-45 -135 -45 -171t59 -40l68 -6q10 -9 10 -27t-14 -24q-141 10 -410 0q-10 6 -11 24t7 27l68 6q86 8 122 101q10 29 47 115t134 341l209 553q41 109 34 146q53 16 107 77
q25 0 31 -18q23 -76 90 -274l280 -824q45 -131 77 -170t97 -47l56 -6q10 -9 9 -27t-9 -24q-127 6 -216 6t-268 -6q-12 6 -13 24t9 27l60 6q72 6 71 37q1 29 -26 109l-90 278q-10 35 -24 43t-60 8z" />
    <glyph glyph-name="Aring" unicode="&#xc5;" horiz-adv-x="1275" 
d="M555 1611q0 -46 27 -77q26 -31 66 -31t66 31t25 78q0 47 -26 77q-27 29 -66 29t-65 -30t-27 -77zM647 1778q74 0 124 -49t50 -117t-49 -117t-125 -49t-125 49t-49 117t50 117t124 49zM471 608h252q45 0 52 12t-7 52l-111 334q-35 104 -47 129h-4q-12 -21 -49 -121
l-129 -357q-12 -35 -6 -42t49 -7zM750 526h-310q-39 0 -53 -8t-25 -41l-71 -215q-45 -135 -45 -171t59 -40l68 -6q10 -9 10 -27t-14 -24q-141 10 -410 0q-10 6 -11 24t7 27l68 6q86 8 122 101q10 29 47 115t134 341l209 553q41 109 34 146q53 16 107 77q25 0 31 -18
q23 -76 90 -274l280 -824q45 -131 77 -170t97 -47l56 -6q10 -9 9 -27t-9 -24q-127 6 -216 6t-268 -6q-12 6 -13 24t9 27l60 6q72 6 71 37q1 29 -26 109l-90 278q-10 35 -24 43t-60 8z" />
    <glyph glyph-name="AE" unicode="&#xc6;" horiz-adv-x="1740" 
d="M582 739h137q68 1 79 9t11 57v399q0 63 -12 74h-11q-16 -8 -47 -64q-109 -207 -217 -430q-16 -33 -8 -39t68 -6zM743 1352h537q252 0 276 6q10 -29 33 -271q-6 -10 -24 -12t-27 6q-37 117 -69 151t-81 45t-204 11h-148q-43 0 -51 -11t-8 -71v-409q0 -41 10 -49t57 -9h119
q137 1 174 13t49 71l17 84q7 10 27 9t26 -11l-8 -207l8 -196q-6 -10 -25 -12t-28 10l-19 80q-14 66 -63 77q-35 10 -158 11h-119q-47 0 -57 -8t-10 -48v-288q0 -172 37 -213q47 -47 250 -47t263 32q60 33 142 197q9 8 27 4t24 -18q-31 -156 -92 -285q-276 6 -549 6h-188
q-92 0 -273 -6q-10 4 -11 22t7 29l70 6q84 8 104 50t21 206v301q0 45 -11 52t-79 8h-168q-63 0 -79 -12t-54 -78q-135 -252 -207 -435q-18 -43 -12 -59t43 -23l110 -16q8 -9 8 -27t-10 -24q-123 6 -225 6l-211 -6q-12 6 -14 24t12 27l63 10q39 6 69 36t75 112
q205 375 497 944q49 92 50 117q0 18 -45 24l-123 19q-10 10 -9 28q2 18 15 23q145 -6 239 -6z" />
    <glyph glyph-name="Ccedilla" unicode="&#xc7;" horiz-adv-x="1425" 
d="M90 656q0 178 70 320t188 234q223 174 553 174q184 0 363 -49q41 -10 57 -8q6 -123 29 -301q-8 -10 -26 -12t-30 8q-66 299 -420 299q-250 0 -414 -160t-165 -467q0 -307 173 -485t435 -178q176 0 280 88q103 88 148 205q11 8 29 5t24 -14q-10 -77 -42 -163t-56 -117
q-29 -4 -72 -21q-121 -43 -290 -45l-56 -88q-14 -23 17 -45q88 -59 88 -132q-1 -73 -61 -122t-124 -49q-124 0 -122 68q0 16 13 32q13 17 33 17t55 -28q34 -28 46 -28q51 0 51 60q0 37 -34 72t-85 55v10l111 178q-283 4 -475 135q-131 88 -211 232q-80 142 -80 320z" />
    <glyph glyph-name="Egrave" unicode="&#xc8;" horiz-adv-x="1196" 
d="M360 1755q14 0 56 -26l289 -236q3 -17 -3 -31t-18 -18l-342 147q-43 18 -51 33q-15 31 11 81t58 50zM498 668q-48 0 -58 -8t-10 -48v-288q0 -172 43 -216t244 -44t263 32q62 33 144 197q10 8 28 4t24 -18q-33 -160 -93 -285q-276 6 -548 6h-185q-96 0 -278 -6
q-10 4 -12 22q-1 18 8 29l67 6q86 8 107 50q20 42 20 206v737q0 166 -18 207t-107 52l-33 4q-8 6 -7 26t12 25q133 -6 241 -6h385q252 0 277 6q10 -31 32 -273q-6 -10 -24 -11t-27 7q-14 43 -18 57t-19 44q-31 69 -117 92q-52 14 -200 14h-147q-46 0 -54 -11t-8 -71v-409
q0 -41 10 -49t58 -9h118q136 1 174 13t50 71l16 84q8 10 28 9t25 -11l-8 -207l8 -196q-6 -10 -25 -12t-28 10l-18 80q-14 66 -64 77q-37 10 -158 11h-118z" />
    <glyph glyph-name="Eacute" unicode="&#xc9;" horiz-adv-x="1196" 
d="M866 1593l-342 -147q-12 4 -18 18t-2 31l289 236q39 27 55 26q32 0 58 -49t14 -82q-15 -17 -54 -33zM498 668q-48 0 -58 -8t-10 -48v-288q0 -172 43 -216t244 -44t263 32q62 33 144 197q10 8 28 4t24 -18q-33 -160 -93 -285q-276 6 -548 6h-185q-96 0 -278 -6
q-10 4 -12 22q-1 18 8 29l67 6q86 8 107 50q20 42 20 206v737q0 166 -18 207t-107 52l-33 4q-8 6 -7 26t12 25q133 -6 241 -6h385q252 0 277 6q10 -31 32 -273q-6 -10 -24 -11t-27 7q-14 43 -18 57t-19 44q-31 69 -117 92q-52 14 -200 14h-147q-46 0 -54 -11t-8 -71v-409
q0 -41 10 -49t58 -9h118q136 1 174 13t50 71l16 84q8 10 28 9t25 -11l-8 -207l8 -196q-6 -10 -25 -12t-28 10l-18 80q-14 66 -64 77q-37 10 -158 11h-118z" />
    <glyph glyph-name="Ecircumflex" unicode="&#xca;" horiz-adv-x="1196" 
d="M319 1489l250 235q41 41 86 0l250 -235q0 -37 -24 -41l-238 121q-33 16 -65 0l-232 -121q-27 0 -27 41zM498 668q-48 0 -58 -8t-10 -48v-288q0 -172 43 -216t244 -44t263 32q62 33 144 197q10 8 28 4t24 -18q-33 -160 -93 -285q-276 6 -548 6h-185q-96 0 -278 -6
q-10 4 -12 22q-1 18 8 29l67 6q86 8 107 50q20 42 20 206v737q0 166 -18 207t-107 52l-33 4q-8 6 -7 26t12 25q133 -6 241 -6h385q252 0 277 6q10 -31 32 -273q-6 -10 -24 -11t-27 7q-14 43 -18 57t-19 44q-31 69 -117 92q-52 14 -200 14h-147q-46 0 -54 -11t-8 -71v-409
q0 -41 10 -49t58 -9h118q136 1 174 13t50 71l16 84q8 10 28 9t25 -11l-8 -207l8 -196q-6 -10 -25 -12t-28 10l-18 80q-14 66 -64 77q-37 10 -158 11h-118z" />
    <glyph glyph-name="Edieresis" unicode="&#xcb;" horiz-adv-x="1196" 
d="M807 1452q-102 0 -107 104q0 47 30 81t76 34t73 -34q27 -35 27 -79t-28 -75q-26 -31 -71 -31zM401 1452q-100 0 -100 104q-4 45 25 80q28 35 74 35t76 -34q30 -33 30 -77t-29 -76t-76 -32zM498 668q-48 0 -58 -8t-10 -48v-288q0 -172 43 -216t244 -44t263 32
q62 33 144 197q10 8 28 4t24 -18q-33 -160 -93 -285q-276 6 -548 6h-185q-96 0 -278 -6q-10 4 -12 22q-1 18 8 29l67 6q86 8 107 50q20 42 20 206v737q0 166 -18 207t-107 52l-33 4q-8 6 -7 26t12 25q133 -6 241 -6h385q252 0 277 6q10 -31 32 -273q-6 -10 -24 -11t-27 7
q-14 43 -18 57t-19 44q-31 69 -117 92q-52 14 -200 14h-147q-46 0 -54 -11t-8 -71v-409q0 -41 10 -49t58 -9h118q136 1 174 13t50 71l16 84q8 10 28 9t25 -11l-8 -207l8 -196q-6 -10 -25 -12t-28 10l-18 80q-14 66 -64 77q-37 10 -158 11h-118z" />
    <glyph glyph-name="Igrave" unicode="&#xcc;" horiz-adv-x="692" 
d="M98 1757q16 0 56 -26l288 -236q4 -17 -2 -31t-18 -18l-342 147q-39 16 -53 33q-13 33 13 82t58 49zM262 311v729q0 170 -18 212t-107 51l-51 4q-8 6 -7 26t11 25q154 -6 256 -6t256 6q10 -4 11 -24t-7 -27l-51 -4q-88 -9 -106 -51t-19 -212v-729q0 -168 18 -209t107 -51
l51 -6q8 -7 7 -27t-11 -24q-154 6 -256 6t-256 -6q-10 4 -11 22t7 29l51 6q88 10 107 51q18 41 18 209z" />
    <glyph glyph-name="Iacute" unicode="&#xcd;" horiz-adv-x="692" 
d="M614 1593l-342 -147q-12 4 -18 18t-2 31l289 234q39 29 55 28q35 0 57 -47q27 -51 15 -84q-15 -17 -54 -33zM262 311v729q0 170 -18 212t-107 51l-51 4q-8 6 -7 26t11 25q154 -6 256 -6t256 6q10 -4 11 -24t-7 -27l-51 -4q-88 -9 -106 -51t-19 -212v-729q0 -168 18 -209
t107 -51l51 -6q8 -7 7 -27t-11 -24q-154 6 -256 6t-256 -6q-10 4 -11 22t7 29l51 6q88 10 107 51q18 41 18 209z" />
    <glyph glyph-name="Icircumflex" unicode="&#xce;" horiz-adv-x="692" 
d="M66 1489l249 235q41 41 86 0l250 -235q0 -37 -24 -41l-238 121q-33 16 -65 0l-232 -121q-26 0 -26 41zM262 311v729q0 170 -18 212t-107 51l-51 4q-8 6 -7 26t11 25q154 -6 256 -6t256 6q10 -4 11 -24t-7 -27l-51 -4q-88 -9 -106 -51t-19 -212v-729q0 -168 18 -209
t107 -51l51 -6q8 -7 7 -27t-11 -24q-154 6 -256 6t-256 -6q-10 4 -11 22t7 29l51 6q88 10 107 51q18 41 18 209z" />
    <glyph glyph-name="Idieresis" unicode="&#xcf;" horiz-adv-x="692" 
d="M553 1444q-102 0 -107 104q0 47 30 81t76 34t73 -34t27 -79q0 -46 -28 -76q-26 -30 -71 -30zM172 1444q-100 0 -100 104q-4 45 24 80q29 35 75 35t76 -34q29 -34 29 -78q0 -43 -28 -75t-76 -32zM262 311v729q0 170 -18 212t-107 51l-51 4q-8 6 -7 26t11 25q154 -6 256 -6
t256 6q10 -4 11 -24t-7 -27l-51 -4q-88 -9 -106 -51t-19 -212v-729q0 -168 18 -209t107 -51l51 -6q8 -7 7 -27t-11 -24q-154 6 -256 6t-256 -6q-10 4 -11 22t7 29l51 6q88 10 107 51q18 41 18 209z" />
    <glyph glyph-name="Eth" unicode="&#xd0;" horiz-adv-x="1609" 
d="M430 1110v-371h377q14 -10 14 -36t-14 -35h-377v-314q0 -166 41 -223q59 -84 252 -84q289 0 432 172t143 469q0 171 -72 308q-44 84 -113 148t-187 107t-278 43q-159 0 -197 -28q-21 -17 -21 -156zM686 -16l-375 16q-70 0 -215 -6q-10 4 -11 22t7 29l47 6q88 12 106 51
q17 39 17 205v361h-184q-14 10 -14 36t14 35h184v295q0 150 -17 200t-89 58l-35 4q-12 6 -12 24t14 26q348 12 522 12q281 0 442 -60q203 -74 310 -234q106 -161 106 -365q0 -203 -92 -363t-270 -256t-455 -96z" />
    <glyph glyph-name="Ntilde" unicode="&#xd1;" horiz-adv-x="1603" 
d="M766 1634h129q71 0 101 14t69 68q27 18 37 -10q-27 -100 -84 -158q-35 -33 -109 -32h-118q-70 0 -107 -24t-72 -83q-8 -8 -22 -6t-21 14q8 35 34 92t50 78q41 47 113 47zM1364 838v-490q0 -305 6 -358q-8 -23 -39 -23q-39 55 -262 309l-475 541q-12 14 -113 132
q-100 118 -125 145h-4q-10 -31 -10 -133v-447q0 -358 37 -424q18 -33 104 -39l64 -6q8 -11 7 -27t-11 -24q-137 6 -241 6t-212 -6q-10 8 -12 25t8 26l55 6q76 10 90 41q27 68 27 422v592q0 98 -42 142t-130 55l-35 4q-10 8 -9 26t13 25q85 -6 185 -6t141 6q41 -102 350 -451
l199 -223q270 -301 338 -371h4q8 10 8 86v439q0 358 -41 424q-18 27 -127 41l-35 4q-10 8 -9 27t13 24q141 -6 245 -6t208 6q12 -8 13 -26t-9 -25l-29 -4q-100 -16 -114 -43q-31 -66 -31 -422z" />
    <glyph glyph-name="Ograve" unicode="&#xd2;" horiz-adv-x="1628" 
d="M598 1757q20 0 59 -26l289 -236q4 -17 -2 -31t-18 -18l-342 147q-43 18 -52 33q-18 37 13 84q33 47 53 47zM850 31q201 -1 340 151t139 429t-123 485q-61 102 -169 164t-266 61q-158 0 -306 -127q-76 -66 -121 -186t-45 -248q0 -363 182 -572q61 -70 157 -114t212 -43z
M808 -33q-314 0 -514 203t-200 502t207 506q207 206 533 206t513 -205q187 -206 187 -505t-206 -503t-520 -204z" />
    <glyph glyph-name="Oacute" unicode="&#xd3;" horiz-adv-x="1628" 
d="M1083 1604l-342 -148q-12 4 -18 18t-2 31l289 236q39 27 55 26q33 0 59 -49t13 -82q-15 -16 -54 -32zM850 31q201 -1 340 151t139 429t-123 485q-61 102 -169 164t-266 61q-158 0 -306 -127q-76 -66 -121 -186t-45 -248q0 -363 182 -572q61 -70 157 -114t212 -43z
M808 -33q-314 0 -514 203t-200 502t207 506q207 206 533 206t513 -205q187 -206 187 -505t-206 -503t-520 -204z" />
    <glyph glyph-name="Ocircumflex" unicode="&#xd4;" horiz-adv-x="1628" 
d="M535 1489l249 227q45 39 86 0l250 -227q0 -37 -24 -41l-238 119q-33 16 -65 0l-232 -119q-26 0 -26 41zM850 31q201 -1 340 151t139 429t-123 485q-61 102 -169 164t-266 61q-158 0 -306 -127q-76 -66 -121 -186t-45 -248q0 -363 182 -572q61 -70 157 -114t212 -43z
M808 -33q-314 0 -514 203t-200 502t207 506q207 206 533 206t513 -205q187 -206 187 -505t-206 -503t-520 -204z" />
    <glyph glyph-name="Otilde" unicode="&#xd5;" horiz-adv-x="1628" 
d="M754 1651h129q71 0 101 14t69 70q27 20 37 -9q-25 -102 -84 -165q-35 -35 -109 -35h-119q-72 0 -108 -25t-70 -88q-8 -6 -22 -4t-21 12q8 37 34 97t50 81q43 52 113 52zM850 31q201 -1 340 151t139 429t-123 485q-61 102 -169 164t-266 61q-158 0 -306 -127
q-76 -66 -121 -186t-45 -248q0 -363 182 -572q61 -70 157 -114t212 -43zM808 -33q-314 0 -514 203t-200 502t207 506q207 206 533 206t513 -205q187 -206 187 -505t-206 -503t-520 -204z" />
    <glyph glyph-name="Odieresis" unicode="&#xd6;" horiz-adv-x="1628" 
d="M1016 1464q-102 0 -107 105q0 47 30 81t76 34q47 0 73 -34t26 -79t-26 -76t-72 -31zM625 1464q-100 0 -101 105q-4 45 25 80t75 35t76 -34t29 -78t-29 -76t-75 -32zM850 31q201 -1 340 151t139 429t-123 485q-61 102 -169 164t-266 61q-158 0 -306 -127
q-76 -66 -121 -186t-45 -248q0 -363 182 -572q61 -70 157 -114t212 -43zM808 -33q-314 0 -514 203t-200 502t207 506q207 206 533 206t513 -205q187 -206 187 -505t-206 -503t-520 -204z" />
    <glyph glyph-name="multiply" unicode="&#xd7;" horiz-adv-x="1024" 
d="M893 715l-303 -307l303 -306l-76 -79l-305 307l-303 -307l-76 79l301 306l-301 301l76 79l303 -303l305 308z" />
    <glyph glyph-name="Oslash" unicode="&#xd8;" horiz-adv-x="1628" 
d="M788 1321q-175 0 -323 -127q-76 -66 -121 -186t-45 -281q0 -276 133 -471l719 909q-139 156 -363 156zM836 31q214 -1 354 151q139 152 139 440t-129 478l-719 -907q141 -162 355 -162zM823 -33q-242 0 -424 121l-137 -170q-23 0 -40 15t-19 36l133 166q-117 95 -179 233
t-63 294q0 309 207 516t522 206q238 0 412 -112l117 147q23 -1 42 -17t19 -34l-113 -143q233 -201 234 -549q0 -303 -206 -506t-505 -203z" />
    <glyph glyph-name="Ugrave" unicode="&#xd9;" horiz-adv-x="1527" 
d="M567 1757q14 0 56 -26l288 -236q4 -17 -2 -31t-18 -18l-342 147q-43 18 -51 33q-16 31 10 81t59 50zM1239 602v236q0 354 -39 424q-20 37 -102 43l-51 4q-8 10 -8 26q1 16 12 23q117 -6 227 -6t221 6q12 -8 12 -24t-8 -25l-49 -4q-82 -6 -102 -50q-29 -68 -29 -417v-232
q0 -336 -143 -489q-66 -72 -170 -111t-222 -39q-252 0 -382 113q-160 133 -160 483v484q0 165 -18 207t-105 51l-51 4q-8 6 -7 25t11 24q154 -6 254 -6t252 6q10 -4 11 -24t-7 -25l-49 -4q-87 -9 -105 -51t-18 -207v-443q0 -264 96 -405t313 -141t317 146q100 148 99 398z
" />
    <glyph glyph-name="Uacute" unicode="&#xda;" horiz-adv-x="1527" 
d="M1065 1593l-342 -147q-28 9 -21 49l289 236q39 27 56 26q35 0 57 -47q27 -51 14 -84q-14 -17 -53 -33zM1239 602v236q0 354 -39 424q-20 37 -102 43l-51 4q-8 10 -8 26q1 16 12 23q117 -6 227 -6t221 6q12 -8 12 -24t-8 -25l-49 -4q-82 -6 -102 -50q-29 -68 -29 -417
v-232q0 -336 -143 -489q-66 -72 -170 -111t-222 -39q-252 0 -382 113q-160 133 -160 483v484q0 165 -18 207t-105 51l-51 4q-8 6 -7 25t11 24q154 -6 254 -6t252 6q10 -4 11 -24t-7 -25l-49 -4q-87 -9 -105 -51t-18 -207v-443q0 -264 96 -405t313 -141t317 146
q100 148 99 398z" />
    <glyph glyph-name="Ucircumflex" unicode="&#xdb;" horiz-adv-x="1527" 
d="M535 1489l249 227q45 39 86 0l250 -227q0 -37 -24 -41l-238 119q-33 16 -65 0l-232 -119q-26 0 -26 41zM1239 602v236q0 354 -39 424q-20 37 -102 43l-51 4q-8 10 -8 26q1 16 12 23q117 -6 227 -6t221 6q12 -8 12 -24t-8 -25l-49 -4q-82 -6 -102 -50q-29 -68 -29 -417
v-232q0 -336 -143 -489q-66 -72 -170 -111t-222 -39q-252 0 -382 113q-160 133 -160 483v484q0 165 -18 207t-105 51l-51 4q-8 6 -7 25t11 24q154 -6 254 -6t252 6q10 -4 11 -24t-7 -25l-49 -4q-87 -9 -105 -51t-18 -207v-443q0 -264 96 -405t313 -141t317 146
q100 148 99 398z" />
    <glyph glyph-name="Udieresis" unicode="&#xdc;" horiz-adv-x="1527" 
d="M1016 1444q-102 0 -107 104q0 47 30 81t76 34q47 0 73 -34t26 -79q0 -46 -26 -76t-72 -30zM614 1444q-100 0 -100 104q-4 45 25 80t75 35t75 -34q30 -34 30 -78q0 -43 -29 -75t-76 -32zM1239 602v236q0 354 -39 424q-20 37 -102 43l-51 4q-8 10 -8 26q1 16 12 23
q117 -6 227 -6t221 6q12 -8 12 -24t-8 -25l-49 -4q-82 -6 -102 -50q-29 -68 -29 -417v-232q0 -336 -143 -489q-66 -72 -170 -111t-222 -39q-252 0 -382 113q-160 133 -160 483v484q0 165 -18 207t-105 51l-51 4q-8 6 -7 25t11 24q154 -6 254 -6t252 6q10 -4 11 -24t-7 -25
l-49 -4q-87 -9 -105 -51t-18 -207v-443q0 -264 96 -405t313 -141t317 146q100 148 99 398z" />
    <glyph glyph-name="Yacute" unicode="&#xdd;" horiz-adv-x="1175" 
d="M887 1593l-342 -147q-30 10 -21 49l289 236q39 27 55 26q33 0 59 -49t13 -82q-14 -17 -53 -33zM688 418v-107q0 -166 20 -210t103 -50l78 -6q8 -11 7 -29t-11 -22q-189 6 -287 6t-260 -6q-10 4 -11 22t7 29l63 6q86 8 105 49q18 41 18 211v105q0 86 -10 127t-55 127
l-242 471q-49 94 -80 121t-82 34l-57 11q-10 10 -8 27t12 24q98 -6 240 -6t217 6q12 -4 14 -24t-8 -27l-27 -4q-86 -12 -86 -37q0 -31 64 -158q197 -391 231 -455q117 199 221 397t105 220q0 23 -86 33l-37 4q-10 10 -9 27t13 24q111 -6 197 -6t190 6q12 -8 13 -26t-9 -25
l-57 -11q-64 -13 -107 -65q-18 -23 -29 -37t-41 -63t-56 -93q-26 -45 -38 -65l-129 -223q-68 -117 -82 -166t-14 -166z" />
    <glyph glyph-name="Thorn" unicode="&#xde;" horiz-adv-x="1148" 
d="M262 307v737q0 166 -21 208q-22 42 -108 51l-45 4q-8 6 -7 26t11 25q154 -6 259 -6t247 6q8 -8 9 -26t-5 -25l-33 -4q-95 -11 -117 -53t-22 -183h166q209 0 337 -89t128 -278q0 -112 -55 -188t-129 -113q-137 -68 -299 -59q-8 4 -10 20q-1 16 7 21q299 43 299 311
q0 145 -83 229q-84 83 -244 83q-80 0 -98 -12t-19 -60v-625q0 -166 18 -207t105 -49l76 -6q8 -7 7 -27t-11 -24q-184 6 -285 6t-242 -6q-10 4 -11 22t7 29l45 6q88 12 106 51q17 39 17 205z" />
    <glyph glyph-name="germandbls" unicode="&#xdf;" horiz-adv-x="1071" 
d="M346 842v-613q0 -113 9 -143t48 -35l50 -6q10 -7 8 -27t-12 -24q-99 6 -191 6t-184 -6q-10 4 -13 23q-2 19 9 28l47 6q55 8 66 36t12 142v433q1 43 -5 51t-36 8h-72q-23 14 -6 39l88 43q31 16 31 41q0 201 63 334q136 288 408 286q156 0 232 -81t75 -191q1 -73 -25 -108
q-26 -36 -36 -47t-43 -42q-34 -31 -40 -37l-49 -47q-94 -88 -94 -153q0 -66 37 -112t103 -98t99 -85q31 -33 61 -91t30 -124q0 -123 -93 -200t-211 -77t-161 39q-19 20 -25 54t11 61q17 26 45 6q106 -98 156 -98t95 43q44 43 44 123q0 117 -162 237t-162 258q0 58 34 106
t111 124q131 123 131 229t-60 173t-161 67q-126 -1 -194 -153t-68 -398z" />
    <glyph glyph-name="agrave" unicode="&#xe0;" horiz-adv-x="827" 
d="M264 1358q30 0 53 -49l168 -348q0 -11 -16 -19t-29 -6l-250 272q-37 41 -36 64q0 23 41 53q39 33 69 33zM229 194q0 -47 31 -89t98 -42q29 -1 69 17q39 18 59 38t24 93l4 121q0 27 -20 26q-22 0 -102 -26t-122 -59q-42 -32 -41 -79zM457 836q221 0 213 -240l-13 -356
q-8 -178 95 -179q28 -1 52 13t25 14q14 0 15 -27q0 -5 -20 -27t-64 -42q-43 -20 -88 -21q-84 0 -133 64q-18 29 -33 28q-6 1 -90 -45t-137 -47q-91 0 -149 52t-58 126t37 113t133 74l243 88q35 12 35 59l2 95q4 178 -149 178q-49 0 -89 -24t-43 -74t-20 -64
q-49 -39 -117 -39q-29 0 -28 29q0 78 133 165t248 87z" />
    <glyph glyph-name="aacute" unicode="&#xe1;" horiz-adv-x="827" 
d="M682 1266q0 -24 -33 -56l-256 -266q-31 -4 -35 23l177 333q27 50 51 50t60 -30t36 -54zM229 194q0 -47 31 -89t98 -42q29 -1 69 17q39 18 59 38t24 93l4 121q0 27 -20 26q-22 0 -102 -26t-122 -59q-42 -32 -41 -79zM457 836q221 0 213 -240l-13 -356q-8 -178 95 -179
q28 -1 52 13t25 14q14 0 15 -27q0 -5 -20 -27t-64 -42q-43 -20 -88 -21q-84 0 -133 64q-18 29 -33 28q-6 1 -90 -45t-137 -47q-91 0 -149 52t-58 126t37 113t133 74l243 88q35 12 35 59l2 95q4 178 -149 178q-49 0 -89 -24t-43 -74t-20 -64q-49 -39 -117 -39q-29 0 -28 29
q0 78 133 165t248 87z" />
    <glyph glyph-name="acircumflex" unicode="&#xe2;" horiz-adv-x="827" 
d="M400 1145q-10 0 -27 -23l-152 -190q-10 -4 -24 3t-17 15l185 353q37 66 71 0l187 -353q-1 -8 -19 -15t-26 -3l-150 190q-18 23 -28 23zM229 194q0 -47 31 -89t98 -42q29 -1 69 17q39 18 59 38t24 93l4 121q0 27 -20 26q-22 0 -102 -26t-122 -59q-42 -32 -41 -79zM457 836
q221 0 213 -240l-13 -356q-8 -178 95 -179q28 -1 52 13t25 14q14 0 15 -27q0 -5 -20 -27t-64 -42q-43 -20 -88 -21q-84 0 -133 64q-18 29 -33 28q-6 1 -90 -45t-137 -47q-91 0 -149 52t-58 126t37 113t133 74l243 88q35 12 35 59l2 95q4 178 -149 178q-49 0 -89 -24t-43 -74
t-20 -64q-49 -39 -117 -39q-29 0 -28 29q0 78 133 165t248 87z" />
    <glyph glyph-name="atilde" unicode="&#xe3;" horiz-adv-x="827" 
d="M362 1161h109q63 -1 91 13t63 65q25 12 34 -12q-20 -86 -75 -146q-37 -33 -101 -32h-106q-66 0 -101 -24t-65 -81q-7 -6 -19 -3t-16 11q6 31 30 86t46 76q40 47 110 47zM229 194q0 -47 31 -89t98 -42q29 -1 69 17q39 18 59 38t24 93l4 121q0 27 -20 26q-22 0 -102 -26
t-122 -59q-42 -32 -41 -79zM457 836q221 0 213 -240l-13 -356q-8 -178 95 -179q28 -1 52 13t25 14q14 0 15 -27q0 -5 -20 -27t-64 -42q-43 -20 -88 -21q-84 0 -133 64q-18 29 -33 28q-6 1 -90 -45t-137 -47q-91 0 -149 52t-58 126t37 113t133 74l243 88q35 12 35 59l2 95
q4 178 -149 178q-49 0 -89 -24t-43 -74t-20 -64q-49 -39 -117 -39q-29 0 -28 29q0 78 133 165t248 87z" />
    <glyph glyph-name="adieresis" unicode="&#xe4;" horiz-adv-x="827" 
d="M580 1028q-43 0 -73 28t-31 72t29 76q30 31 74 31q43 0 71 -30q28 -31 28 -73t-28 -73t-70 -31zM222 1028q-44 0 -72 27t-29 73q-2 46 26 76q29 31 73 31t74 -30q30 -31 30 -73t-29 -73t-73 -31zM229 194q0 -47 31 -89t98 -42q29 -1 69 17q39 18 59 38t24 93l4 121
q0 27 -20 26q-22 0 -102 -26t-122 -59q-42 -32 -41 -79zM457 836q221 0 213 -240l-13 -356q-8 -178 95 -179q28 -1 52 13t25 14q14 0 15 -27q0 -5 -20 -27t-64 -42q-43 -20 -88 -21q-84 0 -133 64q-18 29 -33 28q-6 1 -90 -45t-137 -47q-91 0 -149 52t-58 126t37 113t133 74
l243 88q35 12 35 59l2 95q4 178 -149 178q-49 0 -89 -24t-43 -74t-20 -64q-49 -39 -117 -39q-29 0 -28 29q0 78 133 165t248 87z" />
    <glyph glyph-name="aring" unicode="&#xe5;" horiz-adv-x="827" 
d="M322 1140q0 -46 26 -77t67 -31q39 0 65 31t26 78t-27 77t-65 30t-66 -31q-26 -31 -26 -77zM414 1307q74 1 124 -49t50 -118t-49 -116q-49 -49 -125 -49t-125 49t-49 117t50 117t124 49zM229 194q0 -47 31 -89t98 -42q29 -1 69 17q39 18 59 38t24 93l4 121q0 27 -20 26
q-22 0 -102 -26t-122 -59q-42 -32 -41 -79zM457 836q221 0 213 -240l-13 -356q-8 -178 95 -179q28 -1 52 13t25 14q14 0 15 -27q0 -5 -20 -27t-64 -42q-43 -20 -88 -21q-84 0 -133 64q-18 29 -33 28q-6 1 -90 -45t-137 -47q-91 0 -149 52t-58 126t37 113t133 74l243 88
q35 12 35 59l2 95q4 178 -149 178q-49 0 -89 -24t-43 -74t-20 -64q-49 -39 -117 -39q-29 0 -28 29q0 78 133 165t248 87z" />
    <glyph glyph-name="ae" unicode="&#xe6;" horiz-adv-x="1198" 
d="M995 657q0 43 -44 80t-105 37q-92 0 -150 -78t-59 -176q0 -24 6 -28t31 2l231 75q53 17 71 31t19 57zM498 473v84q0 67 -5 103t-38 71t-93 35t-91 -31q-29 -31 -33 -73t-23 -58q-53 -39 -115 -39q-24 0 -24 31t30 73q31 42 78 74q127 93 258 93t174 -115q119 115 281 115
q104 0 185 -60t81 -149q0 -41 -37 -54l-452 -145q-23 -8 -30 -16t-7 -31v-49q0 -121 70 -187t184 -65q70 0 122 26t115 103q12 6 24 -3t11 -22q-117 -213 -348 -213q-180 0 -274 133l-84 -57q-111 -76 -197 -76q-86 -1 -137 51t-51 130q0 129 161 188l218 82q31 10 39 18
t8 33zM498 225v109q0 24 -10 28t-35 -4l-91 -30q-135 -47 -135 -152q0 -49 32 -81q31 -32 89 -32t115 58q35 36 35 104z" />
    <glyph glyph-name="ccedilla" unicode="&#xe7;" horiz-adv-x="821" 
d="M473 -29q-175 0 -287 110t-112 296t129 322t366 137q104 0 183 -35q30 -27 30 -69t-13 -66t-31 -23q-18 0 -29 14q-88 109 -204 109t-200 -88t-84 -232t88 -252q89 -108 237 -108t232 123q12 4 24 -5t13 -24q-76 -166 -262 -196l-59 -97q-14 -25 16 -43q84 -55 84 -126
q0 -70 -57 -116t-131 -46q-104 0 -105 63q0 15 12 31q11 16 31 16t53 -26t43 -27q49 0 49 57q0 35 -31 69q-32 34 -81 52v10l106 172q-2 -2 -10 -2z" />
    <glyph glyph-name="egrave" unicode="&#xe8;" horiz-adv-x="811" 
d="M231 1264q0 22 39 55q42 29 68 29t49 -48l162 -329q0 -11 -15 -19t-28 -6l-240 260q-35 36 -35 58zM248 586h145q186 0 213 20q12 8 12 49t-37 80q-38 39 -121 39t-154 -61t-73 -117q1 -10 15 -10zM645 524h-379q-39 0 -47 -8t-8 -47q0 -163 91 -273t249 -110
q109 0 188 100q33 10 37 -24q-47 -96 -138 -144t-183 -47q-195 0 -297 135q-86 112 -86 286t116 308t295 136q127 0 209 -74t82 -170q0 -36 -8 -52t-121 -16z" />
    <glyph glyph-name="eacute" unicode="&#xe9;" horiz-adv-x="811" 
d="M592 1335q24 1 60 -29t36 -54t-33 -56l-256 -266q-31 -4 -34 22l176 334q27 49 51 49zM248 586h145q186 0 213 20q12 8 12 49t-37 80q-38 39 -121 39t-154 -61t-73 -117q1 -10 15 -10zM645 524h-379q-39 0 -47 -8t-8 -47q0 -163 91 -273t249 -110q109 0 188 100
q33 10 37 -24q-47 -96 -138 -144t-183 -47q-195 0 -297 135q-86 112 -86 286t116 308t295 136q127 0 209 -74t82 -170q0 -36 -8 -52t-121 -16z" />
    <glyph glyph-name="ecircumflex" unicode="&#xea;" horiz-adv-x="811" 
d="M470 1145q-10 0 -28 -23l-151 -188q-11 -4 -25 3t-16 15l184 363q35 68 72 0l186 -363q-2 -8 -20 -15t-25 -3l-149 188q-18 23 -28 23zM248 586h145q186 0 213 20q12 8 12 49t-37 80q-38 39 -121 39t-154 -61t-73 -117q1 -10 15 -10zM645 524h-379q-39 0 -47 -8t-8 -47
q0 -163 91 -273t249 -110q109 0 188 100q33 10 37 -24q-47 -96 -138 -144t-183 -47q-195 0 -297 135q-86 112 -86 286t116 308t295 136q127 0 209 -74t82 -170q0 -36 -8 -52t-121 -16z" />
    <glyph glyph-name="edieresis" unicode="&#xeb;" horiz-adv-x="811" 
d="M635 1028q-43 0 -71 27t-28 69t27 72q29 29 71 29t68 -29q26 -28 27 -68t-25 -70t-69 -30zM297 1028q-43 0 -69 26t-28 68t26 73q28 30 70 30t71 -29t29 -70q0 -42 -28 -70t-71 -28zM248 586h145q186 0 213 20q12 8 12 49t-37 80q-38 39 -121 39t-154 -61t-73 -117
q1 -10 15 -10zM645 524h-379q-39 0 -47 -8t-8 -47q0 -163 91 -273t249 -110q109 0 188 100q33 10 37 -24q-47 -96 -138 -144t-183 -47q-195 0 -297 135q-86 112 -86 286t116 308t295 136q127 0 209 -74t82 -170q0 -36 -8 -52t-121 -16z" />
    <glyph glyph-name="igrave" unicode="&#xec;" horiz-adv-x="526" 
d="M20 1264q0 22 39 55q43 29 69 29t48 -48l162 -329q0 -11 -15 -19t-28 -6l-240 260q-35 36 -35 58zM201 229v359q0 64 -7 82t-49 45l-18 12q-6 6 -6 19t8 18q123 43 211 100q16 0 20 -12q-8 -143 -8 -254v-369q0 -113 12 -141t66 -37l43 -6q10 -7 8 -27t-12 -24
q-91 6 -195 6t-190 -6q-10 4 -12 23t8 28l43 6q55 7 67 35t11 143z" />
    <glyph glyph-name="iacute" unicode="&#xed;" horiz-adv-x="526" 
d="M428 1364q24 0 60 -30t36 -53t-32 -56l-256 -267q-31 -4 -35 23l176 334q27 49 51 49zM201 229v359q0 64 -7 82t-49 45l-18 12q-6 6 -6 19t8 18q123 43 211 100q16 0 20 -12q-8 -143 -8 -254v-369q0 -113 12 -141t66 -37l43 -6q10 -7 8 -27t-12 -24q-91 6 -195 6t-190 -6
q-10 4 -12 23t8 28l43 6q55 7 67 35t11 143z" />
    <glyph glyph-name="icircumflex" unicode="&#xee;" horiz-adv-x="526" 
d="M270 1143q-10 0 -28 -23l-152 -188q-10 -4 -24 3t-17 15l184 363q37 68 72 0l187 -363q-2 -8 -20 -15t-26 -3l-149 188q-17 23 -27 23zM201 229v359q0 64 -7 82t-49 45l-18 12q-6 6 -6 19t8 18q123 43 211 100q16 0 20 -12q-8 -143 -8 -254v-369q0 -113 12 -141t66 -37
l43 -6q10 -7 8 -27t-12 -24q-91 6 -195 6t-190 -6q-10 4 -12 23t8 28l43 6q55 7 67 35t11 143z" />
    <glyph glyph-name="idieresis" unicode="&#xef;" horiz-adv-x="526" 
d="M446 1028q-42 0 -72 28t-31 72t29 76q30 31 74 31t71 -30q28 -31 28 -73t-28 -73t-71 -31zM89 1028q-44 0 -72 27q-27 27 -29 73t26 76q29 31 73 31t74 -30q29 -31 29 -73t-28 -73t-73 -31zM201 229v359q0 64 -7 82t-49 45l-18 12q-6 6 -6 19t8 18q123 43 211 100
q16 0 20 -12q-8 -143 -8 -254v-369q0 -113 12 -141t66 -37l43 -6q10 -7 8 -27t-12 -24q-91 6 -195 6t-190 -6q-10 4 -12 23t8 28l43 6q55 7 67 35t11 143z" />
    <glyph glyph-name="eth" unicode="&#xf0;" horiz-adv-x="991" 
d="M520 836q121 0 199 -43q-37 188 -152 331l-268 -139q-43 18 -29 68l254 133q-188 213 -387 231q-20 29 6 47q129 -6 259 -67t229 -156l229 119q20 -4 30 -24t3 -42l-213 -110q121 -129 180 -305t60 -357q0 -258 -115 -404t-309 -146t-310 112q-114 113 -114 301
q0 187 133 319t315 132zM512 774q-116 0 -190 -99t-74 -253t66 -272t190 -117q88 0 147 60q105 107 105 307t-46 287t-198 87z" />
    <glyph glyph-name="ntilde" unicode="&#xf1;" horiz-adv-x="1075" 
d="M498 1184h110q66 0 94 13t64 67q25 12 35 -13q-20 -88 -78 -149q-37 -33 -100 -33h-109q-68 0 -104 -25t-66 -81q-8 -5 -19 -3t-16 11q6 31 30 87t46 79q45 47 113 47zM201 229v359q0 64 -7 82t-49 45l-18 12q-6 6 -6 19t8 18q41 14 109 47t96 53q16 0 22 -14
q-4 -47 -4 -96q0 -23 23 -23q168 105 288 105t179 -72t59 -182v-353q0 -113 12 -141t66 -37l45 -6q10 -7 8 -27t-12 -24q-92 6 -196 6t-187 -6q-10 4 -12 23t8 28l39 6q55 8 66 36t12 142v306q0 203 -193 202q-121 0 -174 -71q-31 -41 -31 -123v-314q0 -113 12 -141t66 -37
l37 -6q10 -7 8 -27t-12 -24q-81 6 -187 6t-192 -6q-10 4 -12 23t8 28l43 6q55 7 67 35t11 143z" />
    <glyph glyph-name="ograve" unicode="&#xf2;" horiz-adv-x="995" 
d="M252 1258q0 22 39 55q43 29 69 29t48 -48l161 -329q0 -11 -15 -19t-28 -6l-239 260q-35 36 -35 58zM510 33q126 -1 182 103t56 250t-66 268q-66 120 -199 120q-104 0 -170 -94q-65 -94 -65 -254t68 -276t194 -117zM504 836q180 0 300 -119t120 -309t-121 -313
q-121 -124 -306 -124t-306 117q-119 117 -119 306q0 190 126 316t306 126z" />
    <glyph glyph-name="oacute" unicode="&#xf3;" horiz-adv-x="995" 
d="M642 1343q24 1 60 -29t36 -54t-33 -56l-256 -266q-31 -4 -35 23l176 333q28 49 52 49zM510 33q126 -1 182 103t56 250t-66 268q-66 120 -199 120q-104 0 -170 -94q-65 -94 -65 -254t68 -276t194 -117zM504 836q180 0 300 -119t120 -309t-121 -313q-121 -124 -306 -124
t-306 117q-119 117 -119 306q0 190 126 316t306 126z" />
    <glyph glyph-name="ocircumflex" unicode="&#xf4;" horiz-adv-x="995" 
d="M490 1143q-10 0 -27 -23l-152 -188q-10 -4 -24 3t-17 15l185 363q37 68 71 0l187 -363q-1 -8 -19 -15t-26 -3l-150 188q-18 23 -28 23zM510 33q126 -1 182 103t56 250t-66 268q-66 120 -199 120q-104 0 -170 -94q-65 -94 -65 -254t68 -276t194 -117zM504 836
q180 0 300 -119t120 -309t-121 -313q-121 -124 -306 -124t-306 117q-119 117 -119 306q0 190 126 316t306 126z" />
    <glyph glyph-name="otilde" unicode="&#xf5;" horiz-adv-x="995" 
d="M446 1167h109q63 -1 91 13t63 65q25 12 34 -12q-20 -86 -75 -146q-37 -33 -101 -32h-106q-66 0 -101 -24t-65 -81q-7 -6 -19 -3t-16 11q6 31 30 86t46 76q40 47 110 47zM510 33q126 -1 182 103t56 250t-66 268q-66 120 -199 120q-104 0 -170 -94q-65 -94 -65 -254
t68 -276t194 -117zM504 836q180 0 300 -119t120 -309t-121 -313q-121 -124 -306 -124t-306 117q-119 117 -119 306q0 190 126 316t306 126z" />
    <glyph glyph-name="odieresis" unicode="&#xf6;" horiz-adv-x="995" 
d="M666 1028q-43 0 -73 28t-31 72t29 76q30 31 74 31q43 0 71 -30q28 -31 28 -73t-28 -73t-70 -31zM308 1028q-44 0 -72 27t-29 73q-2 46 26 76q29 31 73 31t74 -30q30 -31 30 -73t-29 -73t-73 -31zM510 33q126 -1 182 103t56 250t-66 268q-66 120 -199 120q-104 0 -170 -94
q-65 -94 -65 -254t68 -276t194 -117zM504 836q180 0 300 -119t120 -309t-121 -313q-121 -124 -306 -124t-306 117q-119 117 -119 306q0 190 126 316t306 126z" />
    <glyph glyph-name="divide" unicode="&#xf7;" horiz-adv-x="1024" 
d="M907 471v-100h-788v100h788zM507 580q-38 0 -65 26q-26 26 -26 65t26 65t64 26q36 0 64 -27t28 -63t-26 -64t-65 -28zM506 262q36 0 64 -26t28 -64q0 -36 -27 -64t-65 -28t-64 26t-26 65q0 38 26 65q27 26 64 26z" />
    <glyph glyph-name="oslash" unicode="&#xf8;" horiz-adv-x="995" 
d="M924 422q0 -202 -121 -327q-121 -124 -311 -124q-125 0 -220 58l-75 -113q-42 -4 -54 45l74 107q-145 115 -145 315q0 201 126 327t310 126q113 0 205 -52l69 101q18 1 37 -11t21 -28l-70 -101q154 -121 154 -323zM524 33q116 0 172 102q57 103 57 249t-57 255l-362 -520
q74 -86 190 -86zM478 774q-104 0 -170 -94t-66 -248t53 -252l358 518q-71 76 -175 76z" />
    <glyph glyph-name="ugrave" unicode="&#xf9;" horiz-adv-x="1048" 
d="M248 1264q0 22 39 55q43 29 68 29t48 -48l162 -329q0 -11 -15 -19t-28 -6l-239 260q-35 36 -35 58zM326 643v-342q0 -117 41 -176t142 -59t173 61q41 37 41 119v336q0 116 -27 137q-12 10 -49 24l-26 11q-10 6 -11 22q0 16 13 23q168 4 239 37q16 -4 19 -15
q-6 -57 -7 -178v-344q0 -131 12 -177t48 -46q37 0 84 10q10 -8 10 -31t-12 -28q-209 -43 -268 -76q-18 0 -25 14v84q0 29 -18 29q-168 -106 -291 -106q-124 0 -182 62q-58 64 -58 193v342q0 102 -8 129t-53 45l-25 11q-10 8 -8 24t12 21q125 2 219 37q18 -2 21 -15
q-6 -53 -6 -178z" />
    <glyph glyph-name="uacute" unicode="&#xfa;" horiz-adv-x="1048" 
d="M664 1360q24 0 60 -30t36 -53t-33 -56l-256 -267q-31 -4 -35 23l176 334q27 49 52 49zM326 643v-342q0 -117 41 -176t142 -59t173 61q41 37 41 119v336q0 116 -27 137q-12 10 -49 24l-26 11q-10 6 -11 22q0 16 13 23q168 4 239 37q16 -4 19 -15q-6 -57 -7 -178v-344
q0 -131 12 -177t48 -46q37 0 84 10q10 -8 10 -31t-12 -28q-209 -43 -268 -76q-18 0 -25 14v84q0 29 -18 29q-168 -106 -291 -106q-124 0 -182 62q-58 64 -58 193v342q0 102 -8 129t-53 45l-25 11q-10 8 -8 24t12 21q125 2 219 37q18 -2 21 -15q-6 -53 -6 -178z" />
    <glyph glyph-name="ucircumflex" unicode="&#xfb;" horiz-adv-x="1048" 
d="M684 952l-149 189q-17 23 -27 23t-29 -23l-151 -189q-10 -4 -24 3t-17 16l184 362q37 68 72 0l186 -362q-1 -7 -19 -15t-26 -4zM326 643v-342q0 -117 41 -176t142 -59t173 61q41 37 41 119v336q0 116 -27 137q-12 10 -49 24l-26 11q-10 6 -11 22q0 16 13 23q168 4 239 37
q16 -4 19 -15q-6 -57 -7 -178v-344q0 -131 12 -177t48 -46q37 0 84 10q10 -8 10 -31t-12 -28q-209 -43 -268 -76q-18 0 -25 14v84q0 29 -18 29q-168 -106 -291 -106q-124 0 -182 62q-58 64 -58 193v342q0 102 -8 129t-53 45l-25 11q-10 8 -8 24t12 21q125 2 219 37
q18 -2 21 -15q-6 -53 -6 -178z" />
    <glyph glyph-name="udieresis" unicode="&#xfc;" horiz-adv-x="1048" 
d="M688 1028q-43 0 -73 28q-31 28 -31 72t29 76q30 31 74 31t72 -30q27 -31 27 -73t-28 -73t-70 -31zM329 1235q43 0 73 -30q30 -31 30 -73t-28 -73t-73 -31q-44 0 -72 27t-30 73t27 76q29 31 73 31zM326 643v-342q0 -117 41 -176t142 -59t173 61q41 37 41 119v336
q0 116 -27 137q-12 10 -49 24l-26 11q-10 6 -11 22q0 16 13 23q168 4 239 37q16 -4 19 -15q-6 -57 -7 -178v-344q0 -131 12 -177t48 -46q37 0 84 10q10 -8 10 -31t-12 -28q-209 -43 -268 -76q-18 0 -25 14v84q0 29 -18 29q-168 -106 -291 -106q-124 0 -182 62
q-58 64 -58 193v342q0 102 -8 129t-53 45l-25 11q-10 8 -8 24t12 21q125 2 219 37q18 -2 21 -15q-6 -53 -6 -178z" />
    <glyph glyph-name="yacute" unicode="&#xfd;" horiz-adv-x="897" 
d="M662 1343q24 1 60 -29t36 -54t-33 -56l-256 -266q-31 -4 -35 23l176 333q28 49 52 49zM139 -510q-43 0 -67 25t-23 63q0 38 24 61q24 22 58 21h39q45 0 68 37q136 214 138 320q0 38 -34 137l-160 438q-23 63 -31 85q-9 21 -32 45t-58 30l-51 10q-10 8 -8 28t14 23
q98 -6 186 -6t187 6q12 -4 13 -23t-9 -28l-51 -10q-45 -10 -45 -27q0 -25 59 -193l66 -188q53 -143 59 -145q12 8 76 151l70 162q71 170 71 201t-49 39l-63 10q-10 8 -9 28t13 23q98 -6 174 -6t162 6q12 -7 13 -25t-9 -26l-35 -6q-49 -8 -84 -54t-90 -163l-115 -236
q-156 -317 -336 -717q-43 -96 -131 -96z" />
    <glyph glyph-name="thorn" unicode="&#xfe;" horiz-adv-x="1021" 
d="M309 559v-352q1 -43 15 -68t49 -51q61 -49 165 -49t176 100q70 101 70 249t-72 249q-73 100 -199 100t-179 -57q-25 -31 -25 -121zM309 -78v-215q-1 -113 11 -139t67 -35l80 -10q10 -7 8 -27t-12 -24q-147 6 -241 6t-181 -6q-10 4 -12 23t8 28l43 6q55 8 66 36t12 142
v1407q0 92 -10 118t-54 52l-20 12q-8 4 -8 20t11 22q11 5 85 30t135 55q14 0 20 -12q-8 -143 -8 -254v-391q0 -27 15 -27q4 2 67 37q102 57 219 60q152 0 246 -106t94 -263q0 -217 -139 -356t-354 -140q-82 0 -119 9q-29 -7 -29 -58z" />
    <glyph glyph-name="ydieresis" unicode="&#xff;" horiz-adv-x="897" 
d="M672 1028q-43 0 -73 28t-31 72t29 76q30 31 74 31q43 0 71 -30q28 -31 28 -73t-28 -73t-70 -31zM314 1028q-44 0 -72 27t-29 73q-2 46 27 76q28 31 72 31t74 -30q30 -31 30 -73t-29 -73t-73 -31zM139 -510q-43 0 -67 25t-23 63q0 38 24 61q24 22 58 21h39q45 0 68 37
q136 214 138 320q0 38 -34 137l-160 438q-23 63 -31 85q-9 21 -32 45t-58 30l-51 10q-10 8 -8 28t14 23q98 -6 186 -6t187 6q12 -4 13 -23t-9 -28l-51 -10q-45 -10 -45 -27q0 -25 59 -193l66 -188q53 -143 59 -145q12 8 76 151l70 162q71 170 71 201t-49 39l-63 10
q-10 8 -9 28t13 23q98 -6 174 -6t162 6q12 -7 13 -25t-9 -26l-35 -6q-49 -8 -84 -54t-90 -163l-115 -236q-156 -317 -336 -717q-43 -96 -131 -96z" />
    <glyph glyph-name="Amacron" unicode="&#x100;" horiz-adv-x="1275" 
d="M888 1537q0 -38 -18 -58h-450q-16 20 -17 58q0 38 17 58h450q18 -20 18 -58zM471 608h252q45 0 52 12t-7 52l-111 334q-35 104 -47 129h-4q-12 -21 -49 -121l-129 -357q-12 -35 -6 -42t49 -7zM750 526h-310q-39 0 -53 -8t-25 -41l-71 -215q-45 -135 -45 -171t59 -40
l68 -6q10 -9 10 -27t-14 -24q-141 10 -410 0q-10 6 -11 24t7 27l68 6q86 8 122 101q10 29 47 115t134 341l209 553q41 109 34 146q53 16 107 77q25 0 31 -18q23 -76 90 -274l280 -824q45 -131 77 -170t97 -47l56 -6q10 -9 9 -27t-9 -24q-127 6 -216 6t-268 -6q-12 6 -13 24
t9 27l60 6q72 6 71 37q1 29 -26 109l-90 278q-10 35 -24 43t-60 8z" />
    <glyph glyph-name="amacron" unicode="&#x101;" horiz-adv-x="827" 
d="M630 1123q0 -37 -14 -60h-417q-17 23 -17 59t17 58h417q14 -20 14 -57zM229 194q0 -47 31 -89t98 -42q29 -1 69 17q39 18 59 38t24 93l4 121q0 27 -20 26q-22 0 -102 -26t-122 -59q-42 -32 -41 -79zM457 836q221 0 213 -240l-13 -356q-8 -178 95 -179q28 -1 52 13t25 14
q14 0 15 -27q0 -5 -20 -27t-64 -42q-43 -20 -88 -21q-84 0 -133 64q-18 29 -33 28q-6 1 -90 -45t-137 -47q-91 0 -149 52t-58 126t37 113t133 74l243 88q35 12 35 59l2 95q4 178 -149 178q-49 0 -89 -24t-43 -74t-20 -64q-49 -39 -117 -39q-29 0 -28 29q0 78 133 165t248 87
z" />
    <glyph glyph-name="Abreve" unicode="&#x102;" horiz-adv-x="1275" 
d="M659 1464q-250 0 -243 262q8 8 28 8t29 -8q35 -135 187 -135t188 135q8 8 28 8t27 -8q6 -262 -244 -262zM471 608h252q45 0 52 12t-7 52l-111 334q-35 104 -47 129h-4q-12 -21 -49 -121l-129 -357q-12 -35 -6 -42t49 -7zM750 526h-310q-39 0 -53 -8t-25 -41l-71 -215
q-45 -135 -45 -171t59 -40l68 -6q10 -9 10 -27t-14 -24q-141 10 -410 0q-10 6 -11 24t7 27l68 6q86 8 122 101q10 29 47 115t134 341l209 553q41 109 34 146q53 16 107 77q25 0 31 -18q23 -76 90 -274l280 -824q45 -131 77 -170t97 -47l56 -6q10 -9 9 -27t-9 -24
q-127 6 -216 6t-268 -6q-12 6 -13 24t9 27l60 6q72 6 71 37q1 29 -26 109l-90 278q-10 35 -24 43t-60 8z" />
    <glyph glyph-name="abreve" unicode="&#x103;" horiz-adv-x="827" 
d="M410 1016q-109 0 -165 68t-48 200q8 6 22 6t23 -6q16 -76 64 -114t104 -38t103 38q48 38 67 114q6 6 20 6t25 -6q6 -132 -50 -200t-165 -68zM229 194q0 -47 31 -89t98 -42q29 -1 69 17q39 18 59 38t24 93l4 121q0 27 -20 26q-22 0 -102 -26t-122 -59q-42 -32 -41 -79z
M457 836q221 0 213 -240l-13 -356q-8 -178 95 -179q28 -1 52 13t25 14q14 0 15 -27q0 -5 -20 -27t-64 -42q-43 -20 -88 -21q-84 0 -133 64q-18 29 -33 28q-6 1 -90 -45t-137 -47q-91 0 -149 52t-58 126t37 113t133 74l243 88q35 12 35 59l2 95q4 178 -149 178q-49 0 -89 -24
t-43 -74t-20 -64q-49 -39 -117 -39q-29 0 -28 29q0 78 133 165t248 87z" />
    <glyph glyph-name="Aogonek" unicode="&#x104;" horiz-adv-x="1275" 
d="M1012 -233q0 -123 135 -123q47 0 92 24q16 -10 16 -35q-72 -90 -208 -90q-82 0 -133 49q-50 50 -50 120t60 150t163 136q-182 0 -264 -4q-12 6 -13 24t9 27l60 6q72 6 71 37q0 29 -26 109l-90 278q-10 35 -24 43t-60 8h-310q-39 0 -53 -8t-25 -41l-71 -215
q-45 -135 -45 -171t59 -40l68 -6q10 -9 10 -27t-14 -24q-141 10 -410 0q-10 6 -11 24t7 27l68 6q86 8 122 101q10 29 47 115t134 341l209 553q41 109 34 146q53 16 107 77q25 0 31 -18q23 -76 90 -274l280 -824q45 -131 77 -170t97 -47l56 -6q10 -9 9 -27t-9 -24l-117 6h-23
q-75 -50 -115 -114t-40 -119zM471 608h252q45 0 52 12t-7 52l-111 334q-35 104 -47 129h-4q-12 -20 -49 -121l-129 -357q-12 -35 -6 -42t49 -7z" />
    <glyph glyph-name="aogonek" unicode="&#x105;" horiz-adv-x="827" 
d="M457 836q221 0 213 -240l-13 -356q-8 -178 95 -179q28 -1 52 13t25 14q14 0 15 -27q0 -8 -56 -59q-125 -109 -124 -229q0 -49 26 -77t77 -28q50 0 89 29q18 -6 18 -31q-72 -94 -186 -94q-82 0 -125 46t-43 101q0 119 174 254q-12 -2 -22 -2q-84 0 -133 64q-18 29 -33 28
q-6 1 -90 -45t-137 -47q-91 0 -149 52t-58 126t37 113t133 74l243 88q35 12 35 59l2 95q4 178 -149 178q-49 0 -89 -24t-43 -74t-20 -64q-49 -39 -117 -39q-29 0 -28 29q0 78 133 165t248 87zM229 194q0 -47 31 -89t98 -42q29 -1 69 17q39 18 59 38t24 93l4 121q0 27 -20 26
q-22 0 -102 -26t-122 -59q-42 -32 -41 -79z" />
    <glyph glyph-name="Cacute" unicode="&#x106;" horiz-adv-x="1425" 
d="M1104 1593l-342 -147q-30 10 -21 49l289 234q39 29 55 28q33 0 59 -49t13 -82q-14 -17 -53 -33zM90 668q0 166 70 308t188 234q223 174 553 174q184 0 363 -49q41 -10 57 -8q6 -123 29 -301q-8 -10 -26 -12t-30 8q-66 299 -420 299q-250 0 -414 -160t-165 -467
q0 -307 173 -485t435 -178q176 0 280 88q103 88 148 205q11 8 29 5t24 -14q-10 -77 -42 -163t-56 -117q-29 -3 -71 -19t-139 -32t-185 -17q-305 0 -510 137q-291 202 -291 564z" />
    <glyph glyph-name="cacute" unicode="&#x107;" horiz-adv-x="819" 
d="M602 1329q24 0 61 -30q36 -30 36 -53t-33 -56l-256 -266q-31 -4 -35 22l176 334q27 49 51 49zM569 836q104 0 183 -35q30 -27 30 -69t-13 -66t-31 -23q-18 0 -29 14q-88 109 -204 109t-200 -88t-84 -232t88 -252q89 -108 237 -108t232 123q12 4 24 -5t13 -24
q-49 -104 -145 -156t-197 -53q-175 0 -287 110t-112 296q0 187 128 323t367 136z" />
    <glyph glyph-name="Ccaron" unicode="&#x10c;" horiz-adv-x="1425" 
d="M815 1460l-254 221q0 11 9 25t22 14l233 -112q21 -12 31 -12t35 12l235 112q23 -4 23 -39l-250 -221q-43 -37 -84 0zM90 668q0 166 70 308t188 234q223 174 553 174q184 0 363 -49q41 -10 57 -8q6 -123 29 -301q-8 -10 -26 -12t-30 8q-66 299 -420 299q-250 0 -414 -160
t-165 -467q0 -307 173 -485t435 -178q176 0 280 88q103 88 148 205q11 8 29 5t24 -14q-10 -77 -42 -163t-56 -117q-29 -3 -71 -19t-139 -32t-185 -17q-305 0 -510 137q-291 202 -291 564z" />
    <glyph glyph-name="ccaron" unicode="&#x10d;" horiz-adv-x="819" 
d="M313 1362l154 -191q27 -35 55 0l154 191q10 2 22 -5t15 -22l-185 -362q-33 -66 -67 0l-189 362q2 27 41 27zM569 836q104 0 183 -35q30 -27 30 -69t-13 -66t-31 -23q-18 0 -29 14q-88 109 -204 109t-200 -88t-84 -232t88 -252q89 -108 237 -108t232 123q12 4 24 -5
t13 -24q-49 -104 -145 -156t-197 -53q-175 0 -287 110t-112 296q0 187 128 323t367 136z" />
    <glyph glyph-name="Dcaron" unicode="&#x10e;" horiz-adv-x="1597" 
d="M666 1460l-254 221q0 11 9 25t21 14l234 -112q20 -12 30 -12t35 12l236 112q23 -4 22 -39l-249 -221q-41 -37 -84 0zM430 1110v-756q0 -166 41 -223q59 -84 252 -84q289 0 432 172t143 464t-185 464q-69 63 -187 105t-278 42q-159 0 -197 -28q-21 -17 -21 -156zM686 -16
l-375 16q-70 0 -215 -6q-10 4 -11 22t7 29l47 6q88 12 106 51q17 39 17 205v778q0 113 -17 152t-79 47l-45 6q-12 8 -12 26t14 25q279 17 539 17q537 1 735 -296q106 -161 106 -364q0 -202 -92 -362t-270 -256t-455 -96z" />
    <glyph glyph-name="dcaron" unicode="&#x10f;" horiz-adv-x="1042" 
d="M975 1372q0 20 41 56t85 36t44 -102t-48 -202t-108 -144q-18 -6 -30 7q-11 13 -3 28q68 115 68 196q0 37 -31 76q-18 29 -18 49zM717 203v403q0 47 -23 80q-61 86 -183 86t-197 -99q-74 -99 -74 -245t81 -252t224 -106q100 0 157 57q15 15 15 76zM868 1198v-899
q0 -137 10 -187t50 -51q27 0 88 21q12 -4 12 -31t-14 -35q-162 -23 -271 -65q-23 0 -22 16v35q0 55 -4 64h-8q-137 -94 -258 -95q-168 0 -274 114q-105 114 -105 280q0 211 141 341t354 130q86 0 138 -19q12 0 12 29v309q0 92 -9 118t-55 52l-20 12q-8 5 -8 21t8 20
q147 47 221 86q14 0 20 -12q-6 -184 -6 -254z" />
    <glyph glyph-name="Dcroat" unicode="&#x110;" horiz-adv-x="1609" 
d="M430 1110v-371h295q14 -10 14 -36t-14 -35h-295v-314q0 -166 41 -223q59 -84 252 -84q289 0 432 172t143 469q0 171 -72 308q-44 84 -113 148t-187 107t-278 43q-159 0 -197 -28q-21 -17 -21 -156zM686 -16l-375 16q-70 0 -215 -6q-10 4 -11 22t7 29l47 6q88 12 106 51
q17 39 17 205v361h-184q-14 10 -14 36t14 35h184v295q0 150 -17 200t-89 58l-35 4q-12 6 -12 24t14 26q348 12 522 12q281 0 442 -60q203 -74 310 -234q106 -161 106 -365q0 -203 -92 -363t-270 -256t-455 -96z" />
    <glyph glyph-name="dcroat" unicode="&#x111;" horiz-adv-x="1042" 
d="M1014 1155v-80h-146v-776q0 -137 10 -187t50 -51q27 0 88 21q12 -4 12 -31t-14 -35q-162 -23 -271 -65q-23 0 -22 16v35q0 55 -4 64h-8q-137 -94 -258 -95q-168 0 -274 114q-105 114 -105 280q0 211 141 341t354 130q86 0 138 -19q12 0 12 29v229h-236v80h236
q0 92 -10 118t-54 52l-20 12q-8 5 -8 21t8 20q147 47 221 86q14 0 20 -12q-6 -184 -6 -254v-43h146zM717 203v403q0 47 -23 80q-61 86 -183 86t-197 -99q-74 -99 -74 -245t81 -252t224 -106q100 0 157 57q15 15 15 76z" />
    <glyph glyph-name="Emacron" unicode="&#x112;" horiz-adv-x="1196" 
d="M373 1537q0 38 16 58h451q18 -20 18 -58t-18 -58h-451q-16 20 -16 58zM498 668q-48 0 -58 -8t-10 -48v-288q0 -172 43 -216t244 -44t263 32q62 33 144 197q10 8 28 4t24 -18q-33 -160 -93 -285q-276 6 -548 6h-185q-96 0 -278 -6q-10 4 -12 22q-1 18 8 29l67 6
q86 8 107 50q20 42 20 206v737q0 166 -18 207t-107 52l-33 4q-8 6 -7 26t12 25q133 -6 241 -6h385q252 0 277 6q10 -31 32 -273q-6 -10 -24 -11t-27 7q-14 43 -18 57t-19 44q-31 69 -117 92q-52 14 -200 14h-147q-46 0 -54 -11t-8 -71v-409q0 -41 10 -49t58 -9h118
q136 1 174 13t50 71l16 84q8 10 28 9t25 -11l-8 -207l8 -196q-6 -10 -25 -12t-28 10l-18 80q-14 66 -64 77q-37 10 -158 11h-118z" />
    <glyph glyph-name="emacron" unicode="&#x113;" horiz-adv-x="811" 
d="M246 1098q0 38 16 55h400q14 -17 14 -55t-14 -56h-400q-16 18 -16 56zM248 586h145q186 0 213 20q12 8 12 49t-37 80q-38 39 -121 39t-154 -61t-73 -117q1 -10 15 -10zM645 524h-379q-39 0 -47 -8t-8 -47q0 -163 91 -273t249 -110q109 0 188 100q33 10 37 -24
q-47 -96 -138 -144t-183 -47q-195 0 -297 135q-86 112 -86 286t116 308t295 136q127 0 209 -74t82 -170q0 -36 -8 -52t-121 -16z" />
    <glyph glyph-name="Edotaccent" unicode="&#x116;" horiz-adv-x="1196" 
d="M630 1448q-48 0 -78 29t-32 77t30 81q32 32 79 32t79 -32q32 -31 32 -77t-32 -78q-30 -32 -78 -32zM498 668q-48 0 -58 -8t-10 -48v-288q0 -172 43 -216t244 -44t263 32q62 33 144 197q10 8 28 4t24 -18q-33 -160 -93 -285q-276 6 -548 6h-185q-96 0 -278 -6
q-10 4 -12 22q-1 18 8 29l67 6q86 8 107 50q20 42 20 206v737q0 166 -18 207t-107 52l-33 4q-8 6 -7 26t12 25q133 -6 241 -6h385q252 0 277 6q10 -31 32 -273q-6 -10 -24 -11t-27 7q-14 43 -18 57t-19 44q-31 69 -117 92q-52 14 -200 14h-147q-46 0 -54 -11t-8 -71v-409
q0 -41 10 -49t58 -9h118q136 1 174 13t50 71l16 84q8 10 28 9t25 -11l-8 -207l8 -196q-6 -10 -25 -12t-28 10l-18 80q-14 66 -64 77q-37 10 -158 11h-118z" />
    <glyph glyph-name="edotaccent" unicode="&#x117;" horiz-adv-x="811" 
d="M474 1237q46 0 73 -31t27 -79q0 -47 -30 -73t-76 -26t-74 29t-28 75t31 75q31 30 77 30zM248 586h145q186 0 213 20q12 8 12 49t-37 80q-38 39 -121 39t-154 -61t-73 -117q1 -10 15 -10zM645 524h-379q-39 0 -47 -8t-8 -47q0 -163 91 -273t249 -110q109 0 188 100
q33 10 37 -24q-47 -96 -138 -144t-183 -47q-195 0 -297 135q-86 112 -86 286t116 308t295 136q127 0 209 -74t82 -170q0 -36 -8 -52t-121 -16z" />
    <glyph glyph-name="Eogonek" unicode="&#x118;" horiz-adv-x="1196" 
d="M498 668q-48 0 -58 -8t-10 -48v-288q0 -172 43 -216t244 -44t263 32q62 33 144 197q10 8 28 4t24 -18q-33 -160 -93 -285q-37 0 -63 2q-70 -50 -107 -110t-36 -107q0 -123 133 -123q51 0 90 20q16 -10 16 -34q-70 -86 -211 -86q-76 0 -128 48t-52 122q0 154 225 270
q-279 4 -415 4h-185q-96 0 -278 -6q-10 4 -12 22q-1 18 8 29l67 6q86 8 107 50q20 42 20 206v737q0 166 -18 207t-107 52l-33 4q-8 6 -7 26t12 25q133 -6 241 -6h385q252 0 277 6q10 -31 32 -273q-6 -10 -24 -11t-27 7q-14 43 -18 57t-19 44q-31 69 -117 92q-52 14 -200 14
h-147q-46 0 -54 -11t-8 -71v-409q0 -41 10 -49t58 -9h118q136 1 174 13t50 71l16 84q8 10 28 9t25 -11l-8 -207l8 -196q-6 -10 -25 -12t-28 10l-18 80q-14 66 -64 77q-37 10 -158 11h-118z" />
    <glyph glyph-name="eogonek" unicode="&#x119;" horiz-adv-x="811" 
d="M461 -29q-201 0 -303 135q-86 112 -86 286t116 309t295 135q127 0 209 -74t82 -170q0 -37 -8 -52t-121 -16h-379q-39 0 -47 -8t-8 -47q0 -163 91 -273t249 -110q104 0 188 100q33 10 37 -24q-23 -39 -117 -133q-158 -152 -157 -273q0 -40 24 -64t74 -24q49 0 88 29
q18 -6 19 -31q-72 -94 -191 -94q-66 0 -110 43t-46 102q0 59 43 121t160 150q-42 -17 -102 -17zM248 586h145q186 0 213 20q12 8 12 49t-37 80q-38 39 -121 39t-154 -61t-73 -117q1 -10 15 -10z" />
    <glyph glyph-name="Ecaron" unicode="&#x11a;" horiz-adv-x="1196" 
d="M582 1460l-252 232q0 14 8 27t20 14l234 -117q20 -12 30 -11t35 11l238 117q23 -4 23 -41l-250 -232q-41 -39 -86 0zM498 668q-48 0 -58 -8t-10 -48v-288q0 -172 43 -216t244 -44t263 32q62 33 144 197q10 8 28 4t24 -18q-33 -160 -93 -285q-276 6 -548 6h-185
q-96 0 -278 -6q-10 4 -12 22q-1 18 8 29l67 6q86 8 107 50q20 42 20 206v737q0 166 -18 207t-107 52l-33 4q-8 6 -7 26t12 25q133 -6 241 -6h385q252 0 277 6q10 -31 32 -273q-6 -10 -24 -11t-27 7q-14 43 -18 57t-19 44q-31 69 -117 92q-52 14 -200 14h-147q-46 0 -54 -11
t-8 -71v-409q0 -41 10 -49t58 -9h118q136 1 174 13t50 71l16 84q8 10 28 9t25 -11l-8 -207l8 -196q-6 -10 -25 -12t-28 10l-18 80q-14 66 -64 77q-37 10 -158 11h-118z" />
    <glyph glyph-name="ecaron" unicode="&#x11b;" horiz-adv-x="811" 
d="M283 1358l153 -191q27 -35 56 0l153 191q11 2 23 -5t14 -22l-184 -362q-33 -66 -68 0l-188 362q2 27 41 27zM248 586h145q186 0 213 20q12 8 12 49t-37 80q-38 39 -121 39t-154 -61t-73 -117q1 -10 15 -10zM645 524h-379q-39 0 -47 -8t-8 -47q0 -163 91 -273t249 -110
q109 0 188 100q33 10 37 -24q-47 -96 -138 -144t-183 -47q-195 0 -297 135q-86 112 -86 286t116 308t295 136q127 0 209 -74t82 -170q0 -36 -8 -52t-121 -16z" />
    <glyph glyph-name="Gbreve" unicode="&#x11e;" horiz-adv-x="1529" 
d="M827 1485q-250 0 -243 262q8 8 28 8t29 -8q35 -133 187 -133t188 133q8 8 27 8t28 -8q6 -262 -244 -262zM1327 324v-115q0 -127 49 -146q12 -12 -2 -24q-31 0 -100 -19q-201 -53 -367 -53q-399 0 -624 228q-189 189 -189 471t185 479q229 240 649 239q128 0 246 -26
t141 -23q0 -92 31 -297q-4 -12 -26 -14t-30 8q-41 158 -146 224t-274 67q-281 0 -426 -170t-145 -420q0 -309 159 -506t455 -196q186 0 226 61q20 29 20 117v82q0 129 -19 159t-114 39l-90 11q-12 6 -11 26t11 25q90 -6 249 -6t261 6q10 -5 11 -23t-9 -28l-33 -4
q-59 -6 -73 -43t-15 -129z" />
    <glyph glyph-name="gbreve" unicode="&#x11f;" horiz-adv-x="913" 
d="M451 987q-109 0 -165 68t-48 200q8 7 22 7t23 -7q16 -75 64 -113q47 -38 103 -38t104 38t67 113q6 7 20 7t25 -7q6 -133 -50 -201t-165 -67zM446 307q78 1 122 59t44 162t-46 176t-129 72t-131 -63t-48 -167t55 -172q55 -67 133 -67zM555 -66h-70q-141 0 -176 -22
q-98 -60 -98 -160t71 -158q72 -58 204 -57q132 0 217 65t85 154q0 178 -233 178zM414 -551q-188 0 -273 73q-84 73 -84 165q-1 49 21 72t74 73t67 68q37 37 17 49q-61 16 -106 62q-44 46 -44 100q0 11 41 39t98 90q20 25 21 39q-154 82 -154 247q0 131 98 220q98 90 218 90
t206 -37t134 -37h165q19 -8 15 -45t-27 -39h-147q4 -34 4 -98q0 -122 -74 -222q-38 -50 -108 -80t-162 -30q-16 0 -90 6q-90 -53 -91 -113q0 -37 37 -61t107 -25l244 6q287 0 286 -225q-1 -164 -153 -276t-340 -111z" />
    <glyph glyph-name="Gcommaaccent" unicode="&#x122;" horiz-adv-x="1529" 
d="M846 -119q45 0 88 -45t43 -125q0 -193 -225 -262q-12 6 -15 32q-2 26 4 32q47 16 88 53t41 82t-19 61q-37 31 -67 43q-30 16 -30 49t23 57q24 23 69 23zM1327 324v-115q0 -127 49 -146q12 -12 -2 -24q-31 0 -100 -19q-201 -53 -367 -53q-399 0 -624 228
q-189 189 -189 471t185 479q229 240 649 239q128 0 246 -26t141 -23q0 -92 31 -297q-4 -12 -26 -14t-30 8q-41 158 -146 224t-274 67q-281 0 -426 -170t-145 -420q0 -309 159 -506t455 -196q186 0 226 61q20 29 20 117v82q0 129 -19 159t-114 39l-90 11q-12 6 -11 26t11 25
q90 -6 249 -6t261 6q10 -5 11 -23t-9 -28l-33 -4q-59 -6 -73 -43t-15 -129z" />
    <glyph glyph-name="gcommaaccent" unicode="&#x123;" horiz-adv-x="913" 
d="M553 1090q-1 -30 -23 -52t-71 -22t-89 38t-40 101q0 182 225 244q12 -3 15 -23t-5 -26q-43 -12 -82 -46t-39 -74q0 -55 52 -78q6 -3 16 -9l12 -4q29 -18 29 -49zM446 307q78 1 122 59t44 162t-46 176t-129 72t-131 -63t-48 -167t55 -172q55 -67 133 -67zM555 -66h-70
q-141 0 -176 -22q-98 -60 -98 -160t71 -158q72 -58 204 -57q132 0 217 65t85 154q0 178 -233 178zM414 -551q-188 0 -273 73q-84 73 -84 165q-1 49 21 72t74 73t67 68q37 37 17 49q-61 16 -106 62q-44 46 -44 100q0 11 41 39t98 90q20 25 21 39q-154 82 -154 247
q0 131 98 220q98 90 218 90t206 -37t134 -37h165q19 -8 15 -45t-27 -39h-147q4 -34 4 -98q0 -122 -74 -222q-38 -50 -108 -80t-162 -30q-16 0 -90 6q-90 -53 -91 -113q0 -37 37 -61t107 -25l244 6q287 0 286 -225q-1 -164 -153 -276t-340 -111z" />
    <glyph glyph-name="Imacron" unicode="&#x12a;" horiz-adv-x="692" 
d="M123 1537q0 38 14 58h430q16 -20 16 -58t-16 -58h-430q-14 20 -14 58zM262 311v729q0 170 -18 212t-107 51l-51 4q-8 6 -7 26t11 25q154 -6 256 -6t256 6q10 -4 11 -24t-7 -27l-51 -4q-88 -9 -106 -51t-19 -212v-729q0 -168 18 -209t107 -51l51 -6q8 -7 7 -27t-11 -24
q-154 6 -256 6t-256 -6q-10 4 -11 22t7 29l51 6q88 10 107 51q18 41 18 209z" />
    <glyph glyph-name="imacron" unicode="&#x12b;" horiz-adv-x="526" 
d="M43 1114q0 41 16 64h418q14 -23 14 -64t-14 -61h-418q-16 20 -16 61zM201 229v359q0 64 -7 82t-49 45l-18 12q-6 6 -6 19t8 18q123 43 211 100q16 0 20 -12q-8 -143 -8 -254v-369q0 -113 12 -141t66 -37l43 -6q10 -7 8 -27t-12 -24q-91 6 -195 6t-190 -6q-10 4 -12 23
t8 28l43 6q55 7 67 35t11 143z" />
    <glyph glyph-name="Iogonek" unicode="&#x12e;" horiz-adv-x="692" 
d="M262 311v729q0 170 -18 212t-107 51l-51 4q-8 6 -7 26t11 25q154 -6 256 -6t256 6q10 -4 11 -24t-7 -27l-51 -4q-88 -9 -106 -51t-19 -212v-729q0 -168 18 -209t107 -51l51 -6q8 -7 7 -27t-11 -24q-92 6 -170 6h-6q-100 -98 -100 -193q0 -131 137 -131q53 0 94 23
q16 -10 16 -35q-78 -96 -215 -96q-82 0 -133 49t-51 127q0 125 180 254q-186 0 -264 -4q-10 4 -11 22t7 29l51 6q88 10 107 51q18 41 18 209z" />
    <glyph glyph-name="iogonek" unicode="&#x12f;" horiz-adv-x="526" 
d="M201 229v359q0 64 -7 82t-49 45l-18 12q-6 6 -6 19t8 18q123 43 211 100q16 0 20 -12q-8 -143 -8 -254v-369q0 -113 12 -141t66 -37l43 -6q10 -7 8 -27t-12 -24q-92 6 -147 6q-76 -98 -76 -188q0 -127 133 -127q53 0 92 20q16 -10 16 -35q-80 -98 -202 -98q-80 0 -127 48
t-47 128q0 111 149 250q-94 0 -176 -4q-10 4 -12 23t8 28l43 6q55 7 67 35t11 143zM267 1278q46 0 75 -31t29 -80t-31 -75t-78 -27q-47 0 -76 30q-28 29 -28 75t31 77q32 31 78 31z" />
    <glyph glyph-name="Idotaccent" unicode="&#x130;" horiz-adv-x="692" 
d="M347 1448q-48 0 -78 29q-29 29 -31 77t29 81q32 32 79 32t79 -32q32 -31 32 -77t-31 -78t-79 -32zM262 311v729q0 170 -18 212t-107 51l-51 4q-8 6 -7 26t11 25q154 -6 256 -6t256 6q10 -4 11 -24t-7 -27l-51 -4q-88 -9 -106 -51t-19 -212v-729q0 -168 18 -209t107 -51
l51 -6q8 -7 7 -27t-11 -24q-154 6 -256 6t-256 -6q-10 4 -11 22t7 29l51 6q88 10 107 51q18 41 18 209z" />
    <glyph glyph-name="dotlessi" unicode="&#x131;" horiz-adv-x="526" 
d="M201 229v359q0 64 -7 82t-49 45l-18 12q-6 6 -6 19t8 18q123 43 211 100q16 0 20 -12q-8 -143 -8 -254v-369q0 -113 12 -141t66 -37l43 -6q10 -7 8 -27t-12 -24q-91 6 -195 6t-190 -6q-10 4 -12 23t8 28l43 6q55 7 67 35t11 143z" />
    <glyph glyph-name="Kcommaaccent" unicode="&#x136;" horiz-adv-x="1382" 
d="M606 -200q0 34 26 58t76 23q48 0 96 -45t48 -125q0 -197 -240 -262q-12 6 -19 32t1 32q49 14 90 52t41 94t-74 89q-45 18 -45 52zM262 307v737q0 168 -18 209t-105 50l-51 4q-8 6 -7 26t11 25q152 -6 258 -6t238 6q10 -4 11 -24t-7 -27l-39 -4q-86 -9 -104 -51t-19 -208
v-235q0 -78 27 -78t60 27t101 94l222 219q171 162 174 203q0 12 -35 20l-55 13q-10 10 -10 26q1 16 14 25q106 -6 221 -6t207 6q10 -8 12 -26t-8 -25q-104 -9 -192 -59t-285 -236l-185 -174q-47 -48 -47 -64t39 -63q387 -444 512 -576q74 -74 164 -84l55 -6q11 -7 9 -27
t-13 -24q-80 6 -209 6t-270 -6q-10 4 -13 22t5 29l47 8q49 7 49 19t-16 32t-183 209l-163 185q-123 137 -152 157q-22 15 -46 15t-30 -20t-6 -79v-264q0 -166 17 -207t102 -49l55 -6q8 -7 7 -27t-11 -24q-152 6 -256 6t-231 -6q-10 4 -12 22q-1 18 8 29l41 6q80 12 96 51
t16 205z" />
    <glyph glyph-name="kcommaaccent" unicode="&#x137;" horiz-adv-x="987" 
d="M474 -119q50 0 99 -45t50 -125q0 -195 -252 -262q-12 6 -17 32q-4 26 4 32q51 14 93 52q41 38 41 79q0 60 -46 88q-2 1 -37 18q-36 18 -36 51t25 57q26 23 76 23zM180 229v926q0 92 -9 118t-54 52l-21 12q-8 5 -8 21t8 20q147 47 221 86q14 0 21 -12q-6 -184 -6 -254
v-702q0 -20 6 -26t31 -5q61 0 139 80l84 90q72 78 72 93t-46 22l-49 6q-14 4 -14 26t14 25h47q172 0 326 16q10 -4 12 -23t-8 -28l-65 -12q-53 -10 -129 -72q-27 -20 -187 -172q-31 -29 -14 -49q45 -59 163 -193t162 -174q42 -39 111 -51l29 -4q10 -7 9 -27t-13 -24
q-90 6 -205 6t-203 -6q-12 6 -13 25t9 26l37 6q51 5 51 21t-35 57l-219 254q-26 29 -58 29t-38 -10t-6 -60v-113q0 -113 12 -141t66 -37l49 -6q10 -7 8 -27t-12 -24q-103 6 -203 6t-193 -6q-10 4 -12 23t10 28l45 6q54 7 66 35t12 143z" />
    <glyph glyph-name="Lacute" unicode="&#x139;" horiz-adv-x="1132" 
d="M653 1593l-342 -147q-12 4 -18 18t-2 31l289 236q39 27 55 26q33 0 59 -49t13 -82q-15 -17 -54 -33zM262 307v737q0 168 -19 209t-114 50l-51 4q-8 6 -7 26t11 25q172 -6 268 -6t250 6q10 -4 11 -24t-7 -27l-49 -4q-88 -7 -106 -49t-19 -210v-712q0 -102 8 -148t35 -73
q47 -47 237 -47t236 26q74 43 135 203q8 8 30 3t22 -15q0 -21 -33 -135t-53 -152q-158 6 -510 6h-189q-94 0 -266 -6q-10 4 -11 22t7 29l61 6q86 8 105 49q18 41 18 207z" />
    <glyph glyph-name="lacute" unicode="&#x13a;" horiz-adv-x="505" 
d="M470 1782q24 0 48 -47t12 -78q-8 -13 -49 -31l-323 -139q-29 10 -19 47l273 221q34 27 58 27zM332 1198v-969q0 -113 12 -141t66 -37l49 -6q10 -7 8 -27t-12 -24q-103 6 -203 6t-193 -6q-10 4 -12 23t8 28l47 6q55 8 67 36q11 28 11 142v926q0 92 -9 118t-54 52l-21 12
q-8 5 -8 21t8 20q147 47 221 86q14 0 21 -12q-6 -184 -6 -254z" />
    <glyph glyph-name="Lcommaaccent" unicode="&#x13b;" horiz-adv-x="1132" 
d="M608 -119q48 0 96 -45t48 -125q0 -193 -248 -262q-12 6 -16 32q-3 26 6 32q53 16 97 53t44 80q-1 43 -15 56q-33 30 -45 35t-22 10t-12 5q-35 18 -35 50t26 56q27 23 76 23zM262 307v737q0 168 -19 209t-114 50l-51 4q-8 6 -7 26t11 25q172 -6 268 -6t250 6q10 -4 11 -24
t-7 -27l-49 -4q-88 -7 -106 -49t-19 -210v-712q0 -102 8 -148t35 -73q47 -47 237 -47t236 26q74 43 135 203q8 8 30 3t22 -15q0 -21 -33 -135t-53 -152q-158 6 -510 6h-189q-94 0 -266 -6q-10 4 -11 22t7 29l61 6q86 8 105 49q18 41 18 207z" />
    <glyph glyph-name="lcommaaccent" unicode="&#x13c;" horiz-adv-x="505" 
d="M133 -190q-1 35 25 58t76 23t102 -45t51 -125q0 -190 -256 -262q-12 6 -16 32t4 32q51 14 92 52t41 78t-11 54t-20 24t-23 17q-14 6 -22 10q-43 17 -43 52zM332 1198v-969q0 -113 12 -141t66 -37l49 -6q10 -7 8 -27t-12 -24q-103 6 -203 6t-193 -6q-10 4 -12 23t8 28
l47 6q55 8 67 36q11 28 11 142v926q0 92 -9 118t-54 52l-21 12q-8 5 -8 21t8 20q147 47 221 86q14 0 21 -12q-6 -184 -6 -254z" />
    <glyph glyph-name="Lcaron" unicode="&#x13d;" horiz-adv-x="1132" 
d="M727 1319q1 29 21 51t78 23t101 -49q44 -50 44 -117q0 -193 -230 -250q-27 20 -12 53q49 25 85 65t36 81q0 42 -25 66t-47 26q-51 4 -51 51zM262 307v737q0 168 -19 209t-114 50l-51 4q-8 6 -7 26t11 25q172 -6 268 -6t250 6q10 -4 11 -24t-7 -27l-49 -4q-88 -7 -106 -49
t-19 -210v-712q0 -102 8 -148t35 -73q47 -47 233 -47t242 30q70 37 133 199q8 8 30 3t22 -15q0 -21 -33 -135t-53 -152q-158 6 -510 6h-189q-94 0 -266 -6q-10 4 -11 22t7 29l61 6q86 8 105 49q18 41 18 207z" />
    <glyph glyph-name="lcaron" unicode="&#x13e;" horiz-adv-x="505" 
d="M453 1372q0 20 41 56t85 36t44 -102q-1 -102 -49 -202t-107 -144q-18 -6 -30 7q-11 13 -3 28q68 115 68 196q0 37 -31 76q-18 29 -18 49zM332 1198v-969q0 -113 12 -141t66 -37l49 -6q10 -7 8 -27t-12 -24q-103 6 -203 6t-193 -6q-10 4 -12 23t8 28l47 6q55 8 67 36
q11 28 11 142v926q0 92 -9 118t-54 52l-21 12q-8 5 -8 21t8 20q147 47 221 86q14 0 21 -12q-6 -184 -6 -254z" />
    <glyph glyph-name="Lslash" unicode="&#x141;" horiz-adv-x="1144" 
d="M274 307v258l-184 -90q-37 8 -29 68l213 98v403q0 168 -19 209t-114 50l-51 4q-8 6 -7 26t11 25q172 -6 268 -6t250 6q10 -4 12 -24t-8 -27l-49 -4q-88 -7 -106 -49t-19 -210v-319l326 158q41 -16 27 -66l-353 -176v-309q0 -102 8 -148t35 -73q47 -47 237 -47t236 26
q74 43 136 203q8 8 30 3t21 -15q0 -21 -33 -135t-53 -152q-158 6 -510 6h-189q-94 0 -266 -6q-10 4 -11 22t7 29l62 6q86 8 104 49t18 207z" />
    <glyph glyph-name="lslash" unicode="&#x142;" horiz-adv-x="534" 
d="M348 229q0 -113 12 -141t66 -37l49 -6q10 -7 8 -27t-12 -24q-103 6 -203 6t-192 -6q-10 4 -13 23q-2 19 9 28l47 6q55 8 66 36t12 142v441l-131 -76q-16 4 -26 22q-9 18 -5 39l162 99v401q1 92 -9 118t-55 52l-20 12q-9 5 -9 21t9 20q147 47 221 86q14 0 20 -12
q-6 -184 -6 -254v-358l127 78q17 -4 29 -25t8 -37l-164 -100v-527z" />
    <glyph glyph-name="Nacute" unicode="&#x143;" horiz-adv-x="1603" 
d="M1061 1593l-342 -147q-30 10 -21 49l289 236q39 27 55 26q35 0 58 -47q30 -53 16 -77t-55 -40zM1364 838v-490q0 -305 6 -358q-8 -23 -39 -23q-39 55 -262 309l-475 541q-12 14 -113 132q-100 118 -125 145h-4q-10 -31 -10 -133v-447q0 -358 37 -424q18 -33 104 -39
l64 -6q8 -11 7 -27t-11 -24q-137 6 -241 6t-212 -6q-10 8 -12 25t8 26l55 6q76 10 90 41q27 68 27 422v592q0 98 -42 142t-130 55l-35 4q-10 8 -9 26t13 25q85 -6 185 -6t141 6q41 -102 350 -451l199 -223q270 -301 338 -371h4q8 10 8 86v439q0 358 -41 424q-18 27 -127 41
l-35 4q-10 8 -9 27t13 24q141 -6 245 -6t208 6q12 -8 13 -26t-9 -25l-29 -4q-100 -16 -114 -43q-31 -66 -31 -422z" />
    <glyph glyph-name="nacute" unicode="&#x144;" horiz-adv-x="1075" 
d="M817 1266q0 -24 -33 -56l-256 -266q-31 -4 -34 23l176 333q28 50 52 50t60 -30t35 -54zM201 229v359q0 64 -7 82t-49 45l-18 12q-6 6 -6 19t8 18q41 14 109 47t96 53q16 0 22 -14q-4 -47 -4 -96q0 -23 23 -23q168 105 288 105t179 -72t59 -182v-353q0 -113 12 -141
t66 -37l45 -6q10 -7 8 -27t-12 -24q-92 6 -196 6t-187 -6q-10 4 -12 23t8 28l39 6q55 8 66 36t12 142v306q0 203 -193 202q-121 0 -174 -71q-31 -41 -31 -123v-314q0 -113 12 -141t66 -37l37 -6q10 -7 8 -27t-12 -24q-81 6 -187 6t-192 -6q-10 4 -12 23t8 28l43 6
q55 7 67 35t11 143z" />
    <glyph glyph-name="Ncommaaccent" unicode="&#x145;" horiz-adv-x="1603" 
d="M692 -198q0 32 26 56t76 23q48 0 98 -46t50 -128q0 -193 -244 -258q-12 6 -19 32t1 32q53 16 97 53t44 79t-14 56q-15 13 -27 23t-21 14t-19 9t-13 5q-35 18 -35 50zM1364 838v-490q0 -305 6 -358q-8 -23 -39 -23q-39 55 -262 309l-475 541q-12 14 -113 132
q-100 118 -125 145h-4q-10 -31 -10 -133v-447q0 -358 37 -424q18 -33 104 -39l64 -6q8 -11 7 -27t-11 -24q-137 6 -241 6t-212 -6q-10 8 -12 25t8 26l55 6q76 10 90 41q27 68 27 422v592q0 98 -42 142t-130 55l-35 4q-10 8 -9 26t13 25q85 -6 185 -6t141 6q41 -102 350 -451
l199 -223q270 -301 338 -371h4q8 10 8 86v439q0 358 -41 424q-18 27 -127 41l-35 4q-10 8 -9 27t13 24q141 -6 245 -6t208 6q12 -8 13 -26t-9 -25l-29 -4q-100 -16 -114 -43q-31 -66 -31 -422z" />
    <glyph glyph-name="ncommaaccent" unicode="&#x146;" horiz-adv-x="1075" 
d="M428 -199q0 33 24 57t68 23q45 0 88 -45t43 -125q0 -193 -225 -262q-12 6 -14 32t4 32q47 16 88 53t41 83t-26 65q-26 20 -58 37q-33 17 -33 50zM201 229v359q0 64 -7 82t-49 45l-18 12q-6 6 -6 19t8 18q41 14 109 47t96 53q16 0 22 -14q-4 -47 -4 -96q0 -23 23 -23
q168 105 288 105t179 -72t59 -182v-353q0 -113 12 -141t66 -37l45 -6q10 -7 8 -27t-12 -24q-92 6 -196 6t-187 -6q-10 4 -12 23t8 28l39 6q55 8 66 36t12 142v306q0 203 -193 202q-121 0 -174 -71q-31 -41 -31 -123v-314q0 -113 12 -141t66 -37l37 -6q10 -7 8 -27t-12 -24
q-81 6 -187 6t-192 -6q-10 4 -12 23t8 28l43 6q55 7 67 35t11 143z" />
    <glyph glyph-name="Ncaron" unicode="&#x147;" horiz-adv-x="1603" 
d="M762 1460l-254 232q0 14 9 27t22 14l237 -121q27 -14 58 0l239 121q23 -4 23 -41l-250 -232q-41 -37 -84 0zM1364 838v-490q0 -305 6 -358q-8 -23 -39 -23q-39 55 -262 309l-475 541q-12 14 -113 132q-100 118 -125 145h-4q-10 -31 -10 -133v-447q0 -358 37 -424
q18 -33 104 -39l64 -6q8 -11 7 -27t-11 -24q-137 6 -241 6t-212 -6q-10 8 -12 25t8 26l55 6q76 10 90 41q27 68 27 422v592q0 98 -42 142t-130 55l-35 4q-10 8 -9 26t13 25q85 -6 185 -6t141 6q41 -102 350 -451l199 -223q270 -301 338 -371h4q8 10 8 86v439q0 358 -41 424
q-18 27 -127 41l-35 4q-10 8 -9 27t13 24q141 -6 245 -6t208 6q12 -8 13 -26t-9 -25l-29 -4q-100 -16 -114 -43q-31 -66 -31 -422z" />
    <glyph glyph-name="ncaron" unicode="&#x148;" horiz-adv-x="1075" 
d="M546 944q-18 0 -34 29l-188 346q2 27 41 27l153 -191q18 -23 26 -23t29 23l154 191q11 2 23 -6t14 -21l-184 -346q-16 -29 -34 -29zM201 229v359q0 64 -7 82t-49 45l-18 12q-6 6 -6 19t8 18q41 14 109 47t96 53q16 0 22 -14q-4 -47 -4 -96q0 -23 23 -23q168 105 288 105
t179 -72t59 -182v-353q0 -113 12 -141t66 -37l45 -6q10 -7 8 -27t-12 -24q-92 6 -196 6t-187 -6q-10 4 -12 23t8 28l39 6q55 8 66 36t12 142v306q0 203 -193 202q-121 0 -174 -71q-31 -41 -31 -123v-314q0 -113 12 -141t66 -37l37 -6q10 -7 8 -27t-12 -24q-81 6 -187 6
t-192 -6q-10 4 -12 23t8 28l43 6q55 7 67 35t11 143z" />
    <glyph glyph-name="Omacron" unicode="&#x14c;" horiz-adv-x="1628" 
d="M1079 1568q0 -38 -18 -59h-473q-16 21 -16 59t16 58h473q18 -20 18 -58zM850 31q201 -1 340 151t139 429t-123 485q-61 102 -169 164t-266 61q-158 0 -306 -127q-76 -66 -121 -186t-45 -248q0 -363 182 -572q61 -70 157 -114t212 -43zM808 -33q-314 0 -514 203t-200 502
t207 506q207 206 533 206t513 -205q187 -206 187 -505t-206 -503t-520 -204z" />
    <glyph glyph-name="omacron" unicode="&#x14d;" horiz-adv-x="995" 
d="M737 1094q0 -42 -14 -62h-438q-17 20 -17 62t17 63h438q14 -21 14 -63zM510 33q126 -1 182 103t56 250t-66 268q-66 120 -199 120q-104 0 -170 -94q-65 -94 -65 -254t68 -276t194 -117zM504 836q180 0 300 -119t120 -309t-121 -313q-121 -124 -306 -124t-306 117
q-119 117 -119 306q0 190 126 316t306 126z" />
    <glyph glyph-name="Ohungarumlaut" unicode="&#x150;" horiz-adv-x="1628" 
d="M760 1763q28 -1 68 -33t28 -58t-47 -56l-178 -170q-47 10 -39 39l115 233q24 45 53 45zM1082 1763q28 0 61 -23t41 -45t0 -30t-23 -22t-28 -27l-179 -170q-47 10 -39 39l115 233q24 45 52 45zM850 31q201 -1 340 151t139 429t-123 485q-61 102 -169 164t-266 61
q-158 0 -306 -127q-76 -66 -121 -186t-45 -248q0 -363 182 -572q61 -70 157 -114t212 -43zM808 -33q-314 0 -514 203t-200 502t207 506q207 206 533 206t513 -205q187 -206 187 -505t-206 -503t-520 -204z" />
    <glyph glyph-name="ohungarumlaut" unicode="&#x151;" horiz-adv-x="995" 
d="M799 1217l-189 -275q-12 -2 -24 4t-11 19l113 333q18 41 35 48q16 2 65 -25q62 -26 11 -104zM528 1217l-188 -275q-12 -2 -24 4q-11 6 -11 19l113 333q20 43 35 45q16 4 65 -22q31 -19 34 -43t-24 -61zM510 33q126 -1 182 103t56 250t-66 268q-66 120 -199 120
q-104 0 -170 -94q-65 -94 -65 -254t68 -276t194 -117zM504 836q180 0 300 -119t120 -309t-121 -313q-121 -124 -306 -124t-306 117q-119 117 -119 306q0 190 126 316t306 126z" />
    <glyph glyph-name="OE" unicode="&#x152;" horiz-adv-x="2072" 
d="M1141 252v870q0 127 -54 148q-74 24 -215 24t-259 -49q-212 -88 -282 -333q-32 -108 -32 -209t13 -176q14 -75 54 -163t103 -155q63 -68 176 -113t240 -45t194 31q37 20 49 57q13 37 13 113zM1614 1352q250 0 276 6q8 -29 31 -271q-5 -10 -23 -12t-28 6q-37 117 -69 151
t-81 45t-204 11h-148q-43 0 -51 -11t-8 -71v-411q0 -41 9 -49t56 -7h119q133 0 174 11q35 12 49 73l19 82q8 10 26 9t25 -11l-8 -205l8 -198q-6 -10 -24 -12t-27 10l-21 82q-14 63 -63 77q-33 10 -158 11h-119q-45 0 -55 -8t-10 -48v-288q0 -172 41 -216q40 -44 244 -44
t264 31q60 32 143 198q9 8 27 4t24 -18q-31 -156 -92 -285q-276 6 -549 6h-125l-403 -12q-356 0 -573 186q-216 186 -216 490t222 500q222 194 585 194l367 -6h346z" />
    <glyph glyph-name="oe" unicode="&#x153;" horiz-adv-x="1492" 
d="M977 586h129q164 0 179 15t15 53t-38 79q-39 41 -121 41t-152 -55t-69 -117q0 -16 57 -16zM1284 524h-338q-35 0 -45 -15t-10 -63q0 -147 90 -256t246 -108q71 0 111 22t83 78q13 4 25 -3t12 -17q-82 -190 -319 -191q-99 0 -185 45t-133 123q-53 -82 -142 -125t-190 -43
q-182 0 -300 116q-117 115 -117 307t125 317t311 125q100 0 185 -45t136 -132q53 82 141 129q88 48 204 48t199 -73t83 -171q0 -35 -6 -47q-10 -21 -166 -21zM248 424q0 -152 70 -272q70 -119 192 -119q123 0 180 103q58 103 58 220t-24 202t-87 151q-63 65 -161 65
t-162 -99q-66 -99 -66 -251z" />
    <glyph glyph-name="Racute" unicode="&#x154;" horiz-adv-x="1320" 
d="M885 1593l-342 -147q-30 10 -21 49l289 236q41 27 55 26q35 0 60 -49t12 -82q-14 -17 -53 -33zM430 1229v-479q0 -58 8 -68t144 -10t206 53q102 80 103 254q0 133 -84 224t-244 91q-93 0 -113 -10t-20 -55zM1077 1010q0 -131 -79 -217t-177 -125q-12 -14 10 -50
q139 -223 227 -343t185 -201q57 -51 141 -58q8 -4 10 -13t-8 -15q-31 -10 -90 -11q-135 -1 -226 53t-198 206q-26 40 -98 152t-100 152t-58 55q-32 15 -96 15t-77 -6t-13 -39v-258q0 -166 17 -205t106 -51l43 -6q8 -7 7 -27t-11 -24q-137 6 -247 6t-253 -6q-10 4 -11 22
t7 29l51 6q86 10 105 50q18 40 18 206v735q0 150 -14 191t-76 49l-66 8q-10 8 -10 26t13 25q184 16 456 17q512 0 512 -348z" />
    <glyph glyph-name="racute" unicode="&#x155;" horiz-adv-x="679" 
d="M520 1360q24 0 61 -30q36 -30 36 -53t-33 -56l-256 -267q-31 -4 -35 23l176 334q27 49 51 49zM201 229v359q0 64 -7 82t-49 45l-18 12q-6 6 -6 19t8 18q94 33 207 100q16 -4 16 -14v-119q0 -14 6 -18q147 123 226 123q40 0 66 -23t26 -63t-29 -66q-29 -25 -54 -25t-62 24
t-79 24t-71 -39t-29 -160v-279q0 -115 12 -145t70 -33l74 -6q10 -7 8 -27t-12 -24q-143 6 -240 6t-176 -6q-10 4 -12 23t8 28l39 6q55 7 67 35t11 143z" />
    <glyph glyph-name="Rcommaaccent" unicode="&#x156;" horiz-adv-x="1320" 
d="M594 -158q0 32 26 56t74 24q50 0 98 -45t48 -125q0 -193 -248 -262q-12 6 -17 32q-4 26 5 32q53 16 98 53t45 80q-1 43 -15 56q-31 28 -55 39t-26 11q-33 16 -33 49zM430 1229v-479q0 -58 8 -68t144 -10t206 53q102 80 103 254q0 133 -84 224t-244 91q-93 0 -113 -10
t-20 -55zM1077 1010q0 -131 -79 -217t-177 -125q-12 -14 10 -50q139 -223 227 -343t185 -201q57 -51 141 -58q8 -4 10 -13t-8 -15q-31 -10 -90 -11q-135 -1 -226 53t-198 206q-26 40 -98 152t-100 152t-58 55q-32 15 -96 15t-77 -6t-13 -39v-258q0 -166 17 -205t106 -51
l43 -6q8 -7 7 -27t-11 -24q-137 6 -247 6t-253 -6q-10 4 -11 22t7 29l51 6q86 10 105 50q18 40 18 206v735q0 150 -14 191t-76 49l-66 8q-10 8 -10 26t13 25q184 16 456 17q512 0 512 -348z" />
    <glyph glyph-name="rcommaaccent" unicode="&#x157;" horiz-adv-x="679" 
d="M178 -199q0 33 24 57t68 23q45 0 92 -45t48 -125q0 -195 -234 -262q-12 6 -14 32t4 32q45 14 83 52t38 80q1 42 -11 56q-18 22 -67 51q-31 16 -31 49zM201 229v359q0 64 -7 82t-49 45l-18 12q-6 6 -6 19t8 18q94 33 207 100q16 -4 16 -14v-119q0 -14 6 -18
q147 123 226 123q40 0 66 -23t26 -63t-29 -66q-29 -25 -54 -25t-62 24t-79 24t-71 -39t-29 -160v-279q0 -115 12 -145t70 -33l74 -6q10 -7 8 -27t-12 -24q-143 6 -240 6t-176 -6q-10 4 -12 23t8 28l39 6q55 7 67 35t11 143z" />
    <glyph glyph-name="Rcaron" unicode="&#x158;" horiz-adv-x="1320" 
d="M590 1604q12 0 35 12l235 117q23 -4 23 -41l-250 -232q-41 -37 -84 0l-254 232q0 14 9 27t22 14l233 -117q19 -12 31 -12zM430 1229v-479q0 -58 8 -68t144 -10t206 53q102 80 103 254q0 133 -84 224t-244 91q-93 0 -113 -10t-20 -55zM1077 1010q0 -131 -79 -217
t-177 -125q-12 -14 10 -50q139 -223 227 -343t185 -201q57 -51 141 -58q8 -4 10 -13t-8 -15q-31 -10 -90 -11q-135 -1 -226 53t-198 206q-26 40 -98 152t-100 152t-58 55q-32 15 -96 15t-77 -6t-13 -39v-258q0 -166 17 -205t106 -51l43 -6q8 -7 7 -27t-11 -24q-137 6 -247 6
t-253 -6q-10 4 -11 22t7 29l51 6q86 10 105 50q18 40 18 206v735q0 150 -14 191t-76 49l-66 8q-10 8 -10 26t13 25q184 16 456 17q512 0 512 -348z" />
    <glyph glyph-name="rcaron" unicode="&#x159;" horiz-adv-x="679" 
d="M190 1376l154 -190q27 -35 55 0l154 190q10 2 22 -5t15 -21l-184 -363q-33 -66 -68 0l-188 363q1 26 40 26zM201 229v359q0 64 -7 82t-49 45l-18 12q-6 6 -6 19t8 18q94 33 207 100q16 -4 16 -14v-119q0 -14 6 -18q147 123 226 123q40 0 66 -23t26 -63t-29 -66
q-29 -25 -54 -25t-62 24t-79 24t-71 -39t-29 -160v-279q0 -115 12 -145t70 -33l74 -6q10 -7 8 -27t-12 -24q-143 6 -240 6t-176 -6q-10 4 -12 23t8 28l39 6q55 7 67 35t11 143z" />
    <glyph glyph-name="Sacute" unicode="&#x15a;" horiz-adv-x="1001" 
d="M793 1593l-342 -147q-30 10 -21 49l289 236q39 27 55 26q32 0 58 -49t14 -82q-14 -17 -53 -33zM895 346q0 -170 -119 -274t-312 -104t-325 75q-18 33 -35 123q-16 90 -20 164q8 10 26 12t23 -6q90 -305 352 -305q123 1 190 69t67 159t-34 160t-135 134l-194 127
q-221 145 -221 352q0 152 111 252q112 100 306 100q92 0 162 -19t101 -19q37 -98 36 -250q-6 -10 -24 -12t-27 6q-44 164 -156 209q-52 22 -122 22q-135 0 -189 -69t-55 -158q0 -143 174 -252l164 -103q256 -157 256 -393z" />
    <glyph glyph-name="sacute" unicode="&#x15b;" horiz-adv-x="661" 
d="M615 1262q0 -24 -33 -56l-256 -266q-31 -4 -35 23l176 333q27 50 51 50t61 -30q36 -30 36 -54zM390 836q130 0 171 -37q33 -80 33 -166q-6 -10 -24 -12t-25 6q-57 150 -180 149q-59 0 -95 -35t-37 -78q1 -43 13 -67q22 -43 88 -81q152 -85 209 -148t57 -168t-86 -166
t-218 -61t-210 61q-33 78 -25 207q7 10 23 10t25 -8q66 -211 217 -211q59 0 98 34t39 87t-27 92t-54 59q-28 20 -102 62q-74 43 -126 101t-52 152t79 156t209 62z" />
    <glyph glyph-name="Scedilla" unicode="&#x15e;" horiz-adv-x="1001" 
d="M459 -33q-188 0 -320 76q-18 33 -35 123q-16 90 -20 164q8 10 26 12t23 -6q90 -305 352 -305q123 1 190 69t67 159t-34 160t-135 134l-194 127q-221 145 -221 352q0 152 111 252q112 100 306 100q92 0 162 -19t101 -19q37 -98 36 -250q-6 -10 -24 -12t-27 6
q-44 164 -156 209q-52 22 -122 22q-135 0 -189 -69t-55 -158q0 -143 174 -252l164 -103q256 -158 256 -393q0 -150 -94 -250t-256 -121l-60 -94q-14 -25 11 -39q94 -68 94 -140t-60 -120q-60 -49 -126 -49q-124 0 -121 68q0 16 13 32q14 17 34 17t54 -28t46 -28q51 0 51 60
q0 37 -34 72t-85 55v10l109 178q-4 -2 -12 -2z" />
    <glyph glyph-name="scedilla" unicode="&#x15f;" horiz-adv-x="661" 
d="M305 -29q-141 0 -219 62q-33 78 -25 207q7 10 23 10t25 -8q66 -211 217 -211q59 0 98 34t39 87t-27 92t-54 59q-28 20 -102 62q-176 99 -178 237q0 109 79 171q79 63 209 63t171 -37q33 -80 33 -166q-6 -10 -24 -12t-25 6q-57 150 -180 149q-59 0 -95 -35t-37 -78
q1 -43 13 -67q22 -43 88 -81q152 -85 209 -148t57 -159t-62 -154t-159 -74l-45 -72q-14 -25 16 -43q84 -55 84 -126t-57 -117t-131 -46q-104 0 -105 64q1 16 13 31q28 34 84 -11q33 -27 43 -27q49 0 49 58q0 35 -32 69t-81 52v10l94 149h-6z" />
    <glyph glyph-name="Scaron" unicode="&#x160;" horiz-adv-x="1001" 
d="M487 1477l-251 231q0 14 8 28t20 13l234 -119q24 -10 32 -11t33 11l238 119q23 -4 22 -41l-250 -231q-41 -39 -86 0zM895 346q0 -170 -119 -274t-312 -104t-325 75q-18 33 -35 123q-16 90 -20 164q8 10 26 12t23 -6q90 -305 352 -305q123 1 190 69t67 159t-34 160
t-135 134l-194 127q-221 145 -221 352q0 152 111 252q112 100 306 100q92 0 162 -19t101 -19q37 -98 36 -250q-6 -10 -24 -12t-27 6q-44 164 -156 209q-52 22 -122 22q-135 0 -189 -69t-55 -158q0 -143 174 -252l164 -103q256 -157 256 -393z" />
    <glyph glyph-name="scaron" unicode="&#x161;" horiz-adv-x="661" 
d="M180 1368l154 -190q27 -35 55 0l154 190q10 2 22 -5t15 -22l-185 -362q-33 -66 -67 0l-189 362q2 27 41 27zM390 836q130 0 171 -37q33 -80 33 -166q-6 -10 -24 -12t-25 6q-57 150 -180 149q-59 0 -95 -35t-37 -78q1 -43 13 -67q22 -43 88 -81q152 -85 209 -148t57 -168
t-86 -166t-218 -61t-210 61q-33 78 -25 207q7 10 23 10t25 -8q66 -211 217 -211q59 0 98 34t39 87t-27 92t-54 59q-28 20 -102 62q-74 43 -126 101t-52 152t79 156t209 62z" />
    <glyph glyph-name="Tcommaaccent" unicode="&#x162;" horiz-adv-x="1351" 
d="M553 -198q1 32 27 56t75 23q49 0 97 -45t47 -125q0 -193 -248 -262q-12 6 -15 32t5 32q53 16 97 53t44 79t-14 56q-14 13 -26 23t-22 14t-20 9t-12 5q-35 18 -35 50zM754 1219v-912q0 -166 18 -207t105 -49l65 -6q8 -7 7 -27t-11 -24q-176 6 -266 6t-287 -6q-10 4 -11 23
t11 28l74 6q86 8 106 50t21 206v916q0 47 -8 56t-54 9h-112q-197 0 -250 -48t-94 -144q-12 -8 -30 -3t-24 17q47 135 78 305q4 4 20 4t19 -4q4 -25 19 -42t61 -19q45 -2 94 -2h830q85 0 111 9t48 48q8 4 22 2t15 -8q-16 -61 -25 -163t-6 -148q-6 -12 -25 -14t-28 9
q-14 123 -51 150q-70 51 -238 51h-145q-45 0 -52 -9t-7 -60z" />
    <glyph glyph-name="tcommaaccent" unicode="&#x163;" horiz-adv-x="628" 
d="M339 -119q46 0 92 -47t46 -137t-66 -154q-67 -63 -167 -94q-12 6 -15 32q-2 26 4 32q45 14 83 52t38 96t-67 85l-11 6q-30 16 -30 49t23 57q24 23 70 23zM369 721q-25 0 -31 -8t-6 -41v-383q0 -109 28 -168t121 -60q42 -1 73 19q30 20 38 20t14 -12t2 -22
q-80 -94 -209 -94t-174 58t-45 163v469q0 41 -6 50t-37 9h-57q-8 6 -10 20t4 23q92 30 135 68t82 116q6 4 21 2t22 -12v-92q0 -27 5 -33t32 -6h227q18 -14 17 -45t-15 -41h-231z" />
    <glyph glyph-name="Tcaron" unicode="&#x164;" horiz-adv-x="1351" 
d="M637 1460l-252 232q0 14 8 27t21 14l231 -119q23 -10 33 -9t35 11l237 117q23 -4 23 -41l-250 -232q-41 -39 -86 0zM754 1219v-912q0 -166 18 -207t105 -49l65 -6q8 -7 7 -27t-11 -24q-176 6 -266 6t-287 -6q-10 4 -11 23t11 28l74 6q86 8 106 50t21 206v916q0 47 -8 56
t-54 9h-112q-197 0 -250 -48t-94 -144q-12 -8 -30 -3t-24 17q47 135 78 305q4 4 20 4t19 -4q4 -25 19 -42t61 -19q45 -2 94 -2h830q85 0 111 9t48 48q8 4 22 2t15 -8q-16 -61 -25 -163t-6 -148q-6 -12 -25 -14t-28 9q-14 123 -51 150q-70 51 -238 51h-145q-45 0 -52 -9
t-7 -60z" />
    <glyph glyph-name="tcaron" unicode="&#x165;" horiz-adv-x="628" 
d="M601 1464q44 0 44 -102t-48 -202t-108 -144q-18 -6 -29 7t-3 28q68 115 67 196q0 37 -30 76q-18 29 -18 49t40 56q41 36 85 36zM369 721q-25 0 -31 -8t-6 -41v-383q0 -109 28 -168t121 -60q42 -1 73 19q30 20 38 20t14 -12t2 -22q-80 -94 -209 -94t-174 58t-45 163v469
q0 41 -6 50t-37 9h-57q-8 6 -10 20t4 23q92 30 135 68t82 116q6 4 21 2t22 -12v-92q0 -27 5 -33t32 -6h227q18 -14 17 -45t-15 -41h-231z" />
    <glyph glyph-name="Umacron" unicode="&#x16a;" horiz-adv-x="1527" 
d="M582 1537q0 38 14 58h430q16 -20 16 -58t-16 -58h-430q-14 20 -14 58zM1239 602v236q0 354 -39 424q-20 37 -102 43l-51 4q-8 10 -8 26q1 16 12 23q117 -6 227 -6t221 6q12 -8 12 -24t-8 -25l-49 -4q-82 -6 -102 -50q-29 -68 -29 -417v-232q0 -336 -143 -489
q-66 -72 -170 -111t-222 -39q-252 0 -382 113q-160 133 -160 483v484q0 165 -18 207t-105 51l-51 4q-8 6 -7 25t11 24q154 -6 254 -6t252 6q10 -4 11 -24t-7 -25l-49 -4q-87 -9 -105 -51t-18 -207v-443q0 -264 96 -405t313 -141t317 146q100 148 99 398z" />
    <glyph glyph-name="umacron" unicode="&#x16b;" horiz-adv-x="1048" 
d="M735 1111q0 -38 -14 -58h-438q-16 20 -17 57q0 37 17 59h438q14 -20 14 -58zM326 643v-342q0 -117 41 -176t142 -59t173 61q41 37 41 119v336q0 116 -27 137q-12 10 -49 24l-26 11q-10 6 -11 22q0 16 13 23q168 4 239 37q16 -4 19 -15q-6 -57 -7 -178v-344
q0 -131 12 -177t48 -46q37 0 84 10q10 -8 10 -31t-12 -28q-209 -43 -268 -76q-18 0 -25 14v84q0 29 -18 29q-168 -106 -291 -106q-124 0 -182 62q-58 64 -58 193v342q0 102 -8 129t-53 45l-25 11q-10 8 -8 24t12 21q125 2 219 37q18 -2 21 -15q-6 -53 -6 -178z" />
    <glyph glyph-name="Uring" unicode="&#x16e;" horiz-adv-x="1527" 
d="M733 1611q0 -46 27 -77q26 -31 66 -31t66 31t26 78t-27 77q-27 29 -66 29t-65 -30t-27 -77zM825 1778q76 0 125 -49t49 -117t-49 -117t-125 -49t-125 49t-49 117t49 117t125 49zM1239 602v236q0 354 -39 424q-20 37 -102 43l-51 4q-8 10 -8 26q1 16 12 23q117 -6 227 -6
t221 6q12 -8 12 -24t-8 -25l-49 -4q-82 -6 -102 -50q-29 -68 -29 -417v-232q0 -336 -143 -489q-66 -72 -170 -111t-222 -39q-252 0 -382 113q-160 133 -160 483v484q0 165 -18 207t-105 51l-51 4q-8 6 -7 25t11 24q154 -6 254 -6t252 6q10 -4 11 -24t-7 -25l-49 -4
q-87 -9 -105 -51t-18 -207v-443q0 -264 96 -405t313 -141t317 146q100 148 99 398z" />
    <glyph glyph-name="uring" unicode="&#x16f;" horiz-adv-x="1048" 
d="M518 1241q-40 -1 -66 -31t-26 -76t27 -77t67 -31t65 31q26 31 25 78q0 47 -26 77t-66 29zM518 1300q76 0 125 -50t49 -116t-49 -116q-49 -49 -125 -49t-125 49t-49 116q0 66 49 116t125 50zM326 643v-342q0 -117 41 -176t142 -59t173 61q41 37 41 119v336q0 116 -27 137
q-12 10 -49 24l-26 11q-10 6 -11 22q0 16 13 23q168 4 239 37q16 -4 19 -15q-6 -57 -7 -178v-344q0 -131 12 -177t48 -46q37 0 84 10q10 -8 10 -31t-12 -28q-209 -43 -268 -76q-18 0 -25 14v84q0 29 -18 29q-168 -106 -291 -106q-124 0 -182 62q-58 64 -58 193v342
q0 102 -8 129t-53 45l-25 11q-10 8 -8 24t12 21q125 2 219 37q18 -2 21 -15q-6 -53 -6 -178z" />
    <glyph glyph-name="Uhungarumlaut" unicode="&#x170;" horiz-adv-x="1527" 
d="M744 1763q28 -1 68 -33t28 -58t-47 -56l-179 -170q-47 10 -39 39l115 233q25 45 54 45zM1056 1763q28 0 60 -23q33 -23 41 -45t0 -30l-15 -15q-6 -8 -18 -18t-18 -16l-178 -170q-47 10 -39 39l115 233q24 45 52 45zM1239 602v236q0 354 -39 424q-20 37 -102 43l-51 4
q-8 10 -8 26q1 16 12 23q117 -6 227 -6t221 6q12 -8 12 -24t-8 -25l-49 -4q-82 -6 -102 -50q-29 -68 -29 -417v-232q0 -336 -143 -489q-66 -72 -170 -111t-222 -39q-252 0 -382 113q-160 133 -160 483v484q0 165 -18 207t-105 51l-51 4q-8 6 -7 25t11 24q154 -6 254 -6
t252 6q10 -4 11 -24t-7 -25l-49 -4q-87 -9 -105 -51t-18 -207v-443q0 -264 96 -405t313 -141t317 146q100 148 99 398z" />
    <glyph glyph-name="uhungarumlaut" unicode="&#x171;" horiz-adv-x="1048" 
d="M831 1227l-188 -275q-12 -2 -25 4q-12 6 -10 19l113 334q18 41 35 47q16 2 65 -25q62 -26 10 -104zM561 1227l-188 -275q-12 -2 -24 4q-11 6 -11 19l113 334q20 43 34 45q16 4 66 -23q31 -19 34 -43t-24 -61zM326 643v-342q0 -117 41 -176t142 -59t173 61q41 37 41 119
v336q0 116 -27 137q-12 10 -49 24l-26 11q-10 6 -11 22q0 16 13 23q168 4 239 37q16 -4 19 -15q-6 -57 -7 -178v-344q0 -131 12 -177t48 -46q37 0 84 10q10 -8 10 -31t-12 -28q-209 -43 -268 -76q-18 0 -25 14v84q0 29 -18 29q-168 -106 -291 -106q-124 0 -182 62
q-58 64 -58 193v342q0 102 -8 129t-53 45l-25 11q-10 8 -8 24t12 21q125 2 219 37q18 -2 21 -15q-6 -53 -6 -178z" />
    <glyph glyph-name="Uogonek" unicode="&#x172;" horiz-adv-x="1527" 
d="M809 -241q0 -107 111 -107q61 0 106 22q18 -6 18 -30q-78 -104 -208 -105q-78 0 -124 46t-46 112q0 147 227 280q-55 -10 -105 -10q-252 0 -382 113q-160 133 -160 483v484q0 165 -18 207t-105 51l-51 4q-8 6 -7 25t11 24q154 -6 254 -6t252 6q10 -4 11 -24t-7 -25
l-49 -4q-87 -8 -105 -50t-18 -208v-443q0 -264 96 -405t313 -141t317 146q100 148 99 398v236q0 354 -39 424q-20 37 -102 43l-51 4q-8 10 -8 26q1 16 12 23q117 -6 227 -6t221 6q12 -8 12 -24t-8 -25l-49 -4q-82 -6 -102 -50q-29 -68 -29 -417v-232q0 -336 -143 -489
q-68 -74 -191 -117q-86 -61 -133 -127t-47 -114z" />
    <glyph glyph-name="uogonek" unicode="&#x173;" horiz-adv-x="1048" 
d="M174 227v342q0 102 -8 129t-53 45l-25 11q-10 8 -8 24t12 21q125 2 219 37q18 -2 21 -15q-6 -53 -6 -178v-342q0 -117 41 -176t142 -59t173 61q41 37 41 119v336q0 116 -27 137q-12 10 -49 24l-26 11q-10 6 -11 22q0 16 13 23q168 4 239 37q16 -4 19 -15q-6 -57 -7 -178
v-344q0 -131 12 -177t48 -46q37 0 84 10q10 -8 10 -31t-8 -25t-10 -5q-139 -125 -140 -256q0 -43 24 -72t77 -29t92 29q18 -6 18 -31q-70 -94 -186 -94q-78 0 -123 44t-45 108t47 129q47 66 158 157q-129 -29 -184 -59q-18 0 -25 14v84q0 29 -18 29q-168 -106 -291 -106
q-124 0 -182 62q-58 64 -58 193z" />
    <glyph glyph-name="Ydieresis" unicode="&#x178;" horiz-adv-x="1175" 
d="M828 1454q-46 0 -74 27t-30 76q-1 49 29 83q29 34 75 33q46 0 73 -34q27 -35 27 -79t-27 -75t-73 -31zM449 1454q-100 0 -101 105q-4 45 25 79t75 35q46 0 76 -34q30 -33 29 -77t-29 -76t-75 -32zM688 418v-107q0 -166 20 -210t103 -50l78 -6q8 -11 7 -29t-11 -22
q-189 6 -287 6t-260 -6q-10 4 -11 22t7 29l63 6q86 8 105 49q18 41 18 211v105q0 86 -10 127t-55 127l-242 471q-49 94 -80 121t-82 34l-57 11q-10 10 -8 27t12 24q98 -6 240 -6t217 6q12 -4 14 -24t-8 -27l-27 -4q-86 -12 -86 -37q0 -31 64 -158q197 -391 231 -455
q117 199 221 397t105 220q0 23 -86 33l-37 4q-10 10 -9 27t13 24q111 -6 197 -6t190 6q12 -8 13 -26t-9 -25l-57 -11q-64 -13 -107 -65q-18 -23 -29 -37t-41 -63t-56 -93q-26 -45 -38 -65l-129 -223q-68 -117 -82 -166t-14 -166z" />
    <glyph glyph-name="Zacute" unicode="&#x179;" horiz-adv-x="1312" 
d="M958 1593l-352 -147q-12 4 -18 18t-2 31l288 236q39 27 63 27q23 0 55 -49q32 -48 20 -83q-15 -17 -54 -33zM870 1288h-305q-244 0 -305 -67q-51 -55 -90 -140q-14 -6 -30 -2t-21 17q47 135 84 307q16 12 35 0q4 -35 38 -43t164 -8h541q203 0 236 6q12 -2 12 -19
q-78 -68 -336 -438l-338 -487q-203 -295 -203 -318q0 -24 56 -28t326 -4q272 0 355 46t146 189q41 14 51 -14q-41 -211 -92 -291q-170 6 -373 6h-526q-88 0 -229 -6q-10 6 -11 24q33 31 105 120t119 159l442 629q180 258 202 296t21 50q0 16 -74 16z" />
    <glyph glyph-name="zacute" unicode="&#x17a;" horiz-adv-x="772" 
d="M552 1339q24 1 60 -29t35 -54q0 -24 -33 -56l-256 -266q-31 -4 -34 22l176 334q28 49 52 49zM463 0h-184q-178 0 -216 -6q-12 6 -12 20q74 90 197 301l217 369q23 43 17 52t-36 9h-141q-102 1 -140 -29t-75 -120q-8 -10 -25 -7t-22 15q4 43 26 124t42 116q12 8 24 0
q4 -25 30 -31t116 -6h290q94 0 125 6q12 -6 11 -20q-63 -88 -152 -234l-248 -416q-33 -55 -27 -68t66 -14h70q184 0 241 62q25 29 66 119q9 6 25 3t20 -16q-31 -170 -76 -235q-102 6 -229 6z" />
    <glyph glyph-name="Zdotaccent" unicode="&#x17b;" horiz-adv-x="1312" 
d="M679 1448q-48 0 -78 29t-32 77t30 81q32 32 79 32t79 -32q31 -31 31 -77t-30 -78t-79 -32zM870 1288h-305q-244 0 -305 -67q-51 -55 -90 -140q-14 -6 -30 -2t-21 17q47 135 84 307q16 12 35 0q4 -35 38 -43t164 -8h541q203 0 236 6q12 -2 12 -19q-78 -68 -336 -438
l-338 -487q-203 -295 -203 -318q0 -24 56 -28t326 -4q272 0 355 46t146 189q41 14 51 -14q-41 -211 -92 -291q-170 6 -373 6h-526q-88 0 -229 -6q-10 6 -11 24q33 31 105 120t119 159l442 629q180 258 202 296t21 50q0 16 -74 16z" />
    <glyph glyph-name="zdotaccent" unicode="&#x17c;" horiz-adv-x="772" 
d="M407 1237q47 0 73 -31t26 -79q0 -47 -30 -73t-76 -26t-74 29t-27 75q0 46 31 75q31 30 77 30zM463 0h-184q-178 0 -216 -6q-12 6 -12 20q74 90 197 301l217 369q23 43 17 52t-36 9h-141q-102 1 -140 -29t-75 -120q-8 -10 -25 -7t-22 15q4 43 26 124t42 116q12 8 24 0
q4 -25 30 -31t116 -6h290q94 0 125 6q12 -6 11 -20q-63 -88 -152 -234l-248 -416q-33 -55 -27 -68t66 -14h70q184 0 241 62q25 29 66 119q9 6 25 3t20 -16q-31 -170 -76 -235q-102 6 -229 6z" />
    <glyph glyph-name="Zcaron" unicode="&#x17d;" horiz-adv-x="1312" 
d="M657 1460l-254 232q-1 14 9 27t22 14l234 -127q33 -18 65 0l236 127q23 -4 22 -41l-250 -232q-41 -37 -84 0zM870 1288h-305q-244 0 -305 -67q-51 -55 -90 -140q-14 -6 -30 -2t-21 17q47 135 84 307q16 12 35 0q4 -35 38 -43t164 -8h541q203 0 236 6q12 -2 12 -19
q-78 -68 -336 -438l-338 -487q-203 -295 -203 -318q0 -24 56 -28t326 -4q272 0 355 46t146 189q41 14 51 -14q-41 -211 -92 -291q-170 6 -373 6h-526q-88 0 -229 -6q-10 6 -11 24q33 31 105 120t119 159l442 629q180 258 202 296t21 50q0 16 -74 16z" />
    <glyph glyph-name="zcaron" unicode="&#x17e;" horiz-adv-x="772" 
d="M221 1352l154 -191q27 -35 55 0l154 191q10 2 22 -5t15 -22l-185 -362q-33 -66 -67 0l-189 362q2 27 41 27zM463 0h-184q-178 0 -216 -6q-12 6 -12 20q74 90 197 301l217 369q23 43 17 52t-36 9h-141q-102 1 -140 -29t-75 -120q-8 -10 -25 -7t-22 15q4 43 26 124t42 116
q12 8 24 0q4 -25 30 -31t116 -6h290q94 0 125 6q12 -6 11 -20q-63 -88 -152 -234l-248 -416q-33 -55 -27 -68t66 -14h70q184 0 241 62q25 29 66 119q9 6 25 3t20 -16q-31 -170 -76 -235q-102 6 -229 6z" />
    <glyph glyph-name="florin" unicode="&#x192;" horiz-adv-x="1024" 
d="M852 1427q70 -1 108 -33t37 -71q1 -39 -27 -67t-50 -28t-46 38q-47 76 -104 75q-106 0 -182 -467h231q11 -10 13 -34t-13 -33h-248q-27 -145 -67 -384q-76 -460 -219 -591q-90 -82 -195 -82q-63 0 -98 38t-35 80t12 60q28 42 74 -12q80 -72 133 -72q78 0 125 293
q10 61 50 293t63 377h-174q-10 9 -10 33t10 34h188q37 182 85 284t139 185q91 84 200 84z" />
    <glyph glyph-name="Scommaaccent" unicode="&#x218;" horiz-adv-x="1001" 
d="M379 -198q1 32 27 56t75 23q49 0 97 -45t47 -125q0 -190 -238 -262q-14 6 -21 32t1 32q53 16 97 53t44 80t-14 56q-33 30 -46 35q-12 5 -22 10t-12 5q-35 18 -35 50zM895 346q0 -170 -119 -274t-312 -104t-325 75q-18 33 -35 123q-16 90 -20 164q8 10 26 12t23 -6
q90 -305 352 -305q123 1 190 69t67 159t-34 160t-135 134l-194 127q-221 145 -221 352q0 152 111 252q112 100 306 100q92 0 162 -19t101 -19q37 -98 36 -250q-6 -10 -24 -12t-27 6q-44 164 -156 209q-52 22 -122 22q-135 0 -189 -69t-55 -158q0 -143 174 -252l164 -103
q256 -157 256 -393z" />
    <glyph glyph-name="scommaaccent" unicode="&#x219;" horiz-adv-x="661" 
d="M223 -199q-1 33 23 57t70 23q46 0 92 -47t47 -137q0 -89 -67 -153t-167 -95q-12 6 -14 32t4 32q45 14 83 52t38 80t-12 56q-18 22 -66 51q-31 16 -31 49zM390 836q130 0 171 -37q33 -80 33 -166q-6 -10 -24 -12t-25 6q-57 150 -180 149q-59 0 -95 -35t-37 -78
q1 -43 13 -67q22 -43 88 -81q152 -85 209 -148t57 -168t-86 -166t-218 -61t-210 61q-33 78 -25 207q7 10 23 10t25 -8q66 -211 217 -211q59 0 98 34t39 87t-27 92t-54 59q-28 20 -102 62q-74 43 -126 101t-52 152t79 156t209 62z" />
    <glyph glyph-name="uni021A" unicode="&#x21a;" horiz-adv-x="1351" 
d="M553 -198q1 32 27 56t75 23q49 0 97 -45t47 -125q0 -193 -248 -262q-12 6 -15 32t5 32q53 16 97 53t44 79t-14 56q-14 13 -26 23t-22 14t-20 9t-12 5q-35 18 -35 50zM754 1219v-912q0 -166 18 -207t105 -49l65 -6q8 -7 7 -27t-11 -24q-176 6 -266 6t-287 -6q-10 4 -11 23
t11 28l74 6q86 8 106 50t21 206v916q0 47 -8 56t-54 9h-112q-197 0 -250 -48t-94 -144q-12 -8 -30 -3t-24 17q47 135 78 305q4 4 20 4t19 -4q4 -25 19 -42t61 -19q45 -2 94 -2h830q85 0 111 9t48 48q8 4 22 2t15 -8q-16 -61 -25 -163t-6 -148q-6 -12 -25 -14t-28 9
q-14 123 -51 150q-70 51 -238 51h-145q-45 0 -52 -9t-7 -60z" />
    <glyph glyph-name="uni021B" unicode="&#x21b;" horiz-adv-x="628" 
d="M339 -119q46 0 92 -47t46 -137t-66 -154q-67 -63 -167 -94q-12 6 -15 32q-2 26 4 32q45 14 83 52t38 96t-67 85l-11 6q-30 16 -30 49t23 57q24 23 70 23zM369 721q-25 0 -31 -8t-6 -41v-383q0 -109 28 -168t121 -60q42 -1 73 19q30 20 38 20t14 -12t2 -22
q-80 -94 -209 -94t-174 58t-45 163v469q0 41 -6 50t-37 9h-57q-8 6 -10 20t4 23q92 30 135 68t82 116q6 4 21 2t22 -12v-92q0 -27 5 -33t32 -6h227q18 -14 17 -45t-15 -41h-231z" />
    <glyph glyph-name="circumflex" unicode="&#x2c6;" 
d="M545 952l-150 189q-18 23 -27 23t-28 -23l-152 -189q-10 -4 -24 3t-17 16l185 362q37 68 71 0l187 -362q-2 -7 -20 -15t-25 -4z" />
    <glyph glyph-name="caron" unicode="&#x2c7;" 
d="M190 1372l154 -190q27 -35 55 0l154 190q10 2 22 -5t15 -21l-184 -363q-33 -66 -68 0l-188 363q1 26 40 26z" />
    <glyph glyph-name="uni02C9" unicode="&#x2c9;" 
d="M594 1130q0 -37 -14 -57h-418q-16 20 -17 57q0 37 17 60h418q14 -23 14 -60z" />
    <glyph glyph-name="breve" unicode="&#x2d8;" 
d="M369 1026q-109 0 -165 68t-48 200q8 6 22 6t23 -6q16 -76 64 -114q47 -38 103 -37q56 0 104 38t67 113q6 6 20 6t25 -6q6 -132 -50 -200t-165 -68z" />
    <glyph glyph-name="dotaccent" unicode="&#x2d9;" 
d="M268 1148q0 46 31 76t77 29t73 -31t27 -78t-31 -74q-29 -26 -75 -26t-74 29t-28 75z" />
    <glyph glyph-name="ring" unicode="&#x2da;" 
d="M276 1146q0 -46 27 -77t67 -31t66 31t25 78q0 47 -27 77q-28 30 -66 30t-65 -32q-27 -30 -27 -76zM369 1313q74 0 124 -50t50 -117t-49 -116t-125 -49t-125 49t-49 116t50 117t124 50z" />
    <glyph glyph-name="ogonek" unicode="&#x2db;" 
d="M367 -227q-1 -39 21 -72t75 -33t98 31q16 -10 17 -35q-74 -92 -187 -92q-76 0 -122 41t-46 108q1 137 228 289h47q-131 -119 -131 -237z" />
    <glyph glyph-name="tilde" unicode="&#x2dc;" 
d="M311 1194h111q66 0 94 13t64 67q25 12 34 -12q-20 -88 -77 -150q-37 -33 -101 -33h-108q-66 -1 -103 -25t-67 -81q-8 -6 -20 -3t-15 11q6 31 30 87t46 79q44 47 112 47z" />
    <glyph glyph-name="hungarumlaut" unicode="&#x2dd;" 
d="M688 1237l-188 -274q-12 -2 -25 4q-12 6 -10 18l113 334q18 41 34 47q16 2 66 -25q62 -26 10 -104zM418 1237l-189 -274q-12 -2 -23 4t-11 18l112 334q20 43 35 45q16 4 66 -23q31 -19 34 -43t-24 -61z" />
    <glyph glyph-name="pi" unicode="&#x3c0;" horiz-adv-x="1024" 
d="M45 547q0 129 80 195t207 65h413q182 0 218 20q10 4 13 -1q3 -4 -7 -38t-34 -67t-194 -31q-49 -156 -49 -397q0 -195 107 -195q82 0 162 107q8 12 18 0q2 -10 0 -21q-39 -106 -109 -159t-142 -53t-111 46q-38 48 -46 98t-6 105q5 129 107 473h-258q-35 -283 -95 -536
q-47 -186 -135 -187q-33 1 -53 19t-19 42t25 53t31 38q117 141 164 571q-98 0 -157 -32q-58 -33 -101 -123q-10 -28 -19 -19q-10 10 -10 27z" />
    <glyph glyph-name="uni2010" unicode="&#x2010;" horiz-adv-x="655" 
d="M590 448q0 -38 -17 -59l-477 -45q-30 25 -30 61t16 56l477 45q31 -20 31 -58z" />
    <glyph glyph-name="figuredash" unicode="&#x2012;" horiz-adv-x="1024" 
d="M66 696h892v-100h-892v100z" />
    <glyph glyph-name="endash" unicode="&#x2013;" horiz-adv-x="1024" 
d="M0 471h1024v-100h-1024v100z" />
    <glyph glyph-name="emdash" unicode="&#x2014;" horiz-adv-x="2048" 
d="M0 471h2048v-100h-2048v100z" />
    <glyph glyph-name="quoteleft" unicode="&#x2018;" horiz-adv-x="481" 
d="M265 969q-58 0 -105 58t-47 148t67 164q68 74 172 105q33 -16 15 -43q-156 -72 -156 -176q0 -53 34 -83t68 -32q55 -4 56 -57q0 -31 -23 -57t-81 -27z" />
    <glyph glyph-name="quoteright" unicode="&#x2019;" horiz-adv-x="481" 
d="M113 1350q1 32 23 58t80 26t106 -58t47 -149q0 -90 -68 -164t-172 -105q-33 16 -14 43q156 72 155 177q0 53 -33 83q-34 30 -69 31q-55 4 -55 58z" />
    <glyph glyph-name="quotesinglbase" unicode="&#x201a;" horiz-adv-x="440" 
d="M92 121q0 31 22 57t81 27q57 -1 105 -59t47 -148t-69 -164t-169 -104q-33 16 -15 43q156 72 156 176q0 53 -34 83t-69 31q-55 4 -55 58z" />
    <glyph glyph-name="quotedblleft" unicode="&#x201c;" horiz-adv-x="827" 
d="M265 969q-58 0 -105 58t-47 148t67 164q68 74 172 105q33 -16 15 -43q-156 -72 -156 -176q0 -53 34 -83t68 -32q55 -4 56 -57q0 -31 -23 -57t-81 -27zM611 969q-58 0 -105 58t-47 148t67 164q68 74 172 105q33 -16 15 -43q-156 -72 -156 -176q0 -53 34 -83t68 -32
q55 -4 56 -57q0 -31 -23 -57t-81 -27z" />
    <glyph glyph-name="quotedblright" unicode="&#x201d;" horiz-adv-x="827" 
d="M113 1350q1 32 23 58t80 26t106 -58t47 -149q0 -90 -68 -164t-172 -105q-33 16 -14 43q156 72 155 177q0 53 -33 83q-34 30 -69 31q-55 4 -55 58zM459 1350q1 32 23 58t80 26t106 -58t47 -149q0 -90 -68 -164t-172 -105q-33 16 -14 43q156 72 155 177q0 53 -33 83
q-34 30 -69 31q-55 4 -55 58z" />
    <glyph glyph-name="quotedblbase" unicode="&#x201e;" horiz-adv-x="786" 
d="M92 121q0 31 22 57t81 27q57 -1 105 -59t47 -148t-69 -164t-169 -104q-33 16 -15 43q156 72 156 176q0 53 -34 83t-69 31q-55 4 -55 58zM542 205q58 -1 105 -59t46 -148t-69 -164t-169 -104q-33 16 -15 43q156 72 156 176q0 53 -34 83t-68 31q-55 4 -56 58q0 31 23 57
t81 27z" />
    <glyph glyph-name="dagger" unicode="&#x2020;" horiz-adv-x="983" 
d="M524 -260h-65v280q0 276 -72 517q45 55 59 132t15 226q-72 0 -156 -32q-85 -32 -119 -32t-59 25t-25 65q0 41 25 65t60 24t119 -31t155 -31q0 136 -32 232t-32 120t24 54t71 30q46 0 70 -30t24 -54t-32 -120t-32 -232q72 0 156 31t118 31t60 -25q25 -25 25 -65t-25 -64
q-25 -25 -60 -25q-34 0 -118 32t-156 32q0 -151 14 -227t60 -131q-72 -240 -72 -517v-280z" />
    <glyph glyph-name="daggerdbl" unicode="&#x2021;" horiz-adv-x="983" 
d="M492 1384q44 0 68 -30t24 -52t-31 -117t-31 -229q66 0 158 31t108 31q90 0 91 -88q0 -86 -91 -86q-26 0 -110 30t-156 29q0 -131 14 -201t60 -114q-45 -41 -59 -114t-15 -224q66 0 158 31t108 30q90 0 91 -88q0 -86 -91 -86q-26 0 -110 30t-156 30q0 -131 31 -237
t31 -130t-24 -54t-68 -30t-69 31q-24 31 -24 53t31 128t31 239q-70 0 -155 -30t-111 -30q-90 0 -91 86q0 88 91 88q16 -1 108 -31t158 -30q-1 152 -15 224t-59 114q45 44 59 114t15 201q-70 0 -155 -30t-111 -29q-90 0 -91 86q0 88 91 88q16 0 108 -31t158 -31
q0 132 -31 228t-31 118t24 52t69 30z" />
    <glyph glyph-name="bullet" unicode="&#x2022;" horiz-adv-x="794" 
d="M397 973q119 0 202 -83t83 -202t-83 -201q-83 -81 -202 -81t-201 82t-83 200q1 119 83 202t201 83z" />
    <glyph glyph-name="onedotenleader" unicode="&#x2024;" horiz-adv-x="1024" 
d="M513 205q50 0 82 -35t32 -85t-32 -82t-81 -32t-83 31t-34 82t33 86t83 35z" />
    <glyph glyph-name="twodotenleader" unicode="&#x2025;" horiz-adv-x="1024" 
d="M769 205q50 0 82 -35t32 -85t-32 -82t-81 -32t-83 31t-34 82t33 86t83 35zM257 205q50 0 82 -35t32 -85t-32 -82t-81 -32t-83 31t-34 82t33 86t83 35z" />
    <glyph glyph-name="ellipsis" unicode="&#x2026;" horiz-adv-x="2048" 
d="M344 -29q-49 0 -83 31t-34 82t33 86t83 35t82 -35t32 -85t-32 -82t-81 -32zM1708 -29q-49 0 -83 31t-34 82t33 86t83 35t82 -35t32 -85t-32 -82t-81 -32zM1026 -29q-49 0 -83 31t-34 82t33 86t83 35t82 -35t32 -85t-32 -82t-81 -32z" />
    <glyph glyph-name="perthousand" unicode="&#x2030;" horiz-adv-x="2342" 
d="M1262 1300l-834 -1382q-25 0 -43 12t-18 33l827 1372q39 4 68 -35zM1954 29q155 1 155 321t-155 320q-49 0 -91 -42t-63 -184q-6 -47 -6 -96q0 -207 77 -286q34 -34 83 -33zM2251 348q0 -196 -130 -313q-71 -63 -169 -63t-169 62q-132 118 -130 314q0 139 78 259t221 120
t221 -120t78 -259zM549 933q0 212 -73 287q-34 34 -83 34t-83 -34t-49 -90q-54 -199 0 -396q15 -54 49 -88t83 -34t83 34t48 90q25 100 25 197zM690 932q0 -195 -130 -314q-71 -63 -169 -63t-169 63q-130 115 -130 314q0 139 78 259t221 120t221 -120t78 -259zM1257 29
q156 1 156 321t-156 320q-49 0 -83 -34q-76 -78 -76 -287q0 -210 77 -287q34 -34 82 -33zM1554 348q0 -198 -130 -313q-71 -63 -169 -63t-169 62q-130 116 -130 314q0 139 78 259t221 120t221 -120t78 -259z" />
    <glyph glyph-name="guilsinglleft" unicode="&#x2039;" horiz-adv-x="477" 
d="M385 733l-143 -287q-10 -25 0 -49l143 -291q-8 -20 -35 -26q-209 268 -240 305t-4 68q57 68 244 307q27 -4 35 -27z" />
    <glyph glyph-name="guilsinglright" unicode="&#x203a;" horiz-adv-x="477" 
d="M236 446l-144 287q8 23 35 27q186 -240 244 -307q27 -31 -4 -68t-240 -305q-27 6 -35 26l144 291q10 24 0 49z" />
    <glyph glyph-name="fraction" unicode="&#x2044;" horiz-adv-x="204" 
d="M-375 -29q575 872 893 1368q43 0 64 -47q-430 -647 -901 -1374q-52 0 -56 53z" />
    <glyph glyph-name="zero.superior" unicode="&#x2070;" 
d="M371 1397q-152 -1 -152 -357t151 -356t150 352q0 233 -71 321q-33 40 -78 40zM371 1450q100 0 171 -65q132 -121 132 -345q0 -166 -78 -288t-226 -121q-148 0 -227 122q-77 121 -77 285t78 288q80 124 227 124z" />
    <glyph glyph-name="four.superior" unicode="&#x2074;" 
d="M391 883h-317q-18 0 -19 20q0 16 19 41l436 561q18 25 53 25t35 -7t-4 -16l-422 -540q-10 -17 -3 -21t40 -4h184q25 0 31 5t6 28v223q0 16 12 25q41 23 97 22q23 0 22 -39v-235q0 -17 5 -23t26 -6h76q12 -8 12 -28t-12 -31h-68q-27 0 -33 -5t-6 -28v-29q0 -90 10 -108
t70 -25l37 -4q6 -8 5 -24t-9 -19q-86 4 -196 4t-165 -4q-8 4 -10 19t6 24l37 4q60 8 72 28t12 105v25q0 25 -6 31t-33 6z" />
    <glyph glyph-name="five.superior" unicode="&#x2075;" 
d="M629 932q0 -158 -158 -258t-346 -105q-14 6 -17 28t11 34q167 2 279 77q112 76 112 188t-109 162t-258 50q-33 0 -12 55l76 217q6 18 11 24t22 9l350 43q14 -4 14 -10q-20 -59 -53 -100l-266 -33q-33 -4 -42 -9t-16 -22l-18 -43q-12 -29 29 -31l20 -2q371 -39 371 -274z
" />
    <glyph glyph-name="six.superior" unicode="&#x2076;" 
d="M215 942q0 -110 48 -184q47 -74 117 -74t110 44t40 130t-44 144t-113 59q-33 0 -66 -8q-21 10 -8 32q80 47 164 47t147 -68q64 -70 64 -176t-87 -182t-224 -75q-137 0 -219 89q-81 89 -81 218q0 227 191 387q90 76 205 119t200 53q11 -2 15 -17t-6 -22
q-182 -57 -285 -145q-168 -143 -168 -371z" />
    <glyph glyph-name="seven.superior" unicode="&#x2077;" 
d="M487 1331h-251q-68 0 -94 -10t-50 -55q-31 -14 -39 14q39 102 51 160q86 -4 148 -4h235q170 0 191 4q8 -2 8 -15q-59 -74 -131 -204l-352 -637q-18 -4 -38 4q-19 8 -20 24l344 621q13 20 17 28q4 9 9 17t6 14t3 12t-2 17q-4 10 -35 10z" />
    <glyph glyph-name="eight.superior" unicode="&#x2078;" 
d="M514 1257q0 55 -40 97t-100 43q-60 0 -98 -38t-38 -95q0 -101 184 -160q92 49 92 153zM211 842q0 -62 47 -110t117 -48q71 0 113 39t42 100q1 132 -202 195q-117 -45 -117 -176zM651 844q-1 -100 -79 -156t-201 -57q-123 0 -203 50t-80 155q0 74 52 128t130 78v5
q-66 27 -108 75t-41 113q0 95 75 155q74 60 184 60t180 -51t69 -149q0 -98 -152 -173q174 -88 174 -233z" />
    <glyph glyph-name="nine.superior" unicode="&#x2079;" 
d="M518 1139q0 96 -42 177t-128 81q-57 0 -101 -44t-44 -117t43 -131t116 -58q31 0 68 4q16 -12 4 -31q-61 -49 -147 -49t-152 58q-65 58 -65 164q0 105 88 181t221 76t214 -92t77 -246q-6 -233 -221 -397q-129 -96 -343 -125q-12 2 -15 17t5 24q131 35 215 88
q207 129 207 420z" />
    <glyph glyph-name="parenleft.superior" unicode="&#x207d;" horiz-adv-x="450" 
d="M219 1016q0 -326 213 -496q6 -12 -1 -23t-19 -14q-158 74 -243 215q-85 142 -85 318t85 317t243 215q12 -2 19 -13t1 -24q-213 -169 -213 -495z" />
    <glyph glyph-name="parenright.superior" unicode="&#x207e;" horiz-adv-x="450" 
d="M367 1016q0 -176 -85 -318t-243 -215q-11 1 -19 13t-2 24q213 170 213 496t-213 495q-6 11 1 23t20 14q158 -74 243 -215t85 -317z" />
    <glyph glyph-name="n.superior" unicode="&#x207f;" horiz-adv-x="868" 
d="M164 817v240q0 45 -6 58t-33 28l-29 14q-8 5 -8 17t6 18q152 49 187 65q10 0 14 -12v-59q0 -16 18 -17q127 76 215 76q186 0 187 -198v-230q0 -75 11 -99t56 -30l43 -6q9 -6 9 -22t-11 -19q-119 4 -189 4t-138 -4q-10 4 -12 19q-1 15 10 22l22 6q45 12 56 34t12 95v201
q0 145 -142 145q-78 0 -123 -49q-25 -29 -24 -84v-213q0 -73 11 -95t56 -34l23 -6q10 -6 9 -22t-11 -19q-78 4 -148 4t-180 -4q-10 4 -11 19t9 22l43 6q44 6 56 30t12 99z" />
    <glyph glyph-name="zero.inferior" unicode="&#x2080;" 
d="M371 416q-152 0 -152 -356t151 -357q151 0 150 352q0 233 -71 321q-33 40 -78 40zM371 469q100 0 171 -65q132 -121 132 -345q0 -165 -78 -287t-226 -122t-227 122q-77 122 -77 286t78 287q80 124 227 124z" />
    <glyph glyph-name="one.inferior" unicode="&#x2081;" 
d="M313 -160v396q0 63 -11 88t-52 28l-64 6q-8 6 -9 20t7 19q100 16 250 72q14 0 15 -10q-4 -43 -5 -150v-469q0 -82 14 -104t72 -29l35 -4q8 -6 7 -22t-9 -21q-123 4 -189 4t-179 -4q-7 4 -9 20t7 23l34 4q59 7 73 29t13 104z" />
    <glyph glyph-name="two.inferior" unicode="&#x2082;" 
d="M303 -238h146q79 0 121 14t73 60q27 10 39 -14q-10 -20 -22 -51q-38 -95 -58 -111q-102 4 -231 4h-148q-92 0 -153 -4q-16 16 -7 33q88 55 213 180q188 188 189 340q0 80 -42 126t-112 46q-109 0 -184 -129q-12 -8 -26 -1q-13 7 -13 19q84 195 285 195q111 0 177 -58
t64 -153q0 -127 -155 -283l-115 -114q-70 -71 -70 -85t29 -14z" />
    <glyph glyph-name="three.inferior" unicode="&#x2083;" 
d="M520 -106q0 76 -42 129t-127 53t-148 -60q-37 18 -27 56q162 68 221 108t59 100q0 62 -31 91q-32 29 -77 28q-100 0 -174 -118q-27 -2 -35 22q39 78 109 122t156 44t140 -43q56 -43 56 -96t-33 -92t-116 -78q-6 -8 -1 -14t17 -7q82 0 141 -53t60 -141q0 -147 -144 -254
t-292 -107q-146 0 -146 80q0 29 19 47q19 19 51 19t60 -46t71 -44q73 0 153 70t80 184z" />
    <glyph glyph-name="four.inferior" unicode="&#x2084;" 
d="M391 -98h-317q-18 0 -19 20q0 16 19 41l436 561q18 25 53 25t35 -7t-4 -16l-422 -540q-10 -18 -3 -22t40 -3h184q25 0 31 5t6 28v223q0 16 12 25q41 23 97 22q23 0 22 -39v-235q0 -18 5 -24t26 -5h76q12 -8 12 -30t-12 -29h-68q-27 0 -33 -5t-6 -28v-29q0 -90 10 -108
t70 -25l37 -4q6 -7 5 -23t-9 -20q-86 4 -196 4t-165 -4q-8 4 -10 19t6 24l37 4q60 7 72 27t12 106v25q0 25 -6 31t-33 6z" />
    <glyph glyph-name="five.inferior" unicode="&#x2085;" 
d="M629 -49q0 -158 -158 -258t-346 -105q-14 6 -17 28t11 34q167 2 279 77t112 187t-109 163q-109 50 -258 50q-33 0 -12 55l76 217q6 19 11 25t22 8l350 43q14 -4 14 -10q-20 -59 -53 -100l-266 -33q-33 -4 -42 -9t-16 -22l-18 -43q-12 -29 29 -31l20 -2q371 -39 371 -274z
" />
    <glyph glyph-name="six.inferior" unicode="&#x2086;" 
d="M215 -39q0 -111 48 -185q47 -74 117 -73q70 0 110 44t40 130q0 87 -44 145t-113 58q-33 0 -66 -8q-21 10 -8 32q80 48 164 48t147 -70q64 -70 64 -176t-87 -180q-87 -76 -224 -76t-219 89q-81 89 -81 218q0 227 191 387q90 76 205 119t200 53q11 -2 15 -17t-6 -22
q-182 -57 -285 -145q-168 -143 -168 -371z" />
    <glyph glyph-name="seven.inferior" unicode="&#x2087;" 
d="M487 350h-251q-68 0 -94 -10t-50 -55q-31 -14 -39 14q39 102 51 160q86 -4 148 -4h235q170 0 191 4q8 -2 8 -15q-59 -74 -131 -204l-352 -637q-18 -4 -38 4q-19 8 -20 24l344 621q13 20 17 28q4 9 9 17t6 14q1 7 3 13t-2 16t-35 10z" />
    <glyph glyph-name="eight.inferior" unicode="&#x2088;" 
d="M514 276q0 56 -40 98t-100 42t-98 -38t-38 -95q0 -101 184 -160q92 49 92 153zM211 -139q0 -61 47 -109t117 -49q71 0 113 39t42 100q1 132 -202 195q-117 -45 -117 -176zM651 -137q-1 -101 -79 -157t-201 -56t-203 50t-80 155q0 74 52 128t130 78v5q-66 28 -108 76
t-41 112q0 96 75 156q74 60 184 59q110 0 180 -51q70 -52 69 -150q0 -98 -152 -172q174 -88 174 -233z" />
    <glyph glyph-name="nine.inferior" unicode="&#x2089;" 
d="M518 158q0 96 -42 177t-128 81q-57 0 -101 -44t-44 -117t43 -131t116 -58q31 0 68 4q16 -12 4 -31q-61 -49 -147 -49t-152 58q-65 58 -65 164t88 182t221 75q133 0 214 -92t77 -246q-6 -233 -221 -397q-129 -96 -343 -125q-12 2 -15 17t5 24q131 35 215 88
q207 129 207 420z" />
    <glyph glyph-name="parenleft.inferior" unicode="&#x208d;" horiz-adv-x="450" 
d="M219 55q0 -326 213 -495q6 -12 -1 -24t-19 -13q-158 74 -243 215t-85 317q0 175 85 317t243 216q12 -2 19 -14t1 -23q-213 -170 -213 -496z" />
    <glyph glyph-name="parenright.inferior" unicode="&#x208e;" horiz-adv-x="450" 
d="M367 55q0 -176 -85 -317t-243 -215q-12 2 -20 13q-7 11 -1 24q213 170 213 496t-213 495q-6 12 1 23t20 14q158 -74 243 -216t85 -317z" />
    <glyph glyph-name="colonmonetary" unicode="&#x20a1;" horiz-adv-x="1196" 
d="M717 0q-70 0 -119 8l-43 -147q-10 -17 -36 -17t-34 17l47 159q-66 14 -108 35l-59 -194q-10 -17 -36 -17t-34 17l67 225q-281 170 -280 537q0 155 59 285t158 216q182 156 420 156l45 152q8 14 34 14t33 -14l-45 -152q61 0 117 -12l49 164q10 14 35 14t35 -14l-53 -177
q43 -10 73 -19t43 -7q10 -188 19 -273q-6 -10 -22 -10t-25 8q-23 137 -117 207l-322 -1087q53 -12 111 -13q238 0 348 265q7 8 23 6t20 -15q-8 -69 -34 -147t-46 -111q-29 -2 -59 -18q-92 -41 -264 -41zM262 634q0 -277 135 -431l303 1016q-182 -6 -310 -157t-128 -428z
M768 1221l-317 -1069q47 -39 102 -60l330 1104q-47 23 -115 25z" />
    <glyph glyph-name="franc" unicode="&#x20a3;" horiz-adv-x="1024" 
d="M862 549q-18 0 -28 8l-15 37q-18 50 -59 64t-158 14h-133q-43 0 -53 -9t-10 -45v-188h411q12 -8 12 -33t-12 -32h-411v-74q0 -158 17 -196t101 -46l66 -6q8 -5 7 -25t-11 -24q-172 6 -258 6t-236 -6q-8 4 -10 21t6 28l49 6q82 10 100 48q17 38 17 194v74h-180
q-12 9 -12 33t12 32h180v561q0 160 -17 200t-100 46l-31 2q-8 5 -7 25t12 24q135 -6 217 -6h358q236 0 262 6q0 -145 6 -256q-4 -10 -20 -12t-27 6q-14 78 -42 120t-86 57t-197 16h-119q-43 -1 -50 -11t-7 -63v-348q0 -39 9 -46t54 -8h133q131 -1 167 13t52 65l13 39
q6 8 25 8t24 -8l-6 -155l6 -148q-3 -8 -21 -8z" />
    <glyph glyph-name="lira" unicode="&#x20a4;" horiz-adv-x="1024" 
d="M233 745q19 -1 25 3t4 16v57q0 213 123 351t313 139q74 0 115 -31q23 -20 23 -48t-22 -56t-35 -29q-13 0 -34 14q-171 135 -275 -18q-56 -82 -56 -237t8 -164t27 -9h301q14 -6 14 -34t-14 -31h-285q-27 0 -35 -5t-8 -24v-70q0 -20 7 -25t34 -5h287q14 -10 14 -37t-14 -29
h-285q-43 0 -45 -29q-4 -47 -48 -134t-139 -146l3 -4q76 10 142 1t196 -65t194 -55q102 0 80 147q-6 36 8 54t43 18t51 -28t21 -64q0 -82 -95 -156t-199 -74t-247 78t-214 78t-71 -67q0 -20 -28 -38q-29 -17 -49 -18q-37 0 -37 45t98 125q67 57 101 145t34 132t-5 50t-28 5
h-182q-12 4 -12 30t12 36h187q22 0 28 3t4 15v94q0 17 -5 23t-27 6h-179q-12 4 -12 32t12 33h176z" />
    <glyph glyph-name="peseta" unicode="&#x20a7;" horiz-adv-x="1024" 
d="M401 1292q472 0 500 -329h96q13 -10 13 -34t-13 -32h-94q-10 -195 -184 -285q-117 -59 -254 -59q-10 4 -11 20t9 19q272 51 282 305h-409v-604q0 -158 17 -196t106 -48l51 -6q8 -9 6 -27t-10 -22q-160 6 -252 6t-215 -6q-10 4 -11 21t7 28l47 6q78 10 94 48t17 196v604
h-173q-10 8 -10 33t10 33h173v49q-1 129 -15 164t-82 43l-65 8q-10 8 -9 25t13 24q113 16 366 16zM336 963h407q-10 125 -90 197t-217 71q-72 0 -86 -11t-14 -59v-198z" />
    <glyph glyph-name="Euro" unicode="&#x20ac;" horiz-adv-x="1024" 
d="M682 1311q74 0 195 -45q20 -8 43 -11q0 -106 16 -241q-6 -12 -20 -14t-23 10q-27 112 -78 178t-168 66t-205 -122q-88 -120 -106 -360h524q6 -8 1 -33t-21 -32h-508q-6 -53 -2 -117h489q10 -8 4 -33t-24 -33h-463q14 -246 100 -368t226 -123q174 0 266 252q8 8 21 5
t18 -14q-25 -154 -68 -243q-41 -16 -53 -21q-111 -41 -197 -41q-221 -1 -345 145t-148 408h-129q-8 10 0 33t20 33h105q-4 41 2 117h-101q-7 11 1 33t20 32h84q39 240 180 390t344 149z" />
    <glyph glyph-name="uni2113" unicode="&#x2113;" horiz-adv-x="860" 
d="M385 1057v-393q287 262 287 479q0 74 -34 126t-104 52q-70 1 -110 -67t-39 -197zM233 866q0 240 85 380t245 140q93 0 149 -62t56 -152q0 -177 -133 -335q-72 -85 -113 -126t-137 -129v-242q0 -145 40 -212t128 -67q121 0 207 185q10 8 24 -3t15 -26q-92 -246 -303 -246
q-142 1 -202 95t-61 266v117q-53 -51 -163 -138q-10 1 -18 13t-5 22q153 137 186 170v350z" />
    <glyph glyph-name="trademark" unicode="&#x2122;" horiz-adv-x="1126" 
d="M598 971q-58 0 -88 -2q-4 2 -5 11t3 15l10 2q43 4 47 43q16 160 17 244q0 35 -45 41l-15 2q-2 4 -2 14t4 13q20 -2 70 -2t80 2q0 -20 45 -105l51 -96q33 -57 35 -57q4 4 35 57l49 88q31 55 47 113q32 -2 72 -2t63 2q8 -2 9 -14t-7 -13l-18 -2q-35 -4 -35 -45
q0 -234 8 -254t23 -25l28 -6q4 -4 4 -14t-4 -12q-27 2 -89 2t-89 -2q-4 4 -5 13t5 13q42 13 45 22q4 9 4 42l-4 182q0 18 -2 21q-2 0 -35 -62l-51 -100q-52 -104 -61 -131q-18 -6 -23 -2q-14 41 -53 116l-51 103q-39 84 -43 86q-7 -10 -9 -221q0 -31 9 -41t47 -15
q8 -12 0 -26q-18 2 -76 2zM225 1087v217q0 8 -6 7h-49q-72 0 -88 -66q-16 -6 -21 6q10 66 25 123h18q12 -16 22 -19t36 -3h235q35 0 58 22h16q-14 -57 -10 -129q-2 -4 -10 -5t-11 3q-4 27 -9 38q-14 30 -66 30h-43q-10 0 -12 -3t-3 -20v-207q0 -45 5 -60t28 -22l31 -4
q4 -4 3 -14t-5 -12q-41 2 -107 2t-98 -2q-14 6 -2 26l28 4q35 4 35 88z" />
    <glyph glyph-name="Omega" unicode="&#x2126;" horiz-adv-x="1576" 
d="M276 0q-65 0 -163 -14q-57 285 -70 321q4 17 19 17t24 -17q43 -94 90 -129t150 -35h196q-159 126 -200 172q-112 128 -138 188q-59 135 -59 251q1 290 195 460t468 170q180 0 330 -68t244 -211q150 -226 54 -538q-11 -39 -44 -88t-47 -73t-63 -72l-63 -63
q-13 -13 -73 -66t-71 -62h196q102 0 150 35q47 35 90 129q8 17 23 17t20 -17q-12 -37 -70 -321q-98 14 -164 14h-399v41q176 211 240 315q125 212 125 438t-125 376t-348 151q-223 0 -351 -162t-130 -391q-1 -229 105 -394q106 -166 259 -333v-41h-400z" />
    <glyph glyph-name="estimated" unicode="&#x212e;" horiz-adv-x="1671" 
d="M1309 674v368q0 25 -19 43q-186 191 -453 191t-456 -195q-18 -18 -19 -47v-360q0 -10 11 -10h927q9 0 9 10zM1583 627h-1210q-10 0 -11 -11v-364q0 -23 17 -43q186 -197 459 -197q141 0 266 58t215 163h108q-104 -121 -259 -191t-332 -71q-309 0 -529 197
q-219 198 -219 476t219 476t529 197q310 0 528 -198q219 -198 219 -476v-16z" />
    <glyph glyph-name="onethird" unicode="&#x2153;" horiz-adv-x="1597" 
d="M301 -29q575 872 893 1368q43 0 63 -47q-430 -647 -901 -1374q-51 0 -55 53zM1215 412q-85 0 -148 -60q-37 18 -27 56q162 68 221 108t59 100q0 62 -31 91q-32 29 -77 28q-100 0 -174 -119q-27 -2 -34 23q39 78 108 122q70 44 156 44t141 -43q55 -42 55 -96t-32 -93
t-117 -77q-14 -16 16 -21q85 -10 143 -59t58 -135q0 -147 -144 -254t-290 -107t-148 80q0 29 20 47q20 19 50 19q32 0 60 -46t71 -45q74 0 154 71t79 183q0 75 -42 129t-127 54zM205 682v395q0 63 -11 88t-53 29l-63 6q-8 6 -9 20t7 19q100 16 250 72q14 0 14 -11
q-4 -43 -4 -149v-469q0 -82 13 -104t73 -29l35 -4q8 -7 7 -23t-9 -20q-123 4 -189 4t-180 -4q-8 4 -9 20t7 23l35 4q59 7 73 29t13 104z" />
    <glyph glyph-name="twothirds" unicode="&#x2154;" horiz-adv-x="1597" 
d="M375 -29q575 872 893 1368q43 0 63 -47q-430 -647 -901 -1374q-51 0 -55 53zM1417 229q0 75 -42 129t-127 54t-148 -60q-37 18 -27 56q162 68 221 108q60 40 60 100q0 62 -32 91t-77 28q-100 0 -174 -119q-27 -2 -35 23q39 78 109 122q69 44 155 44t142 -43
q56 -42 55 -96q0 -54 -33 -93t-116 -77q-14 -16 16 -21q86 -10 143 -59t58 -135q-1 -147 -145 -254t-290 -107t-147 80q0 29 19 47q18 19 50 19t60 -46t72 -45q74 0 154 71t79 183zM256 604h145q80 0 122 13t73 61q27 10 39 -14q-10 -20 -35 -83t-45 -79q-102 4 -231 4h-148
q-92 0 -153 -4q-20 16 -7 33q88 55 213 180q188 188 189 340q0 80 -42 126t-112 46q-109 0 -184 -129q-12 -8 -26 -1q-13 7 -13 19q84 195 285 195q110 -1 176 -59t65 -152q0 -127 -155 -283l-115 -115q-70 -70 -70 -84t29 -14z" />
    <glyph glyph-name="oneeighth" unicode="&#x215b;" horiz-adv-x="1597" 
d="M225 682v395q0 63 -11 88t-52 29l-64 6q-8 6 -9 20t7 19q100 16 250 72q14 0 14 -11q-4 -43 -4 -149v-469q0 -82 14 -104t72 -29l35 -4q8 -7 7 -23t-9 -20q-123 4 -189 4t-180 -4q-8 4 -9 20t7 23l35 4q59 7 73 29t13 104zM266 -29q575 872 893 1368q43 0 64 -47
q-430 -647 -901 -1374q-52 0 -56 53zM1356 612q0 56 -40 98t-100 42t-98 -38t-39 -96q1 -100 185 -159q92 49 92 153zM1217 39q71 0 113 39t42 100q0 132 -203 195q-117 -45 -116 -176q0 -61 47 -109t117 -49zM963 590q1 96 75 156t184 59q110 0 180 -51q70 -52 68 -150
q0 -98 -151 -172q174 -88 174 -233q0 -101 -79 -157t-202 -56q-122 0 -202 50t-80 154q0 74 52 128t130 79v4q-66 27 -108 76t-41 113z" />
    <glyph glyph-name="threeeighths" unicode="&#x215c;" horiz-adv-x="1597" 
d="M469 735q0 75 -42 129t-127 54t-148 -60q-37 18 -27 55q162 68 221 108q60 39 60 101t-32 90t-77 29q-100 0 -174 -119q-27 -2 -35 23q39 78 109 122q69 44 155 44t142 -43q56 -42 55 -96q0 -54 -33 -93t-117 -78q-14 -16 17 -20q86 -10 143 -59t57 -136
q0 -148 -144 -254t-290 -106t-147 80q0 29 19 47t50 18t60 -45t72 -45q74 0 154 71t79 183zM344 -29q575 872 893 1368q43 0 63 -47q-430 -647 -901 -1374q-51 0 -55 53zM1407 612q0 56 -40 98t-100 42q-61 0 -99 -38t-38 -96q1 -100 185 -159q92 49 92 153zM1104 197
q0 -61 47 -109t117 -49q70 0 112 39t43 100q1 132 -202 195q-117 -45 -117 -176zM1014 590q0 96 74 156t185 59q109 0 179 -51q70 -52 70 -150t-152 -172q174 -88 174 -233q0 -101 -79 -157t-201 -56t-203 50q-80 50 -80 154q0 74 52 128t130 79v4q-65 27 -107 76t-42 113z
" />
    <glyph glyph-name="fiveeighths" unicode="&#x215d;" horiz-adv-x="1597" 
d="M492 756q0 113 -109 163t-258 50q-33 0 -12 55l75 217q6 19 12 25t21 8l350 43q14 -4 15 -10q-21 -60 -54 -101l-266 -32q-33 -4 -42 -10t-15 -21l-19 -43q-12 -29 29 -31l21 -2q371 -39 370 -274q0 -158 -158 -258t-346 -105q-14 6 -17 28t11 34q166 2 279 76t113 188z
M340 -29q575 872 893 1368q43 0 63 -47q-430 -647 -901 -1374q-51 0 -55 53zM1411 612q0 56 -40 98t-100 42q-61 0 -99 -38t-37 -96q0 -100 184 -159q92 49 92 153zM1108 197q0 -61 47 -109t117 -49q70 0 112 39t43 100q1 132 -202 195q-117 -45 -117 -176zM1018 590
q0 96 74 156t185 59q109 0 179 -51q70 -52 70 -150t-152 -172q174 -88 174 -233q0 -101 -79 -157t-201 -56t-203 50q-80 50 -80 154q0 74 52 128t130 79v4q-65 27 -107 76t-42 113z" />
    <glyph glyph-name="seveneighths" unicode="&#x215e;" horiz-adv-x="1597" 
d="M532 1192h-251q-68 0 -94 -10t-50 -56q-31 -14 -39 15q39 102 52 159q86 -4 147 -4h235q170 0 191 4q8 -2 8 -14q-59 -74 -131 -205l-352 -637q-18 -4 -38 4t-20 25l345 621q8 12 14 24t11 20t6 15q1 6 3 12q2 7 -2 17t-35 10zM315 -29q575 872 893 1368q43 0 64 -47
q-430 -647 -901 -1374q-52 0 -56 53zM1405 612q0 56 -40 98t-100 42q-61 0 -99 -38t-38 -96q1 -100 185 -159q92 49 92 153zM1102 197q0 -61 47 -109t117 -49q70 0 112 39t43 100q1 132 -202 195q-117 -45 -117 -176zM1012 590q0 96 74 156t185 59q109 0 179 -51
q70 -52 70 -150t-152 -172q174 -88 174 -233q0 -101 -79 -157t-202 -56t-203 50t-79 154q0 74 52 128t130 79v4q-65 27 -107 76t-42 113z" />
    <glyph glyph-name="partialdiff" unicode="&#x2202;" horiz-adv-x="1011" 
d="M524 719q-86 0 -152 -76t-94 -168t-28 -182t47 -176t129 -86q112 0 183 108t96 217q25 108 49 238q-113 125 -230 125zM469 793q93 0 153 -27t148 -104q18 88 20 221t-25 236q-28 103 -105 178q-76 75 -200 75t-253 -78q-23 -12 -33 -1t-10 56t39 70q76 43 206 43
t234 -61q103 -61 165 -163q124 -204 124 -462q0 -324 -105 -530q-67 -127 -153 -201t-234 -74t-254 117q-104 117 -104 278t114 294t273 133z" />
    <glyph glyph-name="Delta" unicode="&#x2206;" horiz-adv-x="1302" 
d="M279 96h694q47 0 60 9t3 34l-342 867q-39 106 -51 129h-14q-4 -6 -54 -121l-364 -864q-14 -35 -2 -45q13 -9 70 -9zM1227 0h-1147q-41 0 -4 90t112 258q76 168 115 258l248 555q47 104 39 146q49 16 106 77q18 0 25 -18q16 -41 48 -134t52 -142l408 -996q12 -34 12 -64
t-14 -30z" />
    <glyph glyph-name="product" unicode="&#x220f;" horiz-adv-x="1619" 
d="M1278 1434q102 0 242 6q10 -4 11 -24t-7 -27l-43 -5q-87 -8 -105 -50t-18 -208v-1044q0 -166 18 -206t105 -50l49 -6q8 -6 7 -26t-11 -25q-147 6 -254 6t-242 -6q-10 4 -11 22t7 29l39 6q92 14 109 52q16 38 16 204v1210q0 47 -14 57q-15 9 -89 9h-555q-74 0 -88 -9
t-14 -57v-1210q0 -164 20 -206t105 -50l59 -6q8 -6 8 -26t-12 -25q-166 6 -260 6l-237 -6q-10 4 -12 22q-1 18 8 29l34 6q84 14 102 53q17 39 17 203v1044q0 162 -20 207t-101 51l-53 5q-8 6 -7 26t11 25l258 -6h928z" />
    <glyph glyph-name="summation" unicode="&#x2211;" horiz-adv-x="1400" 
d="M150 -225q-6 0 -80 -4q-12 -2 -17 12q-4 14 8 31l592 708q29 33 2 68l-581 809q-10 14 -3 26t19 13q49 -4 150 -4h927l13 -293q-4 -15 -18 -15t-19 15q-16 63 -28 92q-11 29 -41 67q-53 66 -218 66h-549l506 -696q29 -41 2 -74l-547 -666h752q104 0 151 41t99 162
q6 14 22 14t21 -14q-20 -78 -80 -373l-143 15h-940z" />
    <glyph glyph-name="minus" unicode="&#x2212;" horiz-adv-x="1024" 
d="M907 471v-100h-788v100h788z" />
    <glyph glyph-name="uni2215" unicode="&#x2215;" horiz-adv-x="204" 
d="M-375 -29q575 872 893 1368q43 0 64 -47q-430 -647 -901 -1374q-52 0 -56 53z" />
    <glyph glyph-name="uni2219" unicode="&#x2219;" horiz-adv-x="512" 
d="M258 303q-49 0 -83 31t-34 82t33 86t83 35t82 -35t32 -85t-32 -82t-81 -32z" />
    <glyph glyph-name="radical" unicode="&#x221a;" horiz-adv-x="1124" 
d="M53 854l-33 68l310 151l393 -840l260 1645l72 -10l-307 -1946l-498 1028z" />
    <glyph glyph-name="infinity" unicode="&#x221e;" horiz-adv-x="1562" 
d="M1281 288q75 52 77 138t-72 153t-192 25q-80 -29 -244 -166q148 -144 200 -162q28 -10 70 -20q86 -20 161 32zM471 604q-119 40 -193 -26t-71 -152q2 -86 77 -138q113 -78 259 5q43 25 69 47t103 98q-164 137 -244 166zM181 245q-89 103 -76 233t141 207q170 103 388 -52
q48 -35 148 -127q100 92 148 127q216 156 389 52q127 -77 140 -207t-76 -233q-122 -142 -337 -66q-90 32 -169 102q-36 31 -95 90l-36 -36q-117 -117 -227 -156q-214 -75 -338 66z" />
    <glyph glyph-name="integral" unicode="&#x222b;" horiz-adv-x="561" 
d="M129 -303q-86 0 -116 75t46 109q53 23 117 -37q51 -49 74 60q10 57 8 127q-12 412 -12 579v267q0 410 53 571q51 135 167 135q60 0 96 -35q36 -34 36 -68t-33 -59q-69 -53 -133 0q-36 29 -58 20t-24 -35t20 -247t19 -364l-2 -398q-2 -354 -62 -527t-196 -173z" />
    <glyph glyph-name="approxequal" unicode="&#x2248;" horiz-adv-x="1024" 
d="M326 305q-80 0 -168 -115l-62 52q84 166 242 166q74 0 186 -58t188 -57q76 0 146 115l64 -46q-76 -170 -226 -169q-78 0 -215 65q-20 10 -27 13q-8 3 -24 11t-26 11q-10 2 -26 7q-18 5 -52 5zM700 506q-82 0 -192 53q-8 4 -28 13q-20 10 -26 14q-7 4 -43 18t-79 14
q-86 0 -174 -114l-62 51q84 166 248 166q72 1 184 -57t177 -58q83 0 153 115l64 -45q-76 -170 -222 -170z" />
    <glyph glyph-name="notequal" unicode="&#x2260;" horiz-adv-x="1024" 
d="M119 625h475l129 196l78 -53l-94 -143h200v-101h-268l-137 -207h405v-100h-471l-131 -199l-78 54l97 145h-205v100h272l137 207h-409v101z" />
    <glyph glyph-name="lessequal" unicode="&#x2264;" horiz-adv-x="1024" 
d="M115 672l796 379v-119l-649 -303v-4l649 -306v-116l-796 377v92zM907 100v-100h-788v100h788z" />
    <glyph glyph-name="greaterequal" unicode="&#x2265;" horiz-adv-x="1024" 
d="M907 100v-100h-788v100h788zM113 1051l796 -379v-92l-796 -377v116l649 306v4l-649 303v119z" />
    <glyph glyph-name="lozenge" unicode="&#x25ca;" horiz-adv-x="1060" 
d="M866 700l-336 654l-335 -654l335 -671zM592 -82h-123l-397 782l397 764h123l397 -764z" />
    <glyph glyph-name="A.titling" unicode="&#xe000;" horiz-adv-x="1249" 
d="M449 608h284q41 0 45 7t-10 49l-115 342q-41 129 -55 155q0 -5 -32 -80t-50 -123l-106 -296q-14 -39 -10 -47q6 -7 49 -7zM760 545h-342q-37 0 -46 -6t-20 -37l-108 -320q-23 -68 -23 -100t62 -43l75 -12q12 -18 -2 -33q-26 2 -164 4t-231 -4q-16 12 -4 33l78 18
q41 9 61 29q43 42 230 534l204 543q39 106 33 156q68 27 88 65q8 12 11 12q20 0 25 -15q24 -73 51 -155q26 -82 55 -167l268 -779q47 -137 77 -179t91 -52l61 -10q16 -14 -2 -33q-96 6 -180 6t-281 -6q-18 14 -4 33l60 12q68 12 67 49q0 29 -26 109l-99 305q-10 31 -20 37
t-45 6z" />
    <glyph glyph-name="AE.titling" unicode="&#xe001;" horiz-adv-x="1710" 
d="M565 733h166q51 0 62 11q10 11 10 59v411q0 59 -6 76h-9q-16 -10 -47 -69q-169 -324 -203 -398t-27 -82t54 -8zM891 0q-147 0 -289 -6q-20 12 -4 33l82 12q68 8 96 43t27 242v284q0 46 -10 58t-62 12h-194q-45 0 -61 -10t-36 -47q-127 -227 -237 -478q-37 -84 35 -98
l100 -18q6 -5 5 -17t-7 -16q-70 6 -190 6t-226 -6q-8 6 -9 17t5 16l72 16q38 10 66 42t76 118t511 958q43 84 42 109t-46 33l-123 22q-18 20 2 33q111 -6 238 -6h514q246 0 276 6l31 -260q-10 -14 -37 -6q-20 82 -55 131t-109 65t-205 17h-112q-82 0 -88 -27
q-10 -41 -11 -150v-325q0 -49 10 -59t52 -11h115q143 -1 185 13t60 79l21 78q6 4 19 4t18 -6l-6 -199l6 -198q-4 -6 -18 -6t-19 4l-23 82q-18 59 -55 73q-57 20 -188 21h-115q-43 0 -52 -10t-10 -60v-289q0 -186 38 -228t237 -44t283 40t147 194q8 4 21 1t16 -12
q-8 -57 -35 -147t-51 -129q-179 0 -271 4l-258 2h-194z" />
    <glyph glyph-name="Aacute.titling" unicode="&#xe002;" horiz-adv-x="1249" 
d="M814 1686q22 0 41 -39t9 -52q-4 -12 -39 -28l-268 -121q-23 8 -12 31l225 186q22 23 44 23zM449 608h284q41 0 45 7t-10 49l-115 342q-41 129 -55 155q0 -5 -32 -80t-50 -123l-106 -296q-14 -39 -10 -47q6 -7 49 -7zM760 545h-342q-37 0 -46 -6t-20 -37l-108 -320
q-23 -68 -23 -100t62 -43l75 -12q12 -18 -2 -33q-26 2 -164 4t-231 -4q-16 12 -4 33l78 18q41 9 61 29q43 42 230 534l204 543q39 106 33 156q68 27 88 65q8 12 11 12q20 0 25 -15q24 -73 51 -155q26 -82 55 -167l268 -779q47 -137 77 -179t91 -52l61 -10q16 -14 -2 -33
q-96 6 -180 6t-281 -6q-18 14 -4 33l60 12q68 12 67 49q0 29 -26 109l-99 305q-10 31 -20 37t-45 6z" />
    <glyph glyph-name="Abreve.titling" unicode="&#xe003;" horiz-adv-x="1249" 
d="M625 1464q-193 0 -187 211q16 12 31 0q27 -127 157 -127t156 127q12 12 29 0q7 -211 -186 -211zM449 608h284q41 0 45 7t-10 49l-115 342q-41 129 -55 155q0 -5 -32 -80t-50 -123l-106 -296q-14 -39 -10 -47q6 -7 49 -7zM760 545h-342q-37 0 -46 -6t-20 -37l-108 -320
q-23 -68 -23 -100t62 -43l75 -12q12 -18 -2 -33q-26 2 -164 4t-231 -4q-16 12 -4 33l78 18q41 9 61 29q43 42 230 534l204 543q39 106 33 156q68 27 88 65q8 12 11 12q20 0 25 -15q24 -73 51 -155q26 -82 55 -167l268 -779q47 -137 77 -179t91 -52l61 -10q16 -14 -2 -33
q-96 6 -180 6t-281 -6q-18 14 -4 33l60 12q68 12 67 49q0 29 -26 109l-99 305q-10 31 -20 37t-45 6z" />
    <glyph glyph-name="Acircumflex.titling" unicode="&#xe004;" horiz-adv-x="1249" 
d="M399 1473l201 188q35 35 68 0l198 -188q0 -20 -20 -25l-189 106q-25 16 -51 0l-184 -106q-23 0 -23 25zM449 608h284q41 0 45 7t-10 49l-115 342q-41 129 -55 155q0 -5 -32 -80t-50 -123l-106 -296q-14 -39 -10 -47q6 -7 49 -7zM760 545h-342q-37 0 -46 -6t-20 -37
l-108 -320q-23 -68 -23 -100t62 -43l75 -12q12 -18 -2 -33q-26 2 -164 4t-231 -4q-16 12 -4 33l78 18q41 9 61 29q43 42 230 534l204 543q39 106 33 156q68 27 88 65q8 12 11 12q20 0 25 -15q24 -73 51 -155q26 -82 55 -167l268 -779q47 -137 77 -179t91 -52l61 -10
q16 -14 -2 -33q-96 6 -180 6t-281 -6q-18 14 -4 33l60 12q68 12 67 49q0 29 -26 109l-99 305q-10 31 -20 37t-45 6z" />
    <glyph glyph-name="Adieresis.titling" unicode="&#xe005;" horiz-adv-x="1249" 
d="M784 1444q-80 0 -84 82q0 34 24 60t60 26t57 -26t21 -60t-21 -59q-22 -23 -57 -23zM467 1444q-76 0 -80 82q0 34 23 60q24 26 58 26t58 -26t23 -60q1 -34 -23 -58t-59 -24zM449 608h284q41 0 45 7t-10 49l-115 342q-41 129 -55 155q0 -5 -32 -80t-50 -123l-106 -296
q-14 -39 -10 -47q6 -7 49 -7zM760 545h-342q-37 0 -46 -6t-20 -37l-108 -320q-23 -68 -23 -100t62 -43l75 -12q12 -18 -2 -33q-26 2 -164 4t-231 -4q-16 12 -4 33l78 18q41 9 61 29q43 42 230 534l204 543q39 106 33 156q68 27 88 65q8 12 11 12q20 0 25 -15q24 -73 51 -155
q26 -82 55 -167l268 -779q47 -137 77 -179t91 -52l61 -10q16 -14 -2 -33q-96 6 -180 6t-281 -6q-18 14 -4 33l60 12q68 12 67 49q0 29 -26 109l-99 305q-10 31 -20 37t-45 6z" />
    <glyph glyph-name="Agrave.titling" unicode="&#xe006;" horiz-adv-x="1249" 
d="M473 1688q14 0 43 -25l219 -184q8 -23 -12 -31l-266 121q-33 12 -40 29t17 55q25 35 39 35zM449 608h284q41 0 45 7t-10 49l-115 342q-41 129 -55 155q0 -5 -32 -80t-50 -123l-106 -296q-14 -39 -10 -47q6 -7 49 -7zM760 545h-342q-37 0 -46 -6t-20 -37l-108 -320
q-23 -68 -23 -100t62 -43l75 -12q12 -18 -2 -33q-26 2 -164 4t-231 -4q-16 12 -4 33l78 18q41 9 61 29q43 42 230 534l204 543q39 106 33 156q68 27 88 65q8 12 11 12q20 0 25 -15q24 -73 51 -155q26 -82 55 -167l268 -779q47 -137 77 -179t91 -52l61 -10q16 -14 -2 -33
q-96 6 -180 6t-281 -6q-18 14 -4 33l60 12q68 12 67 49q0 29 -26 109l-99 305q-10 31 -20 37t-45 6z" />
    <glyph glyph-name="Amacron.titling" unicode="&#xe007;" horiz-adv-x="1249" 
d="M825 1514q0 -30 -14 -46h-350q-14 16 -15 45q0 29 15 46h350q14 -15 14 -45zM449 608h284q41 0 45 7t-10 49l-115 342q-41 129 -55 155q0 -5 -32 -80t-50 -123l-106 -296q-14 -39 -10 -47q6 -7 49 -7zM760 545h-342q-37 0 -46 -6t-20 -37l-108 -320q-23 -68 -23 -100
t62 -43l75 -12q12 -18 -2 -33q-26 2 -164 4t-231 -4q-16 12 -4 33l78 18q41 9 61 29q43 42 230 534l204 543q39 106 33 156q68 27 88 65q8 12 11 12q20 0 25 -15q24 -73 51 -155q26 -82 55 -167l268 -779q47 -137 77 -179t91 -52l61 -10q16 -14 -2 -33q-96 6 -180 6t-281 -6
q-18 14 -4 33l60 12q68 12 67 49q0 29 -26 109l-99 305q-10 31 -20 37t-45 6z" />
    <glyph glyph-name="Aogonek.titling" unicode="&#xe008;" horiz-adv-x="1249" 
d="M760 545h-342q-37 0 -46 -6t-20 -37l-108 -320q-23 -68 -23 -100t62 -43l75 -12q12 -18 -2 -33q-26 2 -164 4t-231 -4q-16 12 -4 33l78 18q41 9 61 29q43 42 230 534l204 543q39 106 33 156q68 27 88 65q8 12 11 12q20 0 25 -15q24 -73 51 -155q26 -82 55 -167l268 -779
q47 -137 77 -179t91 -52l61 -10q16 -14 -2 -33q-66 4 -145 4q-127 -100 -127 -209q0 -47 28 -77t83 -30q56 0 100 17q10 -2 10 -27q-76 -82 -190 -82q-63 0 -111 41q-47 41 -47 113q0 131 192 256q-131 0 -254 -6q-18 14 -4 33l60 12q68 12 67 49q0 29 -26 109l-99 305
q-10 31 -20 37t-45 6zM449 608h284q41 0 45 7t-10 49l-115 342q-41 129 -55 155q0 -5 -32 -80t-50 -123l-106 -296q-14 -39 -10 -47q6 -7 49 -7z" />
    <glyph glyph-name="Aring.titling" unicode="&#xe009;" horiz-adv-x="1249" 
d="M630 1692q-34 0 -58 -28t-23 -70q-1 -42 23 -70t59 -27q35 0 59 28q24 27 25 69q0 42 -25 70q-26 28 -60 28zM631 1745q69 0 113 -45q44 -46 44 -106t-45 -104t-113 -44t-111 44q-44 44 -44 104t44 106t112 45zM449 608h284q41 0 45 7t-10 49l-115 342q-41 129 -55 155
q0 -5 -32 -80t-50 -123l-106 -296q-14 -39 -10 -47q6 -7 49 -7zM760 545h-342q-37 0 -46 -6t-20 -37l-108 -320q-23 -68 -23 -100t62 -43l75 -12q12 -18 -2 -33q-26 2 -164 4t-231 -4q-16 12 -4 33l78 18q41 9 61 29q43 42 230 534l204 543q39 106 33 156q68 27 88 65
q8 12 11 12q20 0 25 -15q24 -73 51 -155q26 -82 55 -167l268 -779q47 -137 77 -179t91 -52l61 -10q16 -14 -2 -33q-96 6 -180 6t-281 -6q-18 14 -4 33l60 12q68 12 67 49q0 29 -26 109l-99 305q-10 31 -20 37t-45 6z" />
    <glyph glyph-name="Atilde.titling" unicode="&#xe00a;" horiz-adv-x="1249" 
d="M690 1499h-90q-55 0 -84 -19t-55 -69q-18 -10 -29 6q6 29 26 74q19 45 38 63q31 35 92 35h92q51 1 75 13t54 55q16 12 29 -6q-35 -152 -148 -152zM449 608h284q41 0 45 7t-10 49l-115 342q-41 129 -55 155q0 -5 -32 -80t-50 -123l-106 -296q-14 -39 -10 -47q6 -7 49 -7z
M760 545h-342q-37 0 -46 -6t-20 -37l-108 -320q-23 -68 -23 -100t62 -43l75 -12q12 -18 -2 -33q-26 2 -164 4t-231 -4q-16 12 -4 33l78 18q41 9 61 29q43 42 230 534l204 543q39 106 33 156q68 27 88 65q8 12 11 12q20 0 25 -15q24 -73 51 -155q26 -82 55 -167l268 -779
q47 -137 77 -179t91 -52l61 -10q16 -14 -2 -33q-96 6 -180 6t-281 -6q-18 14 -4 33l60 12q68 12 67 49q0 29 -26 109l-99 305q-10 31 -20 37t-45 6z" />
    <glyph glyph-name="B.titling" unicode="&#xe00b;" horiz-adv-x="1212" 
d="M430 1221v-416q0 -41 13 -49t79 -8q182 0 265 61t83 210t-89 221t-207 71q-118 0 -130 -21q-14 -18 -14 -69zM430 649v-325q0 -180 38 -232t180 -53q142 0 232 76q89 77 89 231t-91 254t-317 100q-91 0 -111 -8t-20 -43zM274 324v653q0 247 -26 279t-72 40l-72 13
q-16 16 2 32q240 17 451 17q483 1 481 -314q0 -180 -204 -280q-16 -23 32 -33q109 -23 193 -107t84 -233q0 -191 -134 -295t-399 -104l-227 8q-113 0 -277 -6q-16 14 -4 33l56 10q63 10 88 39q28 37 28 248z" />
    <glyph glyph-name="C.titling" unicode="&#xe00c;" horiz-adv-x="1441" 
d="M885 1337q-258 1 -428 -163t-170 -481t175 -497t437 -182q193 0 306 107q92 87 151 205q6 6 19 4t18 -11q-10 -75 -42 -163t-57 -123q-10 -2 -71 -19q-147 -47 -330 -47q-303 0 -502 139q-289 201 -289 572q0 166 71 303t187 229q219 174 553 174q186 0 361 -41
q35 -8 51 -6q0 -63 33 -293q-4 -6 -18 -7t-19 3q-80 297 -436 297z" />
    <glyph glyph-name="Cacute.titling" unicode="&#xe00d;" horiz-adv-x="1441" 
d="M1014 1686q22 0 41 -39q18 -39 8 -52q-4 -12 -39 -28l-268 -121q-23 8 -13 31l226 186q23 23 45 23zM885 1337q-258 1 -428 -163t-170 -481t175 -497t437 -182q193 0 306 107q92 87 151 205q6 6 19 4t18 -11q-10 -75 -42 -163t-57 -123q-10 -2 -71 -19q-147 -47 -330 -47
q-303 0 -502 139q-289 201 -289 572q0 166 71 303t187 229q219 174 553 174q186 0 361 -41q35 -8 51 -6q0 -63 33 -293q-4 -6 -18 -7t-19 3q-80 297 -436 297z" />
    <glyph glyph-name="Ccaron.titling" unicode="&#xe00e;" horiz-adv-x="1441" 
d="M829 1466l-198 193q0 23 22 22l187 -106q27 -14 51 0l188 106q18 -4 19 -22l-199 -193q-37 -33 -70 0zM885 1337q-258 1 -428 -163t-170 -481t175 -497t437 -182q193 0 306 107q92 87 151 205q6 6 19 4t18 -11q-10 -75 -42 -163t-57 -123q-10 -2 -71 -19
q-147 -47 -330 -47q-303 0 -502 139q-289 201 -289 572q0 166 71 303t187 229q219 174 553 174q186 0 361 -41q35 -8 51 -6q0 -63 33 -293q-4 -6 -18 -7t-19 3q-80 297 -436 297z" />
    <glyph glyph-name="Ccedilla.titling" unicode="&#xe00f;" horiz-adv-x="1441" 
d="M102 678q0 166 71 303t187 229q219 174 553 174q186 0 361 -41q35 -8 51 -6q0 -63 33 -293q-4 -6 -18 -7t-19 3q-80 297 -436 297q-258 1 -428 -163t-170 -481t175 -497t437 -182q193 0 306 107q92 87 151 205q6 6 19 4t18 -11q-10 -75 -42 -163t-57 -123q-10 -2 -71 -19
q-147 -47 -330 -47h-4l-47 -78q-10 -16 12 -30q82 -55 82 -117t-51 -101q-51 -40 -117 -40q-94 0 -94 57q0 14 11 28t29 13q18 0 46 -24q29 -24 39 -23q45 0 45 51q0 31 -29 61t-74 48v10l93 149q-260 6 -443 135q-289 201 -289 572z" />
    <glyph glyph-name="D.titling" unicode="&#xe010;" horiz-adv-x="1613" 
d="M430 1102v-735q0 -193 39 -250q63 -86 246 -86q307 0 460 175t152 482q0 171 -78 319q-45 87 -115 153t-193 108q-121 43 -287 43t-201 -31q-23 -22 -23 -178zM274 326v673q0 213 -34 263q-23 29 -80 41l-27 6q-6 2 -6 15t8 17q272 17 524 17t445 -68q192 -68 300 -232
t108 -364q0 -198 -92 -360q-91 -162 -272 -256t-472 -94l-314 16q-160 0 -258 -6q-8 2 -9 13t5 20l52 10q78 16 100 49t22 240z" />
    <glyph glyph-name="Dcaron.titling" unicode="&#xe011;" horiz-adv-x="1613" 
d="M758 1466l-199 193q0 23 23 22l186 -106q27 -14 51 0l189 106q18 -4 18 -22l-199 -193q-36 -33 -69 0zM430 1102v-735q0 -193 39 -250q63 -86 246 -86q307 0 460 175t152 482q0 171 -78 319q-45 87 -115 153t-193 108q-121 43 -287 43t-201 -31q-23 -22 -23 -178z
M274 326v673q0 213 -34 263q-23 29 -80 41l-27 6q-6 2 -6 15t8 17q272 17 524 17t445 -68q192 -68 300 -232t108 -364q0 -198 -92 -360q-91 -162 -272 -256t-472 -94l-314 16q-160 0 -258 -6q-8 2 -9 13t5 20l52 10q78 16 100 49t22 240z" />
    <glyph glyph-name="Dcroat.titling" unicode="&#xe012;" horiz-adv-x="1626" 
d="M430 1102v-367h305q16 -25 0 -59h-305v-309q0 -193 39 -250q63 -86 246 -86q307 0 460 175t152 482q0 171 -78 319q-45 87 -115 153t-193 108q-121 43 -287 43t-201 -31q-23 -22 -23 -178zM274 326v350h-178q-10 12 -10 30t10 29h178v264q0 213 -34 263q-23 29 -80 41
l-27 6q-6 2 -6 15t8 17q272 17 524 17t445 -68q192 -68 300 -232t108 -364q0 -198 -92 -360q-91 -162 -272 -256t-472 -94l-314 16q-160 0 -258 -6q-8 2 -9 13t5 20l52 10q78 16 100 49t22 240z" />
    <glyph glyph-name="E.titling" unicode="&#xe013;" horiz-adv-x="1181" 
d="M362 0q-147 0 -288 -6q-20 12 -4 33l82 12q68 8 95 43t27 242v704q0 199 -28 242q-25 33 -94 47l-39 8q-14 18 4 33q85 0 127 -4l118 -2h377q246 0 277 6l31 -260q-10 -14 -37 -6q-20 82 -56 131t-108 65q-74 16 -205 17h-113q-82 0 -88 -27q-10 -41 -10 -150v-325
q0 -49 9 -59t53 -11h114q144 -1 186 13t60 79l20 78q6 4 20 4t17 -6l-6 -199l6 -198q-4 -6 -17 -6t-20 4l-22 82q-18 59 -55 73q-57 20 -189 21h-114q-42 0 -52 -10t-10 -60v-289q0 -186 38 -228t237 -44t283 40t147 194q8 4 21 1t15 -12q-9 -57 -35 -147t-51 -129
q-180 0 -270 4l-258 2h-195z" />
    <glyph glyph-name="Eacute.titling" unicode="&#xe014;" horiz-adv-x="1181" 
d="M782 1686q22 0 40 -39q19 -39 9 -52q-3 -12 -38 -28l-269 -121q-23 8 -12 31l225 186q23 23 45 23zM362 0q-147 0 -288 -6q-20 12 -4 33l82 12q68 8 95 43t27 242v704q0 199 -28 242q-25 33 -94 47l-39 8q-14 18 4 33q85 0 127 -4l118 -2h377q246 0 277 6l31 -260
q-10 -14 -37 -6q-20 82 -56 131t-108 65q-74 16 -205 17h-113q-82 0 -88 -27q-10 -41 -10 -150v-325q0 -49 9 -59t53 -11h114q144 -1 186 13t60 79l20 78q6 4 20 4t17 -6l-6 -199l6 -198q-4 -6 -17 -6t-20 4l-22 82q-18 59 -55 73q-57 20 -189 21h-114q-42 0 -52 -10
t-10 -60v-289q0 -186 38 -228t237 -44t283 40t147 194q8 4 21 1t15 -12q-9 -57 -35 -147t-51 -129q-180 0 -270 4l-258 2h-195z" />
    <glyph glyph-name="Ecaron.titling" unicode="&#xe015;" horiz-adv-x="1181" 
d="M586 1466l-199 193q0 23 23 22l186 -106q27 -14 51 0l189 106q18 -4 18 -22l-199 -193q-36 -33 -69 0zM362 0q-147 0 -288 -6q-20 12 -4 33l82 12q68 8 95 43t27 242v704q0 199 -28 242q-25 33 -94 47l-39 8q-14 18 4 33q85 0 127 -4l118 -2h377q246 0 277 6l31 -260
q-10 -14 -37 -6q-20 82 -56 131t-108 65q-74 16 -205 17h-113q-82 0 -88 -27q-10 -41 -10 -150v-325q0 -49 9 -59t53 -11h114q144 -1 186 13t60 79l20 78q6 4 20 4t17 -6l-6 -199l6 -198q-4 -6 -17 -6t-20 4l-22 82q-18 59 -55 73q-57 20 -189 21h-114q-42 0 -52 -10
t-10 -60v-289q0 -186 38 -228t237 -44t283 40t147 194q8 4 21 1t15 -12q-9 -57 -35 -147t-51 -129q-180 0 -270 4l-258 2h-195z" />
    <glyph glyph-name="Ecircumflex.titling" unicode="&#xe016;" horiz-adv-x="1181" 
d="M358 1473l201 188q35 35 68 0l198 -188q0 -20 -20 -25l-189 106q-25 16 -51 0l-184 -106q-23 0 -23 25zM362 0q-147 0 -288 -6q-20 12 -4 33l82 12q68 8 95 43t27 242v704q0 199 -28 242q-25 33 -94 47l-39 8q-14 18 4 33q85 0 127 -4l118 -2h377q246 0 277 6l31 -260
q-10 -14 -37 -6q-20 82 -56 131t-108 65q-74 16 -205 17h-113q-82 0 -88 -27q-10 -41 -10 -150v-325q0 -49 9 -59t53 -11h114q144 -1 186 13t60 79l20 78q6 4 20 4t17 -6l-6 -199l6 -198q-4 -6 -17 -6t-20 4l-22 82q-18 59 -55 73q-57 20 -189 21h-114q-42 0 -52 -10
t-10 -60v-289q0 -186 38 -228t237 -44t283 40t147 194q8 4 21 1t15 -12q-9 -57 -35 -147t-51 -129q-180 0 -270 4l-258 2h-195z" />
    <glyph glyph-name="Edieresis.titling" unicode="&#xe017;" horiz-adv-x="1181" 
d="M768 1444q-80 0 -84 82q0 34 24 60t60 26t56 -26q22 -26 22 -60t-22 -58t-56 -24zM451 1444q-76 0 -80 82q1 34 23 60t57 26t59 -26t22 -60q0 -34 -23 -58t-58 -24zM362 0q-147 0 -288 -6q-20 12 -4 33l82 12q68 8 95 43t27 242v704q0 199 -28 242q-25 33 -94 47l-39 8
q-14 18 4 33q85 0 127 -4l118 -2h377q246 0 277 6l31 -260q-10 -14 -37 -6q-20 82 -56 131t-108 65q-74 16 -205 17h-113q-82 0 -88 -27q-10 -41 -10 -150v-325q0 -49 9 -59t53 -11h114q144 -1 186 13t60 79l20 78q6 4 20 4t17 -6l-6 -199l6 -198q-4 -6 -17 -6t-20 4l-22 82
q-18 59 -55 73q-57 20 -189 21h-114q-42 0 -52 -10t-10 -60v-289q0 -186 38 -228t237 -44t283 40t147 194q8 4 21 1t15 -12q-9 -57 -35 -147t-51 -129q-180 0 -270 4l-258 2h-195z" />
    <glyph glyph-name="Edotaccent.titling" unicode="&#xe018;" horiz-adv-x="1181" 
d="M609 1452q-37 0 -59 22t-22 60q-4 34 21 58t61 24t59 -24t23 -58t-24 -58t-59 -24zM362 0q-147 0 -288 -6q-20 12 -4 33l82 12q68 8 95 43t27 242v704q0 199 -28 242q-25 33 -94 47l-39 8q-14 18 4 33q85 0 127 -4l118 -2h377q246 0 277 6l31 -260q-10 -14 -37 -6
q-20 82 -56 131t-108 65q-74 16 -205 17h-113q-82 0 -88 -27q-10 -41 -10 -150v-325q0 -49 9 -59t53 -11h114q144 -1 186 13t60 79l20 78q6 4 20 4t17 -6l-6 -199l6 -198q-4 -6 -17 -6t-20 4l-22 82q-18 59 -55 73q-57 20 -189 21h-114q-42 0 -52 -10t-10 -60v-289
q0 -186 38 -228t237 -44t283 40t147 194q8 4 21 1t15 -12q-9 -57 -35 -147t-51 -129q-180 0 -270 4l-258 2h-195z" />
    <glyph glyph-name="Egrave.titling" unicode="&#xe019;" horiz-adv-x="1181" 
d="M465 1688q14 0 43 -25l219 -184q8 -23 -12 -31l-266 121q-33 12 -40 29t17 55q25 35 39 35zM362 0q-147 0 -288 -6q-20 12 -4 33l82 12q68 8 95 43t27 242v704q0 199 -28 242q-25 33 -94 47l-39 8q-14 18 4 33q85 0 127 -4l118 -2h377q246 0 277 6l31 -260
q-10 -14 -37 -6q-20 82 -56 131t-108 65q-74 16 -205 17h-113q-82 0 -88 -27q-10 -41 -10 -150v-325q0 -49 9 -59t53 -11h114q144 -1 186 13t60 79l20 78q6 4 20 4t17 -6l-6 -199l6 -198q-4 -6 -17 -6t-20 4l-22 82q-18 59 -55 73q-57 20 -189 21h-114q-42 0 -52 -10
t-10 -60v-289q0 -186 38 -228t237 -44t283 40t147 194q8 4 21 1t15 -12q-9 -57 -35 -147t-51 -129q-180 0 -270 4l-258 2h-195z" />
    <glyph glyph-name="Emacron.titling" unicode="&#xe01a;" horiz-adv-x="1181" 
d="M418 1513q0 29 14 46h350q14 -15 14 -45t-14 -46h-350q-14 16 -14 45zM362 0q-147 0 -288 -6q-20 12 -4 33l82 12q68 8 95 43t27 242v704q0 199 -28 242q-25 33 -94 47l-39 8q-14 18 4 33q85 0 127 -4l118 -2h377q246 0 277 6l31 -260q-10 -14 -37 -6q-20 82 -56 131
t-108 65q-74 16 -205 17h-113q-82 0 -88 -27q-10 -41 -10 -150v-325q0 -49 9 -59t53 -11h114q144 -1 186 13t60 79l20 78q6 4 20 4t17 -6l-6 -199l6 -198q-4 -6 -17 -6t-20 4l-22 82q-18 59 -55 73q-57 20 -189 21h-114q-42 0 -52 -10t-10 -60v-289q0 -186 38 -228t237 -44
t283 40t147 194q8 4 21 1t15 -12q-9 -57 -35 -147t-51 -129q-180 0 -270 4l-258 2h-195z" />
    <glyph glyph-name="Eogonek.titling" unicode="&#xe01b;" horiz-adv-x="1181" 
d="M893 -203q0 -55 31 -85q58 -57 180 -7q10 -2 10 -27q-82 -84 -186 -84q-68 0 -113 41t-45 111q0 129 193 250q-274 4 -406 4h-195q-147 0 -288 -6q-20 12 -4 33l82 12q68 8 95 43t27 242v704q0 199 -28 242q-25 33 -94 47l-39 8q-14 18 4 33q85 0 127 -4l118 -2h377
q246 0 277 6l31 -260q-10 -14 -37 -6q-20 82 -56 131t-108 65q-74 16 -205 17h-113q-82 0 -88 -27q-10 -41 -10 -150v-325q0 -49 9 -59t53 -11h114q144 -1 186 13t60 79l20 78q6 4 20 4t17 -6l-6 -199l6 -198q-4 -6 -17 -6t-20 4l-22 82q-18 59 -55 73q-57 20 -189 21h-114
q-42 0 -52 -10t-10 -60v-289q0 -186 38 -228t237 -44t283 40t147 194q8 4 21 1t15 -12q-9 -57 -35 -147t-51 -129l-73 2q-119 -104 -119 -199z" />
    <glyph glyph-name="Eth.titling" unicode="&#xe01c;" horiz-adv-x="1626" 
d="M430 1102v-367h356q16 -25 0 -59h-356v-309q0 -193 39 -250q63 -86 246 -86q307 0 460 175t152 482q0 171 -78 319q-45 87 -115 153t-193 108q-121 43 -287 43t-201 -31q-23 -22 -23 -178zM274 326v350h-178q-10 12 -10 30t10 29h178v264q0 213 -34 263q-23 29 -80 41
l-27 6q-6 2 -6 15t8 17q272 17 524 17t445 -68q192 -68 300 -232t108 -364q0 -198 -92 -360q-91 -162 -272 -256t-472 -94l-314 16q-160 0 -258 -6q-8 2 -9 13t5 20l52 10q78 16 100 49t22 240z" />
    <glyph glyph-name="Euro.fitted" unicode="&#xe01d;" horiz-adv-x="1265" 
d="M848 1311q129 0 250 -45q20 -8 43 -11q6 -145 22 -241q-6 -12 -20 -14t-23 10q-21 85 -67 139q-89 106 -239 105t-268 -125t-140 -357h673q6 -8 1 -33t-21 -32h-660q-6 -50 2 -117h637q10 -8 4 -33t-24 -33h-612q24 -236 134 -364t262 -127q152 0 234 93q65 73 107 150
q8 8 21 6t18 -14q-35 -170 -84 -235l-21 -8q-23 -8 -33 -13q-131 -41 -247 -41q-256 0 -403 153q-146 153 -169 400h-164q-8 10 0 33t21 33h139q-4 41 2 117h-121q-8 11 0 33t21 32h104q39 238 205 388t416 151z" />
    <glyph glyph-name="Euro.oldstyle" unicode="&#xe01e;" horiz-adv-x="1114" 
d="M743 1049q115 0 220 -37q25 -6 38 -8q0 -96 19 -207q-4 -11 -20 -11t-23 9q-55 188 -268 188q-117 0 -216 -93t-124 -261h577q6 -6 1 -33t-19 -33h-568q-6 -35 0 -102h549q10 -8 4 -34t-22 -32h-526q25 -174 123 -265t239 -91q166 0 277 190q12 6 24 4t16 -10
q-29 -147 -73 -203q-10 -2 -47 -16q-115 -33 -215 -33q-221 0 -355 117q-133 117 -159 307h-146q-8 6 0 32t19 34h120q-6 37 0 102h-102q-8 6 0 32t18 34h95q39 186 186 303t358 117z" />
    <glyph glyph-name="Euro.titling" unicode="&#xe01f;" horiz-adv-x="1024" 
d="M711 1311q98 0 192 -35q23 -6 43 -10q6 -123 23 -226q-14 -27 -33 -4q-39 158 -134 205q-46 23 -110 23q-141 0 -249 -127t-130 -375h572q12 -39 -21 -55h-557q-6 -50 2 -117h535q10 -8 4 -28t-25 -27h-510q9 -215 111 -367t250 -152q80 0 156 68t128 174q18 18 29 -8
q-29 -141 -94 -230l-21 -8q-118 -41 -204 -41q-463 0 -514 564h-125q-13 19 20 55h101q-4 41 2 117h-82q-14 21 20 55h66q41 244 183 396t372 153z" />
    <glyph glyph-name="F.titling" unicode="&#xe020;" horiz-adv-x="1095" 
d="M274 322v704q0 207 -23 243t-99 50l-29 6q-12 20 6 33q135 -6 219 -6h381q252 0 283 6q0 -141 6 -262q-8 -14 -37 -6q-14 84 -47 134t-108 65t-203 16h-101q-76 0 -84 -30t-8 -149v-350q0 -49 8 -60t51 -11h74q203 0 244 11t55 26t23 51l20 81q5 4 19 4t18 -6
q-8 -102 -8 -204t8 -193q-10 -10 -37 -2l-24 88q-14 55 -58 72q-51 16 -260 16h-74q-43 0 -51 -9t-8 -56v-262q0 -207 26 -239t97 -44l76 -12q16 -20 -2 -33q-141 6 -283 6t-244 -6q-8 4 -10 15t6 18l56 10q78 14 96 39q26 41 26 246z" />
    <glyph glyph-name="G.titling" unicode="&#xe021;" horiz-adv-x="1503" 
d="M1319 330v-123q0 -99 12 -117t37 -33q6 -10 -2 -18q-43 0 -100 -19q-176 -53 -355 -53q-393 0 -622 232q-90 90 -138 215t-49 248q0 283 185 481q225 242 647 241q134 0 230 -21t147 -22q4 -150 32 -294q-4 -9 -17 -9t-19 4q-37 113 -86 168q-106 127 -353 127
q-287 0 -434 -172t-147 -432q0 -317 162 -518t471 -201q186 0 227 56q20 29 20 129v88q0 141 -22 172t-123 47l-78 12q-20 16 0 33q178 -6 295 -6t213 6q18 -16 2 -33l-45 -8q-53 -8 -71 -42t-19 -138z" />
    <glyph glyph-name="Gbreve.titling" unicode="&#xe022;" horiz-adv-x="1503" 
d="M797 1464q-193 0 -187 211q16 12 31 0q27 -127 157 -127t156 127q12 12 29 0q7 -211 -186 -211zM1319 330v-123q0 -99 12 -117t37 -33q6 -10 -2 -18q-43 0 -100 -19q-176 -53 -355 -53q-393 0 -622 232q-90 90 -138 215t-49 248q0 283 185 481q225 242 647 241
q134 0 230 -21t147 -22q4 -150 32 -294q-4 -9 -17 -9t-19 4q-37 113 -86 168q-106 127 -353 127q-287 0 -434 -172t-147 -432q0 -317 162 -518t471 -201q186 0 227 56q20 29 20 129v88q0 141 -22 172t-123 47l-78 12q-20 16 0 33q178 -6 295 -6t213 6q18 -16 2 -33l-45 -8
q-53 -8 -71 -42t-19 -138z" />
    <glyph glyph-name="Gcommaaccent.titling" unicode="&#xe023;" horiz-adv-x="1503" 
d="M741 -206q1 30 21 50t59 21q39 0 78 -39t39 -111q0 -158 -201 -221q-8 2 -11 16t3 17q125 43 125 137q0 36 -25 56q-25 19 -56 31q-32 13 -32 43zM1319 330v-123q0 -99 12 -117t37 -33q6 -10 -2 -18q-43 0 -100 -19q-176 -53 -355 -53q-393 0 -622 232q-90 90 -138 215
t-49 248q0 283 185 481q225 242 647 241q134 0 230 -21t147 -22q4 -150 32 -294q-4 -9 -17 -9t-19 4q-37 113 -86 168q-106 127 -353 127q-287 0 -434 -172t-147 -432q0 -317 162 -518t471 -201q186 0 227 56q20 29 20 129v88q0 141 -22 172t-123 47l-78 12q-20 16 0 33
q178 -6 295 -6t213 6q18 -16 2 -33l-45 -8q-53 -8 -71 -42t-19 -138z" />
    <glyph glyph-name="H.titling" unicode="&#xe024;" horiz-adv-x="1660" 
d="M274 322v708q0 205 -28 246q-18 29 -96 41l-50 8q-14 23 2 33q141 -6 247 -6t241 6q12 -8 2 -33l-39 -6q-70 -12 -96 -43q-27 -37 -27 -246v-229q0 -45 14 -55t84 -11h607q70 0 83 9t13 57v229q0 205 -29 246q-18 27 -94 41l-41 8q-18 23 4 33q123 -6 238 -6t239 6
q18 -10 4 -33l-43 -10q-18 -6 -44 -11t-50 -26q-29 -39 -29 -248v-708q0 -209 29 -248q20 -25 94 -39l50 -8q16 -20 -5 -33q-124 6 -248 6t-235 -6q-20 12 -4 33l43 8q72 12 94 45q27 45 27 242v284q0 46 -13 56t-83 10h-607q-70 0 -84 -9t-14 -57v-284q0 -207 29 -246
q29 -33 94 -41l65 -8q12 -18 -2 -33q-138 6 -252 6t-239 -6q-8 2 -9 13t5 20l31 6q78 16 94 43q28 43 28 246z" />
    <glyph glyph-name="I.titling" unicode="&#xe025;" horiz-adv-x="704" 
d="M430 1024v-696q0 -213 24 -246t101 -47l51 -8q4 -9 4 -19t-8 -14q-160 6 -250 6t-250 -6q-8 4 -8 14t4 19l52 8q76 14 100 47t24 246v696q0 215 -24 247t-100 46l-50 8q-14 20 2 33q150 -6 258 -6t244 6q16 -10 2 -33l-51 -8q-77 -14 -101 -47t-24 -246z" />
    <glyph glyph-name="Iacute.titling" unicode="&#xe026;" horiz-adv-x="704" 
d="M544 1686q22 0 40 -39t8 -52q-4 -12 -39 -28l-268 -121q-23 8 -13 31l226 186q24 23 46 23zM430 1024v-696q0 -213 24 -246t101 -47l51 -8q4 -9 4 -19t-8 -14q-160 6 -250 6t-250 -6q-8 4 -8 14t4 19l52 8q76 14 100 47t24 246v696q0 215 -24 247t-100 46l-50 8
q-14 20 2 33q150 -6 258 -6t244 6q16 -10 2 -33l-51 -8q-77 -14 -101 -47t-24 -246z" />
    <glyph glyph-name="Icircumflex.titling" unicode="&#xe027;" horiz-adv-x="704" 
d="M119 1473l200 188q33 35 68 0l199 -188q0 -20 -21 -25l-188 106q-25 16 -51 0l-185 -106q-22 0 -22 25zM430 1024v-696q0 -213 24 -246t101 -47l51 -8q4 -9 4 -19t-8 -14q-160 6 -250 6t-250 -6q-8 4 -8 14t4 19l52 8q76 14 100 47t24 246v696q0 215 -24 247t-100 46
l-50 8q-14 20 2 33q150 -6 258 -6t244 6q16 -10 2 -33l-51 -8q-77 -14 -101 -47t-24 -246z" />
    <glyph glyph-name="Idieresis.titling" unicode="&#xe028;" horiz-adv-x="704" 
d="M512 1444q-80 0 -84 82q0 34 24 60t60 26t56 -26q22 -26 22 -60t-22 -58t-56 -24zM195 1444q-76 0 -80 82q1 34 23 60t57 26t59 -26t22 -60q0 -34 -23 -58t-58 -24zM430 1024v-696q0 -213 24 -246t101 -47l51 -8q4 -9 4 -19t-8 -14q-160 6 -250 6t-250 -6q-8 4 -8 14
t4 19l52 8q76 14 100 47t24 246v696q0 215 -24 247t-100 46l-50 8q-14 20 2 33q150 -6 258 -6t244 6q16 -10 2 -33l-51 -8q-77 -14 -101 -47t-24 -246z" />
    <glyph glyph-name="Idotaccent.titling" unicode="&#xe029;" horiz-adv-x="704" 
d="M353 1452q-37 0 -59 22t-23 58t23 60t60 24t59 -24t23 -58t-24 -58t-59 -24zM430 1024v-696q0 -213 24 -246t101 -47l51 -8q4 -9 4 -19t-8 -14q-160 6 -250 6t-250 -6q-8 4 -8 14t4 19l52 8q76 14 100 47t24 246v696q0 215 -24 247t-100 46l-50 8q-14 20 2 33
q150 -6 258 -6t244 6q16 -10 2 -33l-51 -8q-77 -14 -101 -47t-24 -246z" />
    <glyph glyph-name="Igrave.titling" unicode="&#xe02a;" horiz-adv-x="704" 
d="M202 1688q15 0 42 -25l219 -184q8 -23 -12 -31l-267 121q-33 12 -40 29q-7 18 18 54t40 36zM430 1024v-696q0 -213 24 -246t101 -47l51 -8q4 -9 4 -19t-8 -14q-160 6 -250 6t-250 -6q-8 4 -8 14t4 19l52 8q76 14 100 47t24 246v696q0 215 -24 247t-100 46l-50 8
q-14 20 2 33q150 -6 258 -6t244 6q16 -10 2 -33l-51 -8q-77 -14 -101 -47t-24 -246z" />
    <glyph glyph-name="Imacron.titling" unicode="&#xe02b;" horiz-adv-x="704" 
d="M162 1513q0 29 14 46h350q14 -15 14 -45t-14 -46h-350q-14 16 -14 45zM430 1024v-696q0 -213 24 -246t101 -47l51 -8q4 -9 4 -19t-8 -14q-160 6 -250 6t-250 -6q-8 4 -8 14t4 19l52 8q76 14 100 47t24 246v696q0 215 -24 247t-100 46l-50 8q-14 20 2 33q150 -6 258 -6
t244 6q16 -10 2 -33l-51 -8q-77 -14 -101 -47t-24 -246z" />
    <glyph glyph-name="Iogonek.titling" unicode="&#xe02c;" horiz-adv-x="704" 
d="M274 328v696q0 215 -24 247t-100 46l-50 8q-14 20 2 33q150 -6 258 -6t244 6q16 -10 2 -33l-51 -8q-77 -14 -101 -47t-24 -246v-696q0 -213 24 -246t101 -47l51 -8q4 -9 4 -19t-8 -14q-160 6 -182 6h-4q-82 -84 -82 -193q0 -53 31 -85t83 -32t99 21q12 -2 12 -26
q-72 -90 -188 -91q-66 0 -114 42t-48 120q0 109 158 244q-131 0 -265 -6q-8 4 -8 14t4 19l52 8q76 14 100 47t24 246z" />
    </font>
</defs>
</svg>
